/* XPM */
static char *result[] = {
/* columns rows colors chars-per-pixel */
"50 50 197 2 ",
"   c #6C7F54",
".  c #6F7F5B",
"X  c #627F5C",
"o  c #747F54",
"O  c #5F7D6D",
"+  c #5E7D75",
"@  c #647E64",
"#  c #6B7D64",
"$  c #647D6B",
"%  c #697B6C",
"&  c #717E64",
"*  c #637C73",
"=  c #697A73",
"-  c #687878",
";  c #647F7A",
":  c #7C844F",
">  c #63845E",
",  c #6D8359",
"<  c #6C8A5C",
"1  c #73875C",
"2  c #79855E",
"3  c #738D5C",
"4  c #778954",
"5  c #6B905A",
"6  c #739254",
"7  c #7A9454",
"8  c #74925C",
"9  c #7D965A",
"0  c #5C8364",
"q  c #5D8369",
"w  c #648163",
"e  c #6A8563",
"r  c #6D8A63",
"t  c #64816A",
"y  c #6D826E",
"u  c #748461",
"i  c #7A8463",
"p  c #738D64",
"a  c #7E8B67",
"s  c #718569",
"d  c #748F6B",
"f  c #7D8A6C",
"g  c #749163",
"h  c #789661",
"j  c #76916B",
"k  c #7B9369",
"l  c #7C986E",
"z  c #748D75",
"x  c #8D9E4D",
"c  c #9A9E4B",
"v  c #818E5E",
"b  c #8B8E5A",
"n  c #80835A",
"m  c #9C8F55",
"M  c #87955B",
"N  c #88905C",
"B  c #88985E",
"V  c #969F5A",
"C  c #9C9D5F",
"Z  c #85A04A",
"A  c #88A35F",
"S  c #9BA45E",
"D  c #9FA95F",
"F  c #93A959",
"G  c #A9A75C",
"H  c #A5A75C",
"J  c #B6A75D",
"K  c #AFB65F",
"L  c #808D67",
"P  c #8A8F61",
"I  c #838769",
"U  c #808B69",
"Y  c #828461",
"T  c #8B9061",
"R  c #859B65",
"E  c #80966E",
"W  c #829B6B",
"Q  c #819265",
"!  c #939768",
"~  c #98906D",
"^  c #979B65",
"/  c #889570",
"(  c #8A9F71",
")  c #829975",
"_  c #909C77",
"`  c #82A067",
"'  c #8DAD68",
"]  c #8AA166",
"[  c #92AA6B",
"{  c #8BA374",
"}  c #8CA678",
"|  c #90A670",
" . c #95AE79",
".. c #99B077",
"X. c #9DB57C",
"o. c #A3A465",
"O. c #AFA964",
"+. c #A1A26C",
"@. c #A5AB6A",
"#. c #A8A865",
"$. c #B7AD67",
"%. c #B8AC60",
"&. c #BAAB6A",
"*. c #AFB46C",
"=. c #B7B861",
"-. c #BEB66E",
";. c #BFBC6D",
":. c #B5B76C",
">. c #B4AE75",
",. c #B3B878",
"<. c #B9B677",
"1. c #C9B65D",
"2. c #C2AC6A",
"3. c #C2B36D",
"4. c #CAB76E",
"5. c #C9BC6B",
"6. c #C1B963",
"7. c #DBBD66",
"8. c #C4B573",
"9. c #C4BB73",
"0. c #CDB871",
"q. c #C4BA7A",
"w. c #CCBD7B",
"e. c #D1BF71",
"r. c #D2BE7B",
"t. c #DDBE7F",
"y. c #BFC46D",
"u. c #C6C767",
"i. c #CDC26D",
"p. c #C7C367",
"a. c #D7C768",
"s. c #C4C476",
"d. c #CCC576",
"f. c #C5C379",
"g. c #CFC578",
"h. c #C6CD7C",
"j. c #CCCC79",
"k. c #D3C472",
"l. c #D0CC71",
"z. c #DBC975",
"x. c #D1C37C",
"c. c #D3CA7B",
"v. c #DAC27F",
"b. c #E2C566",
"n. c #8E9F80",
"m. c #8EA28A",
"M. c #97A980",
"N. c #97A789",
"B. c #9BB289",
"V. c #9DAA95",
"C. c #BBAF80",
"Z. c #A5BD82",
"A. c #A8BF82",
"S. c #B8B882",
"D. c #B7B88A",
"F. c #AABA96",
"G. c #B7BC91",
"H. c #ABB9A7",
"J. c #B8BFB2",
"K. c #C6B481",
"L. c #CCBC81",
"P. c #D1BA84",
"I. c #AFC686",
"U. c #A7C18D",
"Y. c #B1C48C",
"T. c #B3C988",
"R. c #B2C691",
"E. c #B5CC9A",
"W. c #B8C2AF",
"Q. c #B6C4AB",
"!. c #B2C2B4",
"~. c #C5C384",
"^. c #CCC283",
"/. c #C5C887",
"(. c #D8C683",
"). c #D6C88B",
"_. c #C3D18D",
"`. c #D3D182",
"'. c #C2C897",
"]. c #C6CFA3",
"[. c #D4CDA9",
"{. c #C4D3AA",
"}. c #CEDAB5",
"|. c #C9D5B8",
" X c #D1DDBD",
".X c #CFE0B3",
"XX c #CFD7D4",
"oX c #D1D3D4",
"OX c #D7E6C8",
"+X c #DBE7CC",
"@X c #E0E5C2",
"#X c #E4E9D7",
"$X c #EDF3DF",
"%X c #EAECEE",
"&X c #EDF2E9",
"*X c #F2F4EC",
"=X c None",
/* pixels */
"=X=X=X=X=X=X=X=X=X=X=X=X=X=X=X=X=X=X=X=X=X=X=X=X=X=X=X=X=X=X=X=X=X=X=X=X=X=X=X=X=X=X=X=X=X=X=X=X=X=X",
"=X=X=X=X=X=X=X=X=X=X=X=X=X=X=X=X=X=X=X=X=X=X=X=X=X=X=X=X=X=X=X=X=X=X=X=X=X=X=X=X=X=X=X=X=X=X=X=X=X=X",
"=X=X=X=X=X=X=X=X=X=X=X=X=X=X=X=X=X=X=X=X=X=X=X=X=X=X=X=X=X=X=X=X=X=X=X=X=X=X=X=X=X=X=X=X=X=X=X=X=X=X",
"=X=X=X=X=X=X=X=X=X=X=X=X=X=X=X=X=X=X=X=X=X=X=X=X=X=X=X=X=X=X=X=X=X=X=X=X=X=X=X=X=X=X=X=X=X=X=X=X=X=X",
"=X=X=X=X=X=X=X=X=X=X=X=X=X=X=X=X=X=X=X=X=X=X=X=X=X=X=X=X=X=X=X=X=X=X=X=X=X=X=X=X=X=X=X=X=X=X=X=X=X=X",
"=X=X=X=X=X=X=X=X=X=X=X=X=X=X=X=X=X=X=X=X=X=X=X=X=X=X=X=X=X=X=X=X=X=X=X=X=X=X=X=X=X=X=X=X=X=X=X=X=X=X",
"=X=X=X=X=X=X=X=X=X=X=X=X=X=X=X=X=X=X=X=X=X=X=X=X=X=X=X=X=X=X=X=X=X=X=X=X=X=X=X=X=X=X=X=X=X=X=X=X=X=X",
"=X=X=X=X=X=X=X=X=X=X=X=X=X=X=X=X=X=X=X=X=X=X=X=X=X=X=X=X=X=X=X8.z.g.=X=X=X=X=X=X=X=X=X=X=X=X=X=X=X=X",
"=X=X=X=X=X=X=X=X=X=X=X=X=X=X=X=X=X=X=X=X=X=X=X=X=X=X=X=X=X=X`.^.:.s.D.=X=X=X=X=X=X=X=X=X=X=X=X=X=X=X",
"=X=X=X=X=X=X=X=X=X=X=X=X=X=X=X=X=X=X=X=X=X=X=X=X=X=X=X=X=Xc./.G.( >.<.=X=X=X=X=X=X=X=X=X=X=X=X=X=X=X",
"=X=X=X=X=X=X=X=X=X=X=X=X=X=X=X=X=X=X=X=X=X=X=X=X=X=X=Xc.c.E.|.!.U 8.=X=X=X=X=X=X=X=X=X=X=X=X=X=X=X=X",
"=X=X=X=X=X=X=X=X=X=X=X=X=X=X=X=X=X=X=X=X=X=X=X=X=Xk.k./.}.OXQ.m.! 8.=X=X=X=X=X=X=X=X=X=X=X=X=X=X=X=X",
"=X=X=X=X=X=X=X=X=X=X=X=X=X=X=X=X=X=X=X=X=X=X=X=Xl.h.}.&X%XW./ 1 >.=X=X=X=X=X=X=X=X=X=X=X=X=X=X=X=X=X",
"=X=X=X=X=X=X=X=X=X=X=X=X=X=X=X=X=X=X=X=X=X=Xr.^._..X*X*XoXV.2 , q.=X=X=X=X=X=X=X=X=X=X=X=X=X=X=X=X=X",
"=X=X=X=X=X=X=X=X=X=X=X=X=X=X=X=X=X=X=X=X=Xx.^.[.#X&XOX{.F.) o b L.=X=X=X=X=X=X=X=X=X=X=X=X=X=X=X=X=X",
"=X=X=X=X=X=X=X=X=X=X=X=X=X=X=X=X=X=X=X(.^./.#X&X@X].E.F.{ e v &.=X=X=X=X=X=X=X=X=X=X=X=X=X=X=X=X=X=X",
"=X=X=X=X=X=X=X=X=X=X=X=X=X=X=X=X=X;.i.-.S.{. X{.T.T.I.B.d # +.w.=X=X=X=X=X=X=X=X=X=X=X=X=X=X=X=X=X=X",
"=X=X=X=X=X=X=X=X=X=X=X=X=X=X=X=X^.;.@.G.}.R.R.Y.I.I.F.( e i >.w.=X=X=X=X=X=X=X=X=X=X=X=X=X=X=X=X=X=X",
"=X=X=X=X=X=X=X=X=X=X=X=X=X=X=X,.S N J.oXH.[ X.A.A.Z.} e # T <.=X=X=X=X=X=X=X=X=X=X=X=X=X=X=X=X=X=X=X",
"=X=X=X=X=X=X=X=X=X=X=X=X=X=Xq.^ 1 R M.N._ ( | ..Z.X.j @ % o.=X=X=X=X=X=X=X=X=X=X=X=X=X=X=X=X=X=X=X=X",
"=X=X=X=X=X=X=X=X=X=X=X=X=X=X%.Y z W ] ] ] ( ( { ..} r @ u <.=X=X=X=X=X=X=X=X=X=X=X=X=X=X=X=X=X=X=X=X",
"=X=X=X=X=X=X=X=X=X=X=X=X=X=XJ n t z E W R R E d k W e @ a r.=X=X=X=X=X=X=X=X=X=X=X=X=X=X=X=X=X=X=X=X",
"=X=X=X=X=X=X=X=X=X=X=X=X=X=X8.b @ % y s s s e . r l e w a r.=X=X=X=X=X=X=X=X=X=X=X=X=X=X=X=X=X=X=X=X",
"=X=X=X=X=X=X=X=X=X=X=X=X=X=X=Xq.I e   @ * @ % $ t j e @ $ k p.i.=X=X=X=X=X=X=X=X=X=X=X=X=X=X=X=X=X=X",
"=X=X=X=X=X=X=X=X=X=X=X=X=X=X=X=XK.~ @ O * X @ $ w j < @ = % N G f.=X=X=X=X=X=X=X=X=X=X=X=X=X=X=X=X=X",
"=X=X=X=X=X=X=X=X=X=X=X=X=X=X=X=XP.q.L $ * @ @ $ @ d r e $ = e 2 *.f.=X=X=X=X=X=X=X=X=X=X=X=X=X=X=X=X",
"=X=X=X=X=X=X=X=X=X=X=X=X=X=X=X=X=X=X5.#.i % $ $ @ p p w @ X - - # o.(.=X=X=X=X=X=X=X=X=X=X=X=X=X=X=X",
"=X=X=X=X=X=X=X=X=X=X=X=X=X=X=X=X=X=X=X7.2.# @ $ @ p g w @ @ & & > 1 2.t.=X=X=X=X=X=X=X=X=X=X=X=X=X=X",
"=X=X=X=X=X=X=X=X=X=X=X=X=X=X=X=X=X=X=X=Xb.1 @ @ w p g e $ $     0 , m L.=X=X=X=X=X=X=X=X=X=X=X=X=X=X",
"=X=X=X=X=X=X=X=X=X=X=X=X=X=X=X=X=X=X=X=X,.  @ @ w g h r $ % @ t $ 2 c y.=X=X=X=X=X=X=X=X=X=X=X=X=X=X",
"=X=X=X=X=X=X=X=X=X=X=X=X=X=X=X=X=X=X=Xr.C X O @ e 6 7 g % % @ w e M 1.z.=X=X=X=X=X=X=X=X=X=X=X=X=X=X",
"=X=X=X=X=X=X=X=X=X=X=X=X=X=X=X=X=X=X=X8.: @ 0 0 e 8 8 8 u t e 3 H 4.).=X=X=X=X=X=X=X=X=X=X=X=X=X=X=X",
"=X=X=X=X=X=X=X=X=X=X=X=X=X=X=X=X=X=Xq.O.. $ $ X < g p 6 6 8 B S 4.(.=X=X=X=X=X=X=X=X=X=X=X=X=X=X=X=X",
"=X=X=X=X=X=X=X=X=X=X=X=X=X=X=X=X=X=X3.b @ $ $ > 3 p p 7 Z H 5.i.=X=X=X=X=X=X=X=X=X=X=X=X=X=X=X=X=X=X",
"=X=X=X=X=X=X=X=X=X=X=X=X=X=X=X=X=X=Xo., $ O w < 6 v B S =.z.=X=X=X=X=X=X=X=X=X=X=X=X=X=X=X=X=X=X=X=X",
"=X=X=X=X=X=X=X=X=X=X=X=X=X=X=X=X=Xx.P @ @ O > 5 7 Z K f.q.=X=X=X=X=X=X=X=X=X=X=X=X=X=X=X=X=X=X=X=X=X",
"=X=X=X=X=X=X=X=X=X=X=X=X=X=X=X=X=X0.i * > 0 5 9 H u.l.=X=X=X=X=X=X=X=X=X=X=X=X=X=X=X=X=X=X=X=X=X=X=X",
"=X=X=X=X=X=X=X=X=X=X=X=X=X=X=X=Xf.$.& + q 3 F *.d.5.=X=X=X=X=X=X=X=X=X=X=X=X=X=X=X=X=X=X=X=X=X=X=X=X",
"=X=X=X=X=X=X=X=X=X=X=X=X=X=X=X=Xh.F q ; f $.i.x.=X=X=X=X=X=X=X=X=X=X=X=X=X=X=X=X=X=X=X=X=X=X=X=X=X=X",
"=X=X=X=X=X=X=X=X=X=X=X=X=X=X=X=Xs.' R @.6.r.=X=X=X=X=X=X=X=X=X=X=X=X=X=X=X=X=X=X=X=X=X=X=X=X=X=X=X=X",
"=X=X=X=X=X=X=X=X=X=X=X=X=X=X=X=X0.@.:.u.a.=X=X=X=X=X=X=X=X=X=X=X=X=X=X=X=X=X=X=X=X=X=X=X=X=X=X=X=X=X",
"=X=X=X=X=X=X=X=X=X=X=X=X=X=X=X=Xc.l.c.3.=X=X=X=X=X=X=X=X=X=X=X=X=X=X=X=X=X=X=X=X=X=X=X=X=X=X=X=X=X=X",
"=X=X=X=X=X=X=X=X=X=X=X=X=X=X=X=X=X=X=X=X=X=X=X=X=X=X=X=X=X=X=X=X=X=X=X=X=X=X=X=X=X=X=X=X=X=X=X=X=X=X",
"=X=X=X=X=X=X=X=X=X=X=X=X=X=X=X=X=X=X=X=X=X=X=X=X=X=X=X=X=X=X=X=X=X=X=X=X=X=X=X=X=X=X=X=X=X=X=X=X=X=X",
"=X=X=X=X=X=X=X=X=X=X=X=X=X=X=X=X=X=X=X=X=X=X=X=X=X=X=X=X=X=X=X=X=X=X=X=X=X=X=X=X=X=X=X=X=X=X=X=X=X=X",
"=X=X=X=X=X=X=X=X=X=X=X=X=X=X=X=X=X=X=X=X=X=X=X=X=X=X=X=X=X=X=X=X=X=X=X=X=X=X=X=X=X=X=X=X=X=X=X=X=X=X",
"=X=X=X=X=X=X=X=X=X=X=X=X=X=X=X=X=X=X=X=X=X=X=X=X=X=X=X=X=X=X=X=X=X=X=X=X=X=X=X=X=X=X=X=X=X=X=X=X=X=X",
"=X=X=X=X=X=X=X=X=X=X=X=X=X=X=X=X=X=X=X=X=X=X=X=X=X=X=X=X=X=X=X=X=X=X=X=X=X=X=X=X=X=X=X=X=X=X=X=X=X=X",
"=X=X=X=X=X=X=X=X=X=X=X=X=X=X=X=X=X=X=X=X=X=X=X=X=X=X=X=X=X=X=X=X=X=X=X=X=X=X=X=X=X=X=X=X=X=X=X=X=X=X",
"=X=X=X=X=X=X=X=X=X=X=X=X=X=X=X=X=X=X=X=X=X=X=X=X=X=X=X=X=X=X=X=X=X=X=X=X=X=X=X=X=X=X=X=X=X=X=X=X=X=X"
};
