/* XPM */
static char *result[] = {
/* columns rows colors chars-per-pixel */
"50 50 197 2 ",
"   c #6C7F5C",
".  c #657E65",
"X  c #697D64",
"o  c #647E6B",
"O  c #697D6A",
"+  c #747F63",
"@  c #6A7D72",
"#  c #667A74",
"$  c #6F835E",
"%  c #6B895F",
"&  c #72805D",
"*  c #7A855E",
"=  c #7B8A5E",
"-  c #758B5B",
";  c #76925E",
":  c #789258",
">  c #799457",
",  c #658164",
"<  c #6B8463",
"1  c #6E8B65",
"2  c #66836C",
"3  c #6A836A",
"4  c #6F8B6A",
"5  c #748463",
"6  c #798666",
"7  c #728C63",
"8  c #7C8B65",
"9  c #72856A",
"0  c #748B6B",
"q  c #6F9165",
"w  c #739162",
"e  c #7B936E",
"r  c #7F9868",
"t  c #779366",
"y  c #798C74",
"u  c #7D9173",
"i  c #7F9F75",
"p  c #BAA537",
"a  c #F58A0E",
"s  c #F6870C",
"d  c #F7970D",
"f  c #E78E1C",
"g  c #F38C12",
"h  c #EB9518",
"j  c #F99813",
"k  c #F69218",
"l  c #F8931A",
"z  c #E9A118",
"x  c #F7A71B",
"c  c #C5932D",
"v  c #C59B2B",
"b  c #C28E35",
"n  c #CF9737",
"m  c #C09E30",
"M  c #F79D22",
"N  c #DDB838",
"B  c #E6A620",
"V  c #E3AD2A",
"C  c #F7A027",
"Z  c #F8A825",
"A  c #EEBC2E",
"S  c #F4B42B",
"D  c #EDA131",
"F  c #F5A735",
"G  c #F2B93A",
"H  c #F1B937",
"J  c #8D874D",
"K  c #928A4C",
"L  c #8F9847",
"P  c #8E994B",
"I  c #929747",
"U  c #939248",
"Y  c #858D5C",
"T  c #8B8A56",
"R  c #949B5D",
"E  c #97995B",
"W  c #AB9753",
"Q  c #9DA25F",
"!  c #B9B247",
"~  c #A5A45F",
"^  c #B2AF5F",
"/  c #B9B656",
"(  c #858B62",
")  c #898F64",
"_  c #829063",
"`  c #8B9362",
"'  c #819F66",
"]  c #84956B",
"[  c #85986C",
"{  c #89956E",
"}  c #949564",
"|  c #969C64",
" . c #9C9D64",
".. c #909568",
"X. c #9D9F6A",
"o. c #839573",
"O. c #859A72",
"+. c #8D9F73",
"@. c #8D9F7A",
"#. c #989A70",
"$. c #939975",
"%. c #A29E68",
"&. c #8DA86E",
"*. c #9BA363",
"=. c #9EA168",
"-. c #93A26B",
";. c #8DA074",
":. c #8FAA75",
">. c #94AC75",
",. c #96A579",
"<. c #9CB37D",
"1. c #A3A363",
"2. c #ADA963",
"3. c #A5A369",
"4. c #ABA56B",
"5. c #ABAB6D",
"6. c #A6AB68",
"7. c #B4AB6C",
"8. c #BAAE6C",
"9. c #B7AC64",
"0. c #AEB36B",
"q. c #B1B266",
"w. c #BDB767",
"e. c #B0B26C",
"r. c #BBB46C",
"t. c #B6B86A",
"y. c #A2A572",
"u. c #B3AE73",
"i. c #A1B87F",
"p. c #B3B372",
"a. c #BBB375",
"s. c #B9BF77",
"d. c #B6B778",
"f. c #D9A747",
"g. c #E9AD47",
"h. c #ECBD43",
"j. c #EFB44F",
"k. c #EABD4C",
"l. c #E5BE4E",
"z. c #F5B444",
"x. c #ECB956",
"c. c #C0AA61",
"v. c #C7BB77",
"b. c #C8BD7A",
"n. c #B9C27D",
"m. c #D4C149",
"M. c #CDC459",
"N. c #E6C44A",
"B. c #E9C54A",
"V. c #E3C356",
"C. c #C7CA72",
"Z. c #889D80",
"A. c #8CA182",
"S. c #9CAB86",
"D. c #95AA8A",
"F. c #9FBA81",
"G. c #A2B383",
"H. c #A9BC85",
"J. c #A8B78B",
"K. c #B6B989",
"L. c #A4B695",
"P. c #ABBE91",
"I. c #B1BB97",
"U. c #C4BF83",
"Y. c #C3BB86",
"T. c #AEC58D",
"R. c #B2C48A",
"E. c #B5C395",
"W. c #BFC194",
"Q. c #B9CA93",
"!. c #B4C5AF",
"~. c #C3C383",
"^. c #CDC482",
"/. c #CBCC84",
"(. c #CCCB8D",
"). c #C8C689",
"_. c #D1C383",
"`. c #CFD38E",
"'. c #C5C998",
"]. c #D3CD94",
"[. c #D6CF9B",
"{. c #C3CEAF",
"}. c #D4CEA2",
"|. c #C3D2A1",
" X c #CAD6AD",
".X c #D2D3A4",
"XX c #D6D9A9",
"oX c #C7D4B5",
"OX c #DBDAB7",
"+X c #DAE0BA",
"@X c #DFDDC6",
"#X c #D4DBC3",
"$X c #D6E0C0",
"%X c #DDE2C5",
"&X c #DDE3CA",
"*X c #DEE1D0",
"=X c None",
/* pixels */
"=X=X=X=X=X=X=X=X=X=X=X=X=X=X=X=X=X=X=X=X=X=X=X=X=X=X=X=X=X=X=X=X=X=X=X=X=X=X=X=X=X=X=X=X=X=X=X=X=X=X",
"=X=X=X=X=X=X=X=X=X=X=X=X=X=X=X=X=X=X=X=X=X=X=X=X=X=X=X=X=X=X=X=X=X=X=X=X=X=X=X=X=X=X=X=X=X=X=X=X=X=X",
"=X=X=X=X=X=X=X=X=X=X=X=X=X=X=X=X=X=X=X=X=X=X=X=X=X=X=X=X=X=X=X=X=X=X=X=X=X=X=X=X=X=X=X=X=X=X=X=X=X=X",
"=X=X=X=X=X=X=X=X=X=X=X=X=X=X=X=X=X=X=X=X=X=X=X=X=X=X=X=X=X=X=X=X=X=X=X=X=X=X=X=X=X=X=X=X=X=X=X=X=X=X",
"=X=X=X=X=X=X=X=X=X=X=X=X=X=X=X=X=X=X=X=X=X=X=X=X=X=X=X=X=X=X=X=X=X=X=X=X=X=X=X=X=X=X=X=X=X=X=X=X=X=X",
"=X=X=X=X=X=X=X=X=X=X=X=X=X=X=X=X=X=X=X=X=X=X=X=X=X=X=X=X=X=X=XU.(.(.=X=X=X=X=X=X=X=X=X=X=X=X=X=X=X=X",
"=X=X=X=X=X=X=X=X=X=X=X=X=X=X=X=X=X=X=X=X=X=X=X=X=X=X=X=X=X=X=XU.(.(.=X=X=X=X=X=X=X=X=X=X=X=X=X=X=X=X",
"=X=X=X=X=X=X=X=X=X=X=X=X=X=X=X=X=X=X=X=X=X=X=X=X=X=X=X=X=X=X=X~.(.).n.=X=X=X=X=X=X=X=X=X=X=X=X=X=X=X",
"=X=X=X=X=X=X=X=X=X=X=X=X=X=X=X=X=X=X=X=X=X=X=X=X=X=X=X=X=X=X).~.d.p.n.=X=X=X=X=X=X=X=X=X=X=X=X=X=X=X",
"=X=X=X=X=X=X=X=X=X=X=X=X=X=X=X=X=X=X=X=X=X=X=X=X=X=X=X=Xv.).'.K.,.3.t.=X=X=X=X=X=X=X=X=X=X=X=X=X=X=X",
"=X=X=X=X=X=X=X=X=X=X=X=X=X=X=X=X=X=X=X=X=X=X=X=X=X=X=X^.].}.{.L.$.=.0.=X=X=X=X=X=X=X=X=X=X=X=X=X=X=X",
"=X=X=X=X=X=X=X=X=X=X=X=X=X=X=X=X=X=X=X=X=X=X=X=X=XC./.}.OX#X!.D.$.4.=X=X=X=X=X=X=X=X=X=X=X=X=X=X=X=X",
"=X=X=X=X=X=X=X=X=X=X=X=X=X=X=X=X=X=X=X=X=X=X=X=X/.`..X@X*XoXD.o.#.a.=X=X=X=X=X=X=X=X=X=X=X=X=X=X=X=X",
"=X=X=X=X=X=X=X=X=X=X=X=X=X=X=X=X=X=X=X=X=X=X_.[.XX+X%X&X{.L.o.o.3.=X=X=X=X=X=X=X=X=X=X=X=X=X=X=X=X=X",
"=X=X=X=X=X=X=X=X=X=X=X=X=X=X=X=X=X=X=X=Xv.C.[.+X&X&X$X{.L.Z.8 ..u.=X=X=X=X=X=X=X=X=X=X=X=X=X=X=X=X=X",
"=X=X=X=X=X=X=X=X=X=X=X=X=X=X=X=X=X=X=XU.~.'.OX%X%XXX|.I.Z.y ) %.a.=X=X=X=X=X=X=X=X=X=X=X=X=X=X=X=X=X",
"=X=X=X=X=X=X=X=X=X=X=X=X=X=X=X=X=Xv.K.Y.W.'.oX X|.Q.T.D.u 9 } 7.=X=X=X=X=X=X=X=X=X=X=X=X=X=X=X=X=X=X",
"=X=X=X=X=X=X=X=X=X=X=X=X=X=X=X=X7.u.K.Y.E.E.Q.Q.R.R.F.i 4 6 %.8.=X=X=X=X=X=X=X=X=X=X=X=X=X=X=X=X=X=X",
"=X=X=X=X=X=X=X=X=X=X=X=X=X=Xr.4.X.,.I.I.J.S.G.H.T.H.:.q O ( 5.=X=X=X=X=X=X=X=X=X=X=X=X=X=X=X=X=X=X=X",
"=X=X=X=X=X=X=X=X=X=X=X=X=X=X2.} { @.S.S.,.,.>.<.<.<.O.% 5 ` p.=X=X=X=X=X=X=X=X=X=X=X=X=X=X=X=X=X=X=X",
"=X=X=X=X=X=X=X=X=X=X=X=X=Xq.*.8 y O.@.;.+.+.+.&.&.&.e 3 - Q =X=X=X=X=X=X=X=X=X=X=X=X=X=X=X=X=X=X=X=X",
"=X=X=X=X=X=X=X=X=X=X=X=X=Xq.*.1 0 o.[ [ O.O.] ' r &.0 O _ ^ =X=X=X=X=X=X=X=X=X=X=X=X=X=X=X=X=X=X=X=X",
"=X=X=X=X=X=X=X=X=X=X=X=X=X7.1.8 O 3 7 8 6 0 9 < ; t 7 @ ) 9.=X=X=X=X=X=X=X=X=X=X=X=X=X=X=X=X=X=X=X=X",
"=X=X=X=X=X=X=X=X=X=X=X=X=X=X7.} 9 . X O @ O O O 1 q 7 O 6 E u.=X=X=X=X=X=X=X=X=X=X=X=X=X=X=X=X=X=X=X",
"=X=X=X=X=X=X=X=X=X=X=X=X=X=X=X5...*   O # o . . 3 0 1 , . * } u.d.=X=X=X=X=X=X=X=X=X=X=X=X=X=X=X=X=X",
"=X=X=X=X=X=X=X=X=X=X=X=X=X=X=X=Xr.~ T + # o o o 2 4 4 , o . & Y 1.t.=X=X=X=X=X=X=X=X=X=X=X=X=X=X=X=X",
"=X=X=X=X=X=X=X=X=X=X=X=X=X=X=X=X=Xr.%.( + X . o 2 4 4 , o o X & Y 1.r.=X=X=X=X=X=X=X=X=X=X=X=X=X=X=X",
"=X=X=X=X=X=X=X=X=X=X=X=X=X=X=X=X=X=Xu.X.Y   . . , q 4 , o o , O & _ 6.t.=X=X=X=X=X=X=X=X=X=X=X=X=X=X",
"=X=X=X=X=X=X=X=X=X=X=X=X=X=X=X=X=X=X=Xe.| = . % , 1 w , o o o o o 5 R e.=X=X=X=X=X=X=X=X=X=X=X=X=X=X",
"=X=X=X=X=X=X=X=X=X=X=X=X=X=X=X=X=X=X=Xe. .6 O , < 7 w < . . , o , - } 7.=X=X=X=X=X=X=X=X=X=X=X=X=X=X",
"=X=X=X=X=X=X=X=X=X=X=X=X=X=X=X=X=X=X=X4.` 5 . , < q w % % , , , < _  .8.=X=X=X=X=X=X=X=X=X=X=X=X=X=X",
"=X=X=X=X=X=X=X=X=X=X=X=X=X=X=X=X=X=X=X%.( < . , < ; ; % % , , 3 8 | 2.r.=X=X=X=X=X=X=X=X=X=X=X=X=X=X",
"=X=X=X=X=X=X=X=X=X=X=X=X=X=X=X=X=X=Xu. .( X   $ - : > : 7 7 8 [ -.5.r.=X=X=X=X=X=X=X=X=X=X=X=X=X=X=X",
"=X=X=X=X=X=X=X=X=X=X=X=X=X=X=X=X=X=Xc.W K J K K U I L L P R *.6.e.=X=X=X=X=X=X=X=X=X=X=X=X=X=X=X=X=X",
"=X=X=X=X=X=X=X=X=X=X=X=X=X=X=X=X=X=Xf.n b b b c m m p p ! / w.v.=X=X=X=X=X=X=X=X=X=X=X=X=X=X=X=X=X=X",
"=X=X=X=X=X=X=X=X=X=X=X=X=X=X=X=X=Xg.D f f f h h z z V N m.M.=X=X=X=X=X=X=X=X=X=X=X=X=X=X=X=X=X=X=X=X",
"=X=X=X=X=X=X=X=X=X=X=X=X=X=X=X=X=Xg.M g a a d j x S H h.=X=X=X=X=X=X=X=X=X=X=X=X=X=X=X=X=X=X=X=X=X=X",
"=X=X=X=X=X=X=X=X=X=X=X=X=X=X=X=Xx.F l s s a j x S G l.=X=X=X=X=X=X=X=X=X=X=X=X=X=X=X=X=X=X=X=X=X=X=X",
"=X=X=X=X=X=X=X=X=X=X=X=X=X=X=X=Xj.F k s a j Z G l.=X=X=X=X=X=X=X=X=X=X=X=X=X=X=X=X=X=X=X=X=X=X=X=X=X",
"=X=X=X=X=X=X=X=X=X=X=X=X=X=X=X=Xz.M k l M S G B.=X=X=X=X=X=X=X=X=X=X=X=X=X=X=X=X=X=X=X=X=X=X=X=X=X=X",
"=X=X=X=X=X=X=X=X=X=X=X=X=X=X=Xk.S x C F z.x.=X=X=X=X=X=X=X=X=X=X=X=X=X=X=X=X=X=X=X=X=X=X=X=X=X=X=X=X",
"=X=X=X=X=X=X=X=X=X=X=X=X=X=X=XN.A S H k.=X=X=X=X=X=X=X=X=X=X=X=X=X=X=X=X=X=X=X=X=X=X=X=X=X=X=X=X=X=X",
"=X=X=X=X=X=X=X=X=X=X=X=X=X=X=X=XB.B.V.=X=X=X=X=X=X=X=X=X=X=X=X=X=X=X=X=X=X=X=X=X=X=X=X=X=X=X=X=X=X=X",
"=X=X=X=X=X=X=X=X=X=X=X=X=X=X=X=X=X=X=X=X=X=X=X=X=X=X=X=X=X=X=X=X=X=X=X=X=X=X=X=X=X=X=X=X=X=X=X=X=X=X",
"=X=X=X=X=X=X=X=X=X=X=X=X=X=X=X=X=X=X=X=X=X=X=X=X=X=X=X=X=X=X=X=X=X=X=X=X=X=X=X=X=X=X=X=X=X=X=X=X=X=X",
"=X=X=X=X=X=X=X=X=X=X=X=X=X=X=X=X=X=X=X=X=X=X=X=X=X=X=X=X=X=X=X=X=X=X=X=X=X=X=X=X=X=X=X=X=X=X=X=X=X=X",
"=X=X=X=X=X=X=X=X=X=X=X=X=X=X=X=X=X=X=X=X=X=X=X=X=X=X=X=X=X=X=X=X=X=X=X=X=X=X=X=X=X=X=X=X=X=X=X=X=X=X",
"=X=X=X=X=X=X=X=X=X=X=X=X=X=X=X=X=X=X=X=X=X=X=X=X=X=X=X=X=X=X=X=X=X=X=X=X=X=X=X=X=X=X=X=X=X=X=X=X=X=X",
"=X=X=X=X=X=X=X=X=X=X=X=X=X=X=X=X=X=X=X=X=X=X=X=X=X=X=X=X=X=X=X=X=X=X=X=X=X=X=X=X=X=X=X=X=X=X=X=X=X=X",
"=X=X=X=X=X=X=X=X=X=X=X=X=X=X=X=X=X=X=X=X=X=X=X=X=X=X=X=X=X=X=X=X=X=X=X=X=X=X=X=X=X=X=X=X=X=X=X=X=X=X"
};
