/* XPM */
static char *result[] = {
/* columns rows colors chars-per-pixel */
"50 50 197 2 ",
"   c #6F7E5E",
".  c #647E65",
"X  c #6A7E63",
"o  c #667D69",
"O  c #6A7C6A",
"+  c #7E8757",
"@  c #72815C",
"#  c #758A5D",
"$  c #7F935B",
"%  c #658164",
"&  c #6B8463",
"*  c #6E8A63",
"=  c #6D866A",
"-  c #6F8A6D",
";  c #748562",
":  c #7C8664",
">  c #738E64",
",  c #72856A",
"<  c #7C846B",
"1  c #738C6A",
"2  c #7E8968",
"3  c #759166",
"4  c #75926C",
"5  c #7B946B",
"6  c #7F8D70",
"7  c #779170",
"8  c #7E9872",
"9  c #A28D3E",
"0  c #BF8F32",
"q  c #B88F39",
"w  c #AE933E",
"e  c #A99A3F",
"r  c #F7870C",
"t  c #F9860D",
"y  c #F68C0E",
"u  c #F7910E",
"i  c #F9950D",
"p  c #FA9A0C",
"a  c #F68E12",
"s  c #FA8A14",
"d  c #F68D19",
"f  c #EC9B15",
"g  c #EB9418",
"h  c #E89619",
"j  c #F79A13",
"k  c #F4931B",
"l  c #FA9F1D",
"z  c #FA9112",
"x  c #FAA10D",
"c  c #EFA216",
"v  c #F5A214",
"b  c #F8A413",
"n  c #F9A815",
"m  c #FAAD1C",
"M  c #F6A61C",
"N  c #C2932E",
"B  c #CB9A28",
"V  c #DB9D22",
"C  c #C99630",
"Z  c #E09E23",
"A  c #F49D23",
"S  c #F09928",
"D  c #F69C30",
"F  c #CEA326",
"G  c #D8A225",
"H  c #DAA63B",
"J  c #E1A62A",
"K  c #F5AA21",
"L  c #F7AB2D",
"P  c #F7B025",
"I  c #F9B323",
"U  c #F4B32D",
"Y  c #F8B32E",
"T  c #ECA63F",
"R  c #F2A336",
"E  c #E7B43C",
"W  c #F4B23D",
"Q  c #F2BB3C",
"!  c #F4B834",
"~  c #8A864E",
"^  c #968945",
"/  c #9A9548",
"(  c #858353",
")  c #8A8550",
"_  c #819157",
"`  c #949A5B",
"'  c #959157",
"]  c #B89D45",
"[  c #BCA757",
"{  c #838B65",
"}  c #898F67",
"|  c #818B69",
" . c #8E9463",
".. c #8B976A",
"X. c #899F6F",
"o. c #849368",
"O. c #969A63",
"+. c #9E9E66",
"@. c #989668",
"#. c #959A6D",
"$. c #9C9C6A",
"%. c #949264",
"&. c #839572",
"*. c #849D70",
"=. c #8A9C75",
"-. c #A49F65",
";. c #A29D6C",
":. c #9AA06E",
">. c #8BA274",
",. c #8BA578",
"<. c #95AC77",
"1. c #93A579",
"2. c #96A876",
"3. c #9EB57C",
"4. c #AEAF67",
"5. c #A5A46C",
"6. c #AAA86A",
"7. c #A3A567",
"8. c #B4AC6A",
"9. c #BAAE6D",
"0. c #B4A362",
"q. c #BBB36B",
"w. c #BDBD6B",
"e. c #B1B368",
"r. c #ADAE72",
"t. c #B7AB71",
"y. c #AABF7F",
"u. c #A2B87F",
"i. c #B3B273",
"p. c #BFB870",
"a. c #BCB677",
"s. c #DDBC4E",
"d. c #C5AD53",
"f. c #E8A848",
"g. c #F2AE44",
"h. c #EBBB46",
"j. c #EDB44C",
"k. c #E6BF4D",
"l. c #EDBC4B",
"z. c #F3BF4C",
"x. c #E5B455",
"c. c #EEB950",
"v. c #E1B758",
"b. c #EABE5C",
"n. c #CCB76A",
"m. c #C6B66A",
"M. c #C5B570",
"N. c #C3BC7B",
"B. c #C9BF76",
"V. c #BFC37F",
"C. c #F3C14C",
"Z. c #C8C36D",
"A. c #CCC37A",
"S. c #C2C07E",
"D. c #D7C475",
"F. c #8D9E87",
"G. c #9CAB87",
"H. c #9EB187",
"J. c #A4AB81",
"K. c #A5BA84",
"L. c #B2B180",
"P. c #A2B095",
"I. c #AEBCA7",
"U. c #B5BFA0",
"Y. c #B7BDA8",
"T. c #C0BC83",
"R. c #ADC185",
"E. c #B6C58B",
"W. c #B2C592",
"Q. c #BFC096",
"!. c #BBCA92",
"~. c #B5C09D",
"^. c #BECF98",
"/. c #B8C899",
"(. c #B9C5A2",
"). c #CCC584",
"_. c #C5C887",
"`. c #C9C48B",
"'. c #C5C78A",
"]. c #D3CC8A",
"[. c #CED39C",
"{. c #D3D19D",
"}. c #D9D299",
"|. c #CACEA6",
" X c #C4D4A4",
".X c #C9D9AE",
"XX c #CCD0A3",
"oX c #D6D8AC",
"OX c #CBD7BB",
"+X c #D6DDB5",
"@X c #D6DDB8",
"#X c #D7E0BE",
"$X c #D3DBC4",
"%X c #D0D7C8",
"&X c #DDE5CC",
"*X c #DAE0C7",
"=X c None",
/* pixels */
"=X=X=X=X=X=X=X=X=X=X=X=X=X=X=X=X=X=X=X=X=X=X=X=X=X=X=X=X=X=X=X=X=X=X=X=X=X=X=X=X=X=X=X=X=X=X=X=X=X=X",
"=X=X=X=X=X=X=X=X=X=X=X=X=X=X=X=X=X=X=X=X=X=X=X=X=X=X=X=X=X=X=X=X=X=X=X=X=X=X=X=X=X=X=X=X=X=X=X=X=X=X",
"=X=X=X=X=X=X=X=X=X=X=X=X=X=X=X=X=X=X=X=X=X=X=X=X=X=X=X=X=X=X=X=X=X=X=X=X=X=X=X=X=X=X=X=X=X=X=X=X=X=X",
"=X=X=X=X=X=X=X=X=X=X=X=X=X=X=X=X=X=X=X=X=X=X=X=X=X=X=X=X=X=X=X=X=X=X=X=X=X=X=X=X=X=X=X=X=X=X=X=X=X=X",
"=X=X=X=X=X=X=X=X=X=X=X=X=X=X=X=X=X=X=X=X=X=X=X=X=X=X=X=X=X=X=X=X=X=X=X=X=X=X=X=X=X=X=X=X=X=X=X=X=X=X",
"=X=X=X=X=X=X=X=X=X=X=X=X=X=X=X=X=X=X=X=X=X=X=X=X=X=X=X=X=X=X=X=X=X=X=X=X=X=X=X=X=X=X=X=X=X=X=X=X=X=X",
"=X=X=X=X=X=X=X=X=X=X=X=X=X=X=X=X=X=X=X=X=X=X=X=X=X=X=X=X=X=X=X=X=X=X=X=X=X=X=X=X=X=X=X=X=X=X=X=X=X=X",
"=X=X=X=X=X=X=X=X=X=X=X=X=X=X=X=X=X=X=X=X=X=X=X=X=X=X=X=X=X=X=XB.Z.m.=X=X=X=X=X=X=X=X=X=X=X=X=X=X=X=X",
"=X=X=X=X=X=X=X=X=X=X=X=X=X=X=X=X=X=X=X=X=X=X=X=X=X=X=X=X=XN._.V.V.Z.=X=X=X=X=X=X=X=X=X=X=X=X=X=X=X=X",
"=X=X=X=X=X=X=X=X=X=X=X=X=X=X=X=X=X=X=X=X=X=X=X=X=X=X=X=X`.`.E.H.:.q.=X=X=X=X=X=X=X=X=X=X=X=X=X=X=X=X",
"=X=X=X=X=X=X=X=X=X=X=X=X=X=X=X=X=X=X=X=X=X=X=X=X=X=XA.'.XX|.U.F.#.9.=X=X=X=X=X=X=X=X=X=X=X=X=X=X=X=X",
"=X=X=X=X=X=X=X=X=X=X=X=X=X=X=X=X=X=X=X=X=X=X=X=X=XD.].oX$XOXP.&.+.M.=X=X=X=X=X=X=X=X=X=X=X=X=X=X=X=X",
"=X=X=X=X=X=X=X=X=X=X=X=X=X=X=X=X=X=X=X=X=X=X=X).].}.+X$X%XY.&.%.4.=X=X=X=X=X=X=X=X=X=X=X=X=X=X=X=X=X",
"=X=X=X=X=X=X=X=X=X=X=X=X=X=X=X=X=X=X=X=X=X=X).{.@X*X&X$XY.F.2 -.M.=X=X=X=X=X=X=X=X=X=X=X=X=X=X=X=X=X",
"=X=X=X=X=X=X=X=X=X=X=X=X=X=X=X=X=X=X=X=XA.].}.@X&X&X$X(.G.6 } 8.=X=X=X=X=X=X=X=X=X=X=X=X=X=X=X=X=X=X",
"=X=X=X=X=X=X=X=X=X=X=X=X=X=X=X=X=X=X=XS._.[.+X#X#X.X/.H.8 : O.p.=X=X=X=X=X=X=X=X=X=X=X=X=X=X=X=X=X=X",
"=X=X=X=X=X=X=X=X=X=X=X=X=X=X=X=X=Xa.T.'.!. X.X X^.!.K.F.1 < 7.=X=X=X=X=X=X=X=X=X=X=X=X=X=X=X=X=X=X=X",
"=X=X=X=X=X=X=X=X=X=X=X=X=X=X=Xi.r.L.U./.W.W.W.E.R.R.<.7 = } 4.=X=X=X=X=X=X=X=X=X=X=X=X=X=X=X=X=X=X=X",
"=X=X=X=X=X=X=X=X=X=X=X=X=X=Xe.5.$.u.U.U.K.3.u.y.R.3.>.= , $.=X=X=X=X=X=X=X=X=X=X=X=X=X=X=X=X=X=X=X=X",
"=X=X=X=X=X=X=X=X=X=X=X=X=X=X5...o.1.H.J.1.2.<.3.3.2.3 % { 6.=X=X=X=X=X=X=X=X=X=X=X=X=X=X=X=X=X=X=X=X",
"=X=X=X=X=X=X=X=X=X=X=X=X=Xa.@.{ 6 &.=.,.=.X.>.,.<.*.* ; O.q.=X=X=X=X=X=X=X=X=X=X=X=X=X=X=X=X=X=X=X=X",
"=X=X=X=X=X=X=X=X=X=X=X=X=Xq.%.; ; 4 8 &.&.5 5 5 8 5 & ; 6.n.=X=X=X=X=X=X=X=X=X=X=X=X=X=X=X=X=X=X=X=X",
"=X=X=X=X=X=X=X=X=X=X=X=X=Xw.+.< & & , 1 , , & = 4 4 & # ;.M.=X=X=X=X=X=X=X=X=X=X=X=X=X=X=X=X=X=X=X=X",
"=X=X=X=X=X=X=X=X=X=X=X=X=X=X4.#.< X X X X O o % - 4 &   } 7.q.=X=X=X=X=X=X=X=X=X=X=X=X=X=X=X=X=X=X=X",
"=X=X=X=X=X=X=X=X=X=X=X=X=X=X=Xi.$.< O o o o o % - > % % X + ;.N.=X=X=X=X=X=X=X=X=X=X=X=X=X=X=X=X=X=X",
"=X=X=X=X=X=X=X=X=X=X=X=X=X=X=X=X9.$.6 % . . o o = - * % . O < $.9.=X=X=X=X=X=X=X=X=X=X=X=X=X=X=X=X=X",
"=X=X=X=X=X=X=X=X=X=X=X=X=X=X=X=X=Xq.5.2 % % . o % 4 * % . . o   ` 4.=X=X=X=X=X=X=X=X=X=X=X=X=X=X=X=X",
"=X=X=X=X=X=X=X=X=X=X=X=X=X=X=X=X=X=X9.;.2 % . % % 3 * % . . . O # ` 9.=X=X=X=X=X=X=X=X=X=X=X=X=X=X=X",
"=X=X=X=X=X=X=X=X=X=X=X=X=X=X=X=X=X=X=Xt. .& . . & 3 # &   X     + ' 0.=X=X=X=X=X=X=X=X=X=X=X=X=X=X=X",
"=X=X=X=X=X=X=X=X=X=X=X=X=X=X=X=X=X=X=X8.` & .   # $ _ + + ~ ^ 9 w ] [ =X=X=X=X=X=X=X=X=X=X=X=X=X=X=X",
"=X=X=X=X=X=X=X=X=X=X=X=X=X=X=X=X=X=X=X[ / ~ ( ~ / / e w q N B V J E s.=X=X=X=X=X=X=X=X=X=X=X=X=X=X=X",
"=X=X=X=X=X=X=X=X=X=X=X=X=X=X=X=X=X=Xx.H C 0 0 0 F F G V h f j M U h.=X=X=X=X=X=X=X=X=X=X=X=X=X=X=X=X",
"=X=X=X=X=X=X=X=X=X=X=X=X=X=X=X=X=X=Xg.K g g h f c c c v b v K ! h.=X=X=X=X=X=X=X=X=X=X=X=X=X=X=X=X=X",
"=X=X=X=X=X=X=X=X=X=X=X=X=X=X=X=X=X=XR z s s u u p x x n m Y Q k.=X=X=X=X=X=X=X=X=X=X=X=X=X=X=X=X=X=X",
"=X=X=X=X=X=X=X=X=X=X=X=X=X=X=X=X=Xf.S a r a a u p x n I ! h.=X=X=X=X=X=X=X=X=X=X=X=X=X=X=X=X=X=X=X=X",
"=X=X=X=X=X=X=X=X=X=X=X=X=X=X=X=X=Xf.k s r r u p x m Y Q l.=X=X=X=X=X=X=X=X=X=X=X=X=X=X=X=X=X=X=X=X=X",
"=X=X=X=X=X=X=X=X=X=X=X=X=X=X=X=Xx.R d t r y j b I ! l.=X=X=X=X=X=X=X=X=X=X=X=X=X=X=X=X=X=X=X=X=X=X=X",
"=X=X=X=X=X=X=X=X=X=X=X=X=X=X=X=Xf.D s s y j K U C.C.=X=X=X=X=X=X=X=X=X=X=X=X=X=X=X=X=X=X=X=X=X=X=X=X",
"=X=X=X=X=X=X=X=X=X=X=X=X=X=X=X=Xg.A s z M L Q h.=X=X=X=X=X=X=X=X=X=X=X=X=X=X=X=X=X=X=X=X=X=X=X=X=X=X",
"=X=X=X=X=X=X=X=X=X=X=X=X=X=X=Xc.Y b l L W j.=X=X=X=X=X=X=X=X=X=X=X=X=X=X=X=X=X=X=X=X=X=X=X=X=X=X=X=X",
"=X=X=X=X=X=X=X=X=X=X=X=X=X=X=Xl.Y Y W c.v.=X=X=X=X=X=X=X=X=X=X=X=X=X=X=X=X=X=X=X=X=X=X=X=X=X=X=X=X=X",
"=X=X=X=X=X=X=X=X=X=X=X=X=X=X=XC.C.z.b.=X=X=X=X=X=X=X=X=X=X=X=X=X=X=X=X=X=X=X=X=X=X=X=X=X=X=X=X=X=X=X",
"=X=X=X=X=X=X=X=X=X=X=X=X=X=X=X=Xn.n.=X=X=X=X=X=X=X=X=X=X=X=X=X=X=X=X=X=X=X=X=X=X=X=X=X=X=X=X=X=X=X=X",
"=X=X=X=X=X=X=X=X=X=X=X=X=X=X=X=X=X=X=X=X=X=X=X=X=X=X=X=X=X=X=X=X=X=X=X=X=X=X=X=X=X=X=X=X=X=X=X=X=X=X",
"=X=X=X=X=X=X=X=X=X=X=X=X=X=X=X=X=X=X=X=X=X=X=X=X=X=X=X=X=X=X=X=X=X=X=X=X=X=X=X=X=X=X=X=X=X=X=X=X=X=X",
"=X=X=X=X=X=X=X=X=X=X=X=X=X=X=X=X=X=X=X=X=X=X=X=X=X=X=X=X=X=X=X=X=X=X=X=X=X=X=X=X=X=X=X=X=X=X=X=X=X=X",
"=X=X=X=X=X=X=X=X=X=X=X=X=X=X=X=X=X=X=X=X=X=X=X=X=X=X=X=X=X=X=X=X=X=X=X=X=X=X=X=X=X=X=X=X=X=X=X=X=X=X",
"=X=X=X=X=X=X=X=X=X=X=X=X=X=X=X=X=X=X=X=X=X=X=X=X=X=X=X=X=X=X=X=X=X=X=X=X=X=X=X=X=X=X=X=X=X=X=X=X=X=X",
"=X=X=X=X=X=X=X=X=X=X=X=X=X=X=X=X=X=X=X=X=X=X=X=X=X=X=X=X=X=X=X=X=X=X=X=X=X=X=X=X=X=X=X=X=X=X=X=X=X=X",
"=X=X=X=X=X=X=X=X=X=X=X=X=X=X=X=X=X=X=X=X=X=X=X=X=X=X=X=X=X=X=X=X=X=X=X=X=X=X=X=X=X=X=X=X=X=X=X=X=X=X"
};
