/* XPM */
static char *result[] = {
/* columns rows colors chars-per-pixel */
"50 50 197 2 ",
"   c #73885F",
".  c #7D8C5F",
"X  c #6D8465",
"o  c #7D8C61",
"O  c #73896B",
"+  c #748665",
"@  c #7A9867",
"#  c #7B926F",
"$  c #A8933A",
"%  c #B39537",
"&  c #DD9F1B",
"*  c #F7850F",
"=  c #F9860E",
"-  c #F58B0F",
";  c #F98C0B",
":  c #FB8F06",
">  c #FA9407",
",  c #FB9A06",
"<  c #F5950B",
"1  c #FA950A",
"2  c #F69B0D",
"3  c #FA9B0B",
"4  c #F69307",
"5  c #F68611",
"6  c #F88711",
"7  c #F68C12",
"8  c #F88F15",
"9  c #F78E18",
"0  c #E39B15",
"q  c #EB9C14",
"w  c #F49115",
"e  c #F89C13",
"r  c #F4951C",
"t  c #F89F1A",
"y  c #F79A19",
"u  c #DDA21E",
"i  c #F9A106",
"p  c #FBA807",
"a  c #F6A10B",
"s  c #FBA20B",
"d  c #FBA80C",
"f  c #F5A107",
"g  c #E4A31E",
"h  c #F3A511",
"j  c #F8A415",
"k  c #F7A51C",
"l  c #F9A41B",
"z  c #F5AA1C",
"x  c #FBAA1C",
"c  c #FAB01E",
"v  c #D59D24",
"b  c #C29932",
"n  c #EE9F29",
"m  c #F39A22",
"M  c #FA9E22",
"N  c #D5A225",
"B  c #DAA727",
"V  c #D1A62A",
"C  c #D0AA39",
"Z  c #ECAD27",
"A  c #F5A523",
"S  c #F5AD24",
"D  c #F3A42B",
"F  c #F4AC2B",
"G  c #F8A925",
"H  c #F7B823",
"J  c #F5B22E",
"K  c #F7B52A",
"L  c #EBA334",
"P  c #F4A030",
"I  c #F9AB31",
"U  c #F2AA38",
"Y  c #EEB43C",
"T  c #F3B334",
"R  c #F4B835",
"E  c #F3B33A",
"W  c #F2BC3B",
"Q  c #99914B",
"!  c #859357",
"~  c #999655",
"^  c #A4964D",
"/  c #A69A49",
"(  c #B29C4A",
")  c #AFA25B",
"_  c #848B64",
"`  c #859363",
"'  c #8E9364",
"]  c #859D67",
"[  c #84906F",
"{  c #8C9D6B",
"}  c #939A65",
"|  c #9C9A63",
" . c #919E68",
".. c #95966A",
"X. c #819575",
"o. c #859A7B",
"O. c #999F79",
"+. c #A09B67",
"@. c #A29E6A",
"#. c #86A069",
"$. c #8BA16A",
"%. c #9CA06A",
"&. c #88A075",
"*. c #8EA37D",
"=. c #92A372",
"-. c #96AC7A",
";. c #9CAB7A",
":. c #9FB37B",
">. c #A6A66C",
",. c #A9A46C",
"<. c #AFA868",
"1. c #B2A66C",
"2. c #B6AA6A",
"3. c #BCB26C",
"4. c #AFAE75",
"5. c #B8AA73",
"6. c #ABB37F",
"7. c #B0B074",
"8. c #BCB473",
"9. c #B7B47A",
"0. c #BCBD79",
"q. c #C7A549",
"w. c #DEB64C",
"e. c #CFB351",
"r. c #DABB58",
"t. c #EDAC42",
"y. c #E0AC4E",
"u. c #ECB544",
"i. c #E7BC44",
"p. c #EEB946",
"a. c #E4B24C",
"s. c #EBB34C",
"d. c #E6BB4D",
"f. c #EDBB4B",
"g. c #E4B445",
"h. c #F4B641",
"j. c #F0BE4D",
"k. c #E7B156",
"l. c #EAB650",
"z. c #E6BC55",
"x. c #E4BD5C",
"c. c #F3B951",
"v. c #C5BA6C",
"b. c #D2BB68",
"n. c #C2B974",
"m. c #CCBB7C",
"M. c #A5C37E",
"N. c #EBC245",
"B. c #EAC14B",
"V. c #F4C441",
"C. c #C5C677",
"Z. c #C9C27B",
"A. c #D7C47D",
"S. c #97AF8E",
"D. c #94A187",
"F. c #98AB90",
"G. c #A6AD84",
"H. c #A5B287",
"J. c #A5BB82",
"K. c #A8BB8B",
"L. c #B8BD8F",
"P. c #B7B881",
"I. c #A9B997",
"U. c #A6C180",
"Y. c #AAC584",
"T. c #B1C78A",
"R. c #BDC38C",
"E. c #B3C88C",
"W. c #B7CD94",
"Q. c #B9C39E",
"!. c #B8CA9A",
"~. c #B9C7A5",
"^. c #BBCBAB",
"/. c #BCCAB9",
"(. c #C7C585",
"). c #C9C080",
"_. c #CBC98C",
"`. c #CBC887",
"'. c #D4C188",
"]. c #C6CB98",
"[. c #D8CE9F",
"{. c #D5C991",
"}. c #D4CEA4",
"|. c #C7D2A9",
" X c #C9D4A9",
".X c #D4D7A8",
"XX c #D9D6A3",
"oX c #CED8B9",
"OX c #D7DBB8",
"+X c #D5DFC9",
"@X c #DBE1C2",
"#X c #DDE8CF",
"$X c #DBE2D4",
"%X c #E1E4CB",
"&X c #E0E9CF",
"*X c #E2EBD7",
"=X c None",
/* pixels */
"=X=X=X=X=X=X=X=X=X=X=X=X=X=X=X=X=X=X=X=X=X=X=X=X=X=X=X=X=X=X=X=X=X=X=X=X=X=X=X=X=X=X=X=X=X=X=X=X=X=X",
"=X=X=X=X=X=X=X=X=X=X=X=X=X=X=X=X=X=X=X=X=X=X=X=X=X=X=X=X=X=X=X=X=X=X=X=X=X=X=X=X=X=X=X=X=X=X=X=X=X=X",
"=X=X=X=X=X=X=X=X=X=X=X=X=X=X=X=X=X=X=X=X=X=X=X=X=X=X=X=X=X=X=X=X=X=X=X=X=X=X=X=X=X=X=X=X=X=X=X=X=X=X",
"=X=X=X=X=X=X=X=X=X=X=X=X=X=X=X=X=X=X=X=X=X=X=X=X=X=X=X=X=X=X=X=X=X=X=X=X=X=X=X=X=X=X=X=X=X=X=X=X=X=X",
"=X=X=X=X=X=X=X=X=X=X=X=X=X=X=X=X=X=X=X=X=X=X=X=X=X=X=X=X=X=X=X=X=X=X=X=X=X=X=X=X=X=X=X=X=X=X=X=X=X=X",
"=X=X=X=X=X=X=X=X=X=X=X=X=X=X=X=X=X=X=X=X=X=X=X=X=X=X=X=X=X=X=X=X=X=X=X=X=X=X=X=X=X=X=X=X=X=X=X=X=X=X",
"=X=X=X=X=X=X=X=X=X=X=X=X=X=X=X=X=X=X=X=X=X=X=X=X=X=X=X=X=X=X=Xv.0.=X=X=X=X=X=X=X=X=X=X=X=X=X=X=X=X=X",
"=X=X=X=X=X=X=X=X=X=X=X=X=X=X=X=X=X=X=X=X=X=X=X=X=X=X=X=X=X=X0.0.8.9.=X=X=X=X=X=X=X=X=X=X=X=X=X=X=X=X",
"=X=X=X=X=X=X=X=X=X=X=X=X=X=X=X=X=X=X=X=X=X=X=X=X=X=X=X=XZ.`.R.6.>.6.P.=X=X=X=X=X=X=X=X=X=X=X=X=X=X=X",
"=X=X=X=X=X=X=X=X=X=X=X=X=X=X=X=X=X=X=X=X=X=X=X=X=X=X=X)._.].Q.G.| ,.=X=X=X=X=X=X=X=X=X=X=X=X=X=X=X=X",
"=X=X=X=X=X=X=X=X=X=X=X=X=X=X=X=X=X=X=X=X=X=X=X=X=XC._.}.oX+XI.O.+.1.=X=X=X=X=X=X=X=X=X=X=X=X=X=X=X=X",
"=X=X=X=X=X=X=X=X=X=X=X=X=X=X=X=X=X=X=X=X=X=X=X=XA.`..X%X$X/.D...,.=X=X=X=X=X=X=X=X=X=X=X=X=X=X=X=X=X",
"=X=X=X=X=X=X=X=X=X=X=X=X=X=X=X=X=X=X=X=X=X=X'.{.XX@X#X@X^.F.[ ..1.=X=X=X=X=X=X=X=X=X=X=X=X=X=X=X=X=X",
"=X=X=X=X=X=X=X=X=X=X=X=X=X=X=X=X=X=X=X=Xm.'.[.OX#X*X+X^.F.# _ | 3.=X=X=X=X=X=X=X=X=X=X=X=X=X=X=X=X=X",
"=X=X=X=X=X=X=X=X=X=X=X=X=X=X=X=X=X=X=XZ.(.[.@X&X#XoX~.I.o.O ' <.=X=X=X=X=X=X=X=X=X=X=X=X=X=X=X=X=X=X",
"=X=X=X=X=X=X=X=X=X=X=X=X=X=X=X=X=X9.P.(.]. XOXoX|.!.K.D.O + @.8.=X=X=X=X=X=X=X=X=X=X=X=X=X=X=X=X=X=X",
"=X=X=X=X=X=X=X=X=X=X=X=X=X=X=X=X3.9.L.Q.~.W.W.T.T.Y.-.# X _ ,.=X=X=X=X=X=X=X=X=X=X=X=X=X=X=X=X=X=X=X",
"=X=X=X=X=X=X=X=X=X=X=X=X=X=X=X5.,.G.~.~.T.J.U.M.M.U.&.O X ' 5.=X=X=X=X=X=X=X=X=X=X=X=X=X=X=X=X=X=X=X",
"=X=X=X=X=X=X=X=X=X=X=X=X=X=X1.| { -.H.G.S.>.:.6.J.-.# X o %.=X=X=X=X=X=X=X=X=X=X=X=X=X=X=X=X=X=X=X=X",
"=X=X=X=X=X=X=X=X=X=X=X=X=Xv.| . @ { $.{ $.$.=.;.;.o.O X } 7.=X=X=X=X=X=X=X=X=X=X=X=X=X=X=X=X=X=X=X=X",
"=X=X=X=X=X=X=X=X=X=X=X=X=X3.} . ` } } $.} #.] ] #.X.X + >.n.=X=X=X=X=X=X=X=X=X=X=X=X=X=X=X=X=X=X=X=X",
"=X=X=X=X=X=X=X=X=X=X=X=X=Xv.) ^ ^ ( ( ( / ~ ! ! ! `   o <.b.=X=X=X=X=X=X=X=X=X=X=X=X=X=X=X=X=X=X=X=X",
"=X=X=X=X=X=X=X=X=X=X=X=X=Xv.e.C N N u u N b % $ / / Q Q q.a.=X=X=X=X=X=X=X=X=X=X=X=X=X=X=X=X=X=X=X=X",
"=X=X=X=X=X=X=X=X=X=X=X=X=X=Xr.g.Z h f 2 e q 0 0 u B N v g Z u.z.=X=X=X=X=X=X=X=X=X=X=X=X=X=X=X=X=X=X",
"=X=X=X=X=X=X=X=X=X=X=X=X=X=X=Xz.E z j , , , , , , d a a , a A Y l.=X=X=X=X=X=X=X=X=X=X=X=X=X=X=X=X=X",
"=X=X=X=X=X=X=X=X=X=X=X=X=X=X=X=Xd.Y G e > > > > 3 p i , , , 2 k I s.=X=X=X=X=X=X=X=X=X=X=X=X=X=X=X=X",
"=X=X=X=X=X=X=X=X=X=X=X=X=X=X=X=X=Xd.h.D t , < 3 3 p i 1 > > 1 2 l T f.=X=X=X=X=X=X=X=X=X=X=X=X=X=X=X",
"=X=X=X=X=X=X=X=X=X=X=X=X=X=X=X=X=X=X=Xh.G , < < 2 p a 2 e 1 > 1 e x R w.=X=X=X=X=X=X=X=X=X=X=X=X=X=X",
"=X=X=X=X=X=X=X=X=X=X=X=X=X=X=X=X=X=X=Xc.I 3 < < , s 2 e 1 > 4 4 1 s S g.=X=X=X=X=X=X=X=X=X=X=X=X=X=X",
"=X=X=X=X=X=X=X=X=X=X=X=X=X=X=X=X=X=X=Xt.D 1 4 4 > s 3 , > > 4 1 3 j T a.=X=X=X=X=X=X=X=X=X=X=X=X=X=X",
"=X=X=X=X=X=X=X=X=X=X=X=X=X=X=X=X=X=Xy.L r 4 : 4 3 s 3 , 4 ; 1 e j J c.=X=X=X=X=X=X=X=X=X=X=X=X=X=X=X",
"=X=X=X=X=X=X=X=X=X=X=X=X=X=X=X=X=X=Xs.n w ; : 4 3 i 3 , 1 1 e l J p.x.=X=X=X=X=X=X=X=X=X=X=X=X=X=X=X",
"=X=X=X=X=X=X=X=X=X=X=X=X=X=X=X=X=X=Xt.m 7 ; ; 1 e i i s 3 l G R p.=X=X=X=X=X=X=X=X=X=X=X=X=X=X=X=X=X",
"=X=X=X=X=X=X=X=X=X=X=X=X=X=X=X=X=Xy.D w ; = ; 1 e 3 a d H R B.x.=X=X=X=X=X=X=X=X=X=X=X=X=X=X=X=X=X=X",
"=X=X=X=X=X=X=X=X=X=X=X=X=X=X=X=X=Xt.m 7 = = < 2 3 e x K h.B.=X=X=X=X=X=X=X=X=X=X=X=X=X=X=X=X=X=X=X=X",
"=X=X=X=X=X=X=X=X=X=X=X=X=X=X=X=Xk.P m 6 = - < e j K R p.=X=X=X=X=X=X=X=X=X=X=X=X=X=X=X=X=X=X=X=X=X=X",
"=X=X=X=X=X=X=X=X=X=X=X=X=X=X=X=Xl.P 9 6 5 w t z H V.B.=X=X=X=X=X=X=X=X=X=X=X=X=X=X=X=X=X=X=X=X=X=X=X",
"=X=X=X=X=X=X=X=X=X=X=X=X=X=X=X=XU m 7 = w k F W V.=X=X=X=X=X=X=X=X=X=X=X=X=X=X=X=X=X=X=X=X=X=X=X=X=X",
"=X=X=X=X=X=X=X=X=X=X=X=X=X=X=X=XF r 8 r A R i.=X=X=X=X=X=X=X=X=X=X=X=X=X=X=X=X=X=X=X=X=X=X=X=X=X=X=X",
"=X=X=X=X=X=X=X=X=X=X=X=X=X=X=Xf.G t A I h.d.=X=X=X=X=X=X=X=X=X=X=X=X=X=X=X=X=X=X=X=X=X=X=X=X=X=X=X=X",
"=X=X=X=X=X=X=X=X=X=X=X=X=X=X=XB.R K E p.=X=X=X=X=X=X=X=X=X=X=X=X=X=X=X=X=X=X=X=X=X=X=X=X=X=X=X=X=X=X",
"=X=X=X=X=X=X=X=X=X=X=X=X=X=X=X=XN.B.z.=X=X=X=X=X=X=X=X=X=X=X=X=X=X=X=X=X=X=X=X=X=X=X=X=X=X=X=X=X=X=X",
"=X=X=X=X=X=X=X=X=X=X=X=X=X=X=X=X=X=X=X=X=X=X=X=X=X=X=X=X=X=X=X=X=X=X=X=X=X=X=X=X=X=X=X=X=X=X=X=X=X=X",
"=X=X=X=X=X=X=X=X=X=X=X=X=X=X=X=X=X=X=X=X=X=X=X=X=X=X=X=X=X=X=X=X=X=X=X=X=X=X=X=X=X=X=X=X=X=X=X=X=X=X",
"=X=X=X=X=X=X=X=X=X=X=X=X=X=X=X=X=X=X=X=X=X=X=X=X=X=X=X=X=X=X=X=X=X=X=X=X=X=X=X=X=X=X=X=X=X=X=X=X=X=X",
"=X=X=X=X=X=X=X=X=X=X=X=X=X=X=X=X=X=X=X=X=X=X=X=X=X=X=X=X=X=X=X=X=X=X=X=X=X=X=X=X=X=X=X=X=X=X=X=X=X=X",
"=X=X=X=X=X=X=X=X=X=X=X=X=X=X=X=X=X=X=X=X=X=X=X=X=X=X=X=X=X=X=X=X=X=X=X=X=X=X=X=X=X=X=X=X=X=X=X=X=X=X",
"=X=X=X=X=X=X=X=X=X=X=X=X=X=X=X=X=X=X=X=X=X=X=X=X=X=X=X=X=X=X=X=X=X=X=X=X=X=X=X=X=X=X=X=X=X=X=X=X=X=X",
"=X=X=X=X=X=X=X=X=X=X=X=X=X=X=X=X=X=X=X=X=X=X=X=X=X=X=X=X=X=X=X=X=X=X=X=X=X=X=X=X=X=X=X=X=X=X=X=X=X=X",
"=X=X=X=X=X=X=X=X=X=X=X=X=X=X=X=X=X=X=X=X=X=X=X=X=X=X=X=X=X=X=X=X=X=X=X=X=X=X=X=X=X=X=X=X=X=X=X=X=X=X"
};
