/* XPM */
static char *result[] = {
/* columns rows colors chars-per-pixel */
"50 50 183 2 ",
"   c #F78F07",
".  c #FB860D",
"X  c #F68B0B",
"o  c #FA8C0B",
"O  c #F79706",
"+  c #F99506",
"@  c #F79A03",
"#  c #FA9B06",
"$  c #F5930B",
"%  c #FA930A",
"&  c #F79C0B",
"*  c #FA9C0B",
"=  c #F68410",
"-  c #FA8313",
";  c #F58C15",
":  c #F59410",
">  c #F99310",
",  c #F69D10",
"<  c #F4931C",
"1  c #F79B18",
"2  c #FA9D11",
"3  c #FAA306",
"4  c #F7A804",
"5  c #FBAD07",
"6  c #F6A40C",
"7  c #FBA40C",
"8  c #FAAB0A",
"9  c #F7B108",
"0  c #FDB40C",
"q  c #FAB90D",
"w  c #F5A113",
"e  c #FAA412",
"r  c #F7A915",
"t  c #FAAA14",
"y  c #F6A41B",
"u  c #F9A718",
"i  c #F5AA1D",
"p  c #F9AC1D",
"a  c #FAB213",
"s  c #FBBB15",
"d  c #F4B31B",
"f  c #F9B51D",
"g  c #F4BD1F",
"h  c #F9BA1A",
"j  c #F49B27",
"k  c #D4B036",
"l  c #F4A424",
"z  c #F4AD24",
"x  c #F8AD22",
"c  c #F4AD2C",
"v  c #F1A22C",
"b  c #EFB924",
"n  c #F9B021",
"m  c #F8BF20",
"M  c #F4B42E",
"N  c #F9B42E",
"B  c #F6B423",
"V  c #EFA837",
"C  c #F2A735",
"Z  c #F6AE34",
"A  c #EFBC31",
"S  c #ECB63C",
"D  c #EDBA3A",
"F  c #F3B433",
"G  c #F5BB33",
"H  c #F9BC34",
"J  c #F5B23C",
"K  c #F1B93B",
"L  c #F8BA3B",
"P  c #FDC212",
"I  c #FCC51A",
"U  c #FDCB1A",
"Y  c #FED01B",
"T  c #F7C92D",
"R  c #FDCF29",
"E  c #FCCE22",
"W  c #FED423",
"Q  c #FBD92B",
"!  c #EEC339",
"~  c #F8C03F",
"^  c #F7C633",
"/  c #F6DF3A",
"(  c #FBD93A",
")  c #FAD931",
"_  c #A69F50",
"`  c #ACA557",
"'  c #BEB05F",
"]  c #8C9668",
"[  c #999A6D",
"{  c #929B79",
"}  c #98A37A",
"|  c #A8A263",
" . c #BBAF6C",
".. c #AEA871",
"X. c #A1A374",
"o. c #B3AF77",
"O. c #ACB476",
"+. c #BFBC77",
"@. c #B3B176",
"#. c #D8B847",
"$. c #D9B958",
"%. c #D8BD5A",
"&. c #EBAD44",
"*. c #F2AE41",
"=. c #EEB746",
"-. c #ECBC44",
";. c #E6BB4B",
":. c #EBBC4C",
">. c #F3B642",
",. c #F8B746",
"<. c #F2BD44",
"1. c #F8BE4D",
"2. c #E4B452",
"3. c #EBB556",
"4. c #E3BC53",
"5. c #EBBE54",
"6. c #E2BE5B",
"7. c #F1B553",
"8. c #C8BA6D",
"9. c #D8BD66",
"0. c #C8BB7E",
"q. c #E3B760",
"w. c #EBBE61",
"e. c #BBC17B",
"r. c #EFC14B",
"t. c #F4C44A",
"y. c #F5CF48",
"u. c #F8C84C",
"i. c #F2CA45",
"p. c #FED742",
"a. c #FAD749",
"s. c #F8D848",
"d. c #ECC153",
"f. c #E2C757",
"g. c #EFD154",
"h. c #EAD05A",
"j. c #F5D653",
"k. c #F4D95C",
"l. c #F7E05C",
"z. c #F8E453",
"x. c #CCC579",
"c. c #D8C570",
"v. c #D0C378",
"b. c #D4C574",
"n. c #E8C862",
"m. c #F6D968",
"M. c #FADD66",
"N. c #EDE27D",
"B. c #FBE77C",
"V. c #97A68C",
"C. c #A3B187",
"Z. c #AEB99D",
"A. c #B5BE90",
"S. c #BAC482",
"D. c #BACDB5",
"F. c #CEC381",
"G. c #CBC78B",
"H. c #D4C284",
"J. c #D4C088",
"K. c #D7CC8B",
"L. c #CBC795",
"P. c #D7CE9E",
"I. c #D3D29C",
"U. c #E5D581",
"Y. c #FBE986",
"T. c #CFD1A7",
"R. c #D9D7AA",
"E. c #DDD5A2",
"W. c #CDD4B5",
"Q. c #D7DCBE",
"!. c #DBD7B3",
"~. c #E8DEB0",
"^. c #F7EAA1",
"/. c #F5F0A0",
"(. c #FBF3B8",
"). c #D2DFC5",
"_. c #DFE4C5",
"`. c #E3E0C6",
"'. c #E5E7C8",
"]. c #F0EBCF",
"[. c #F6F3C6",
"{. c #E7EDD0",
"}. c None",
/* pixels */
"}.}.}.}.}.}.}.}.}.}.}.}.}.}.}.}.}.}.}.}.}.}.}.}.}.}.}.}.}.}.}.}.}.}.}.}.}.}.}.}.}.}.}.}.}.}.}.}.}.}.",
"}.}.}.}.}.}.}.}.}.}.}.}.}.}.}.}.}.}.}.}.}.}.}.}.}.}.}.}.}.}.}.}.}.}.}.}.}.}.}.}.}.}.}.}.}.}.}.}.}.}.",
"}.}.}.}.}.}.}.}.}.}.}.}.}.}.}.}.}.}.}.}.}.}.}.}.}.}.}.}.}.}.}.}.}.}.}.}.}.}.}.}.}.}.}.}.}.}.}.}.}.}.",
"}.}.}.}.}.}.}.}.}.}.}.}.}.}.}.}.}.}.}.}.}.}.}.}.}.}.}.}.}.}.}.}.}.}.}.}.}.}.}.}.}.}.}.}.}.}.}.}.}.}.",
"}.}.}.}.}.}.}.}.}.}.}.}.}.}.}.}.}.}.}.}.}.}.}.}.}.}.}.}.}.}.}.}.}.}.}.}.}.}.}.}.}.}.}.}.}.}.}.}.}.}.",
"}.}.}.}.}.}.}.}.}.}.}.}.}.}.}.}.}.}.}.}.}.}.}.}.}.}.}.}.}.}.}.}.}.}.}.}.}.}.}.}.}.}.}.}.}.}.}.}.}.}.",
"}.}.}.}.}.}.}.}.}.}.}.}.}.}.}.}.}.}.}.}.}.}.}.}.}.}.}.}.}.}.}.}.}.}.}.}.}.}.}.}.}.}.}.}.}.}.}.}.}.}.",
"}.}.}.}.}.}.}.}.}.}.}.}.}.}.}.}.}.}.}.}.}.}.}.}.}.}.}.}.}.}.}.e.x.b.8.}.}.}.}.}.}.}.}.}.}.}.}.}.}.}.",
"}.}.}.}.}.}.}.}.}.}.}.}.}.}.}.}.}.}.}.}.}.}.}.}.}.}.}.}.}.}.F.S.O.O.+.}.}.}.}.}.}.}.}.}.}.}.}.}.}.}.",
"}.}.}.}.}.}.}.}.}.}.}.}.}.}.}.}.}.}.}.}.}.}.}.}.}.}.}.}.J.J.L.A.} } o.}.}.}.}.}.}.}.}.}.}.}.}.}.}.}.",
"}.}.}.}.}.}.}.}.}.}.}.}.}.}.}.}.}.}.}.}.}.}.}.}.}.}.}.x.L.T.W.Z.{ X.o.}.}.}.}.}.}.}.}.}.}.}.}.}.}.}.",
"}.}.}.}.}.}.}.}.}.}.}.}.}.}.}.}.}.}.}.}.}.}.}.}.}.v.H.P.Q.).D.V.[ ..}.}.}.}.}.}.}.}.}.}.}.}.}.}.}.}.",
"}.}.}.}.}.}.}.}.}.}.}.}.}.}.}.}.}.}.}.}.}.}.}.x.G.I.!.`.`.W.C.] |  .}.}.}.}.}.}.}.}.}.}.}.}.}.}.}.}.",
"}.}.}.}.}.}.}.}.}.}.}.}.}.}.}.}.}.}.}.}.}.}.c.K.R._.{.'.E.0.` _ ' }.}.}.}.}.}.}.}.}.}.}.}.}.}.}.}.}.",
"}.}.}.}.}.}.}.}.}.}.}.}.}.}.}.}.}.}.}.}.f.h.U.~.].[./.N.n.#.k #.%.}.}.}.}.}.}.}.}.}.}.}.}.}.}.}.}.}.",
"}.}.}.}.}.}.}.}.}.}.}.}.}.}.}.}.}.}.}.f.j.k./.(.(.B.z./ ^ b d A }.}.}.}.}.}.}.}.}.}.}.}.}.}.}.}.}.}.",
"}.}.}.}.}.}.}.}.}.}.}.}.}.}.}.}.}.}.d.y.s.M.Y.B.z./ ) R s 9 a ^ }.}.}.}.}.}.}.}.}.}.}.}.}.}.}.}.}.}.",
"}.}.}.}.}.}.}.}.}.}.}.}.}.}.}.}.4.:.t.j.l.a.p.( ) Q W I 8 7 B -.}.}.}.}.}.}.}.}.}.}.}.}.}.}.}.}.}.}.",
"}.}.}.}.}.}.}.}.}.}.}.}.}.}.}.-.A G u.M.g.T E W W W U q 4 r D }.}.}.}.}.}.}.}.}.}.}.}.}.}.}.}.}.}.}.",
"}.}.}.}.}.}.}.}.}.}.}.}.}.}.;.M f f ^ i.! g I U Y U P 9 7 i 5.}.}.}.}.}.}.}.}.}.}.}.}.}.}.}.}.}.}.}.",
"}.}.}.}.}.}.}.}.}.}.}.}.}.}.>.x t a h m g s s P P P q 8 7 M f.}.}.}.}.}.}.}.}.}.}.}.}.}.}.}.}.}.}.}.",
"}.}.}.}.}.}.}.}.}.}.}.}.}.}.K u 7 t a a a 0 0 0 0 0 0 4 t H }.}.}.}.}.}.}.}.}.}.}.}.}.}.}.}.}.}.}.}.",
"}.}.}.}.}.}.}.}.}.}.}.}.}.}.=.z 6 6 7 t 7 8 7 3 4 5 8 7 u G 5.}.}.}.}.}.}.}.}.}.}.}.}.}.}.}.}.}.}.}.",
"}.}.}.}.}.}.}.}.}.}.}.}.}.}.$.D i w 6 * * * # 3 # 5 8 3 e i D 5.}.}.}.}.}.}.}.}.}.}.}.}.}.}.}.}.}.}.",
"}.}.}.}.}.}.}.}.}.}.}.}.}.}.}.4.K l 2 * * * # # @ 3 8 3 * * p F 4.}.}.}.}.}.}.}.}.}.}.}.}.}.}.}.}.}.",
"}.}.}.}.}.}.}.}.}.}.}.}.}.}.}.}.}.>.x 6 # % % # @ 3 7 3 # % * w M =.}.}.}.}.}.}.}.}.}.}.}.}.}.}.}.}.",
"}.}.}.}.}.}.}.}.}.}.}.}.}.}.}.}.}.}.>.Z w * # + @ 3 7 # # * % & e c =.}.}.}.}.}.}.}.}.}.}.}.}.}.}.}.",
"}.}.}.}.}.}.}.}.}.}.}.}.}.}.}.}.}.}.}.7.Z , $ + @ # 7 # + $ O $ % 2 z =.}.}.}.}.}.}.}.}.}.}.}.}.}.}.",
"}.}.}.}.}.}.}.}.}.}.}.}.}.}.}.}.}.}.}.}.,.1 % + + * 7 * + + $ > > % u S }.}.}.}.}.}.}.}.}.}.}.}.}.}.",
"}.}.}.}.}.}.}.}.}.}.}.}.}.}.}.}.}.}.}.}.J 1 % % + * 7 * + + o > % * x S }.}.}.}.}.}.}.}.}.}.}.}.}.}.",
"}.}.}.}.}.}.}.}.}.}.}.}.}.}.}.}.}.}.}.3.l > o o + * 7 * + o o > % y M ;.}.}.}.}.}.}.}.}.}.}.}.}.}.}.",
"}.}.}.}.}.}.}.}.}.}.}.}.}.}.}.}.}.}.}.7.$ $ o o % * 6 & * % % 2 u F :.}.}.}.}.}.}.}.}.}.}.}.}.}.}.}.",
"}.}.}.}.}.}.}.}.}.}.}.}.}.}.}.}.}.}.q.*.o o o   % & & 6 * # e n D :.}.}.}.}.}.}.}.}.}.}.}.}.}.}.}.}.",
"}.}.}.}.}.}.}.}.}.}.}.}.}.}.}.}.}.}.2.v o o o + * * * # 3 8 N :.%.}.}.}.}.}.}.}.}.}.}.}.}.}.}.}.}.}.",
"}.}.}.}.}.}.}.}.}.}.}.}.}.}.}.}.}.}.&.< . . o o % # # 7 f H :.}.}.}.}.}.}.}.}.}.}.}.}.}.}.}.}.}.}.}.",
"}.}.}.}.}.}.}.}.}.}.}.}.}.}.}.}.}.2.C ; - . o + # 7 t M -.r.}.}.}.}.}.}.}.}.}.}.}.}.}.}.}.}.}.}.}.}.",
"}.}.}.}.}.}.}.}.}.}.}.}.}.}.}.}.}.&.j - - X $ * 7 n K :.}.}.}.}.}.}.}.}.}.}.}.}.}.}.}.}.}.}.}.}.}.}.",
"}.}.}.}.}.}.}.}.}.}.}.}.}.}.}.}.}.V j - = $ , p H <.5.}.}.}.}.}.}.}.}.}.}.}.}.}.}.}.}.}.}.}.}.}.}.}.",
"}.}.}.}.}.}.}.}.}.}.}.}.}.}.}.}.2.V ; = X 1 N <.5.}.}.}.}.}.}.}.}.}.}.}.}.}.}.}.}.}.}.}.}.}.}.}.}.}.",
"}.}.}.}.}.}.}.}.}.}.}.}.}.}.}.}.=.c : : p ,.w.}.}.}.}.}.}.}.}.}.}.}.}.}.}.}.}.}.}.}.}.}.}.}.}.}.}.}.",
"}.}.}.}.}.}.}.}.}.}.}.}.}.}.}.}.,.p u N t.6.}.}.}.}.}.}.}.}.}.}.}.}.}.}.}.}.}.}.}.}.}.}.}.}.}.}.}.}.",
"}.}.}.}.}.}.}.}.}.}.}.}.}.}.}.}.t.H ~ n.}.}.}.}.}.}.}.}.}.}.}.}.}.}.}.}.}.}.}.}.}.}.}.}.}.}.}.}.}.}.",
"}.}.}.}.}.}.}.}.}.}.}.}.}.}.}.}.}.6.$.}.}.}.}.}.}.}.}.}.}.}.}.}.}.}.}.}.}.}.}.}.}.}.}.}.}.}.}.}.}.}.",
"}.}.}.}.}.}.}.}.}.}.}.}.}.}.}.}.}.9.}.}.}.}.}.}.}.}.}.}.}.}.}.}.}.}.}.}.}.}.}.}.}.}.}.}.}.}.}.}.}.}.",
"}.}.}.}.}.}.}.}.}.}.}.}.}.}.}.}.}.}.}.}.}.}.}.}.}.}.}.}.}.}.}.}.}.}.}.}.}.}.}.}.}.}.}.}.}.}.}.}.}.}.",
"}.}.}.}.}.}.}.}.}.}.}.}.}.}.}.}.}.}.}.}.}.}.}.}.}.}.}.}.}.}.}.}.}.}.}.}.}.}.}.}.}.}.}.}.}.}.}.}.}.}.",
"}.}.}.}.}.}.}.}.}.}.}.}.}.}.}.}.}.}.}.}.}.}.}.}.}.}.}.}.}.}.}.}.}.}.}.}.}.}.}.}.}.}.}.}.}.}.}.}.}.}.",
"}.}.}.}.}.}.}.}.}.}.}.}.}.}.}.}.}.}.}.}.}.}.}.}.}.}.}.}.}.}.}.}.}.}.}.}.}.}.}.}.}.}.}.}.}.}.}.}.}.}.",
"}.}.}.}.}.}.}.}.}.}.}.}.}.}.}.}.}.}.}.}.}.}.}.}.}.}.}.}.}.}.}.}.}.}.}.}.}.}.}.}.}.}.}.}.}.}.}.}.}.}.",
"}.}.}.}.}.}.}.}.}.}.}.}.}.}.}.}.}.}.}.}.}.}.}.}.}.}.}.}.}.}.}.}.}.}.}.}.}.}.}.}.}.}.}.}.}.}.}.}.}.}."
};
