/* XPM */
static char *result[] = {
/* columns rows colors chars-per-pixel */
"50 50 187 2 ",
"   c #FB8607",
".  c #F88A06",
"X  c #FA850C",
"o  c #F58A0B",
"O  c #FC8D0C",
"+  c #EF970F",
"@  c #F59506",
"#  c #FB9506",
"$  c #F59B05",
"%  c #FA9B06",
"&  c #F59309",
"*  c #FA930A",
"=  c #F79C0D",
"-  c #FB9B0B",
";  c #F98411",
":  c #F58B14",
">  c #FD8914",
",  c #FA9414",
"<  c #F59C11",
"1  c #FA9D13",
"2  c #F1961E",
"3  c #F99D1B",
"4  c #F5A102",
"5  c #FBA205",
"6  c #FAAB06",
"7  c #F7A20B",
"8  c #FBA40B",
"9  c #F7A808",
"0  c #FBAA0A",
"q  c #F7B201",
"w  c #F9B502",
"e  c #FCB50D",
"r  c #FDBC0E",
"t  c #F4A314",
"y  c #FBA313",
"u  c #F4AC13",
"i  c #FBAB14",
"p  c #F3A41D",
"a  c #F9A41C",
"s  c #F7AA18",
"d  c #F9AD1D",
"f  c #FCB413",
"g  c #FBBB14",
"h  c #FBB41D",
"j  c #FABC1C",
"k  c #F39C24",
"l  c #EFA42F",
"z  c #F3A720",
"x  c #F5AB23",
"c  c #FAAE24",
"v  c #F0A02F",
"b  c #F8AC2A",
"n  c #F5B626",
"m  c #FAB323",
"M  c #FBBF22",
"N  c #F5B52D",
"B  c #FBB52C",
"V  c #F3BD29",
"C  c #FABE2C",
"Z  c #EFB732",
"A  c #EFB43C",
"S  c #EFBB3D",
"D  c #F5B334",
"F  c #F4BD31",
"G  c #F8BD35",
"H  c #F4B53A",
"J  c #F2BB3F",
"K  c #F8BF3B",
"L  c #F7C10F",
"P  c #FDCE0F",
"I  c #FCC214",
"U  c #F9CB17",
"Y  c #FDCB1C",
"T  c #FCDA1B",
"R  c #F5C225",
"E  c #FEC023",
"W  c #F9C926",
"Q  c #F5C229",
"!  c #F8C72B",
"~  c #FCCC2C",
"^  c #FED326",
"/  c #FBD927",
"(  c #FED528",
")  c #FDDB29",
"_  c #EFC638",
"`  c #FBCA33",
"'  c #F2C838",
"]  c #FED630",
"[  c #FBDD36",
"{  c #F9D63A",
"}  c #D8B254",
"|  c #DCBA56",
" . c #DFB95C",
".. c #ECAD40",
"X. c #F2AA43",
"o. c #ECB243",
"O. c #EEBD45",
"+. c #EDBC4C",
"@. c #F4BD43",
"#. c #F7BA4C",
"$. c #F8BE4B",
"%. c #E1BD55",
"&. c #E9BB51",
"*. c #EFB55C",
"=. c #E2BC5D",
"-. c #EDB95B",
";. c #F1BE52",
":. c #F0BD5C",
">. c #C6B669",
",. c #D6BB67",
"<. c #DBBB63",
"1. c #D2BE68",
"2. c #E7BF65",
"3. c #E8BF61",
"4. c #ECBF6C",
"5. c #DECA5A",
"6. c #ECC64D",
"7. c #F4C444",
"8. c #F9CE47",
"9. c #F3C54D",
"0. c #F7C94D",
"q. c #FAD041",
"w. c #F5DA43",
"e. c #FBDF42",
"r. c #F0D74B",
"t. c #FAD049",
"y. c #F8DB49",
"u. c #EBC456",
"i. c #EECA54",
"p. c #E5C55C",
"a. c #E9C35D",
"s. c #E2CD5E",
"d. c #F1C352",
"f. c #F0CB50",
"g. c #F8C955",
"h. c #F8C35A",
"j. c #F3D556",
"k. c #F4DF53",
"l. c #FCDE56",
"z. c #FAD35B",
"x. c #F2DB5E",
"c. c #FEE345",
"v. c #F3E552",
"b. c #FBE154",
"n. c #D4C566",
"m. c #DDCE66",
"M. c #DFC86B",
"N. c #DEC770",
"B. c #DDD07F",
"V. c #E5C662",
"C. c #EDC165",
"Z. c #EDCC65",
"A. c #E1C56D",
"S. c #E0CD6E",
"D. c #E9DB67",
"F. c #E9D66C",
"G. c #FBD660",
"H. c #F7DF60",
"J. c #F3DC6A",
"K. c #E9C176",
"L. c #FBDA75",
"P. c #F4E565",
"I. c #FAE264",
"U. c #FAE46D",
"Y. c #FCE473",
"T. c #F1EA76",
"R. c #FDE872",
"E. c #F4E57C",
"W. c #DAC983",
"Q. c #FAE585",
"!. c #FBEB85",
"~. c #FDE98B",
"^. c #F6F085",
"/. c #F6ED95",
"(. c #FCEB92",
"). c #F7ED9E",
"_. c #FCF49D",
"`. c #FDEAA7",
"'. c #FEEEAE",
"]. c #F7F2A2",
"[. c #FEF1AA",
"{. c #FAF8B2",
"}. c #FBF7BB",
"|. c #FBFABF",
" X c #FAF4C3",
".X c #FEF9C3",
"XX c None",
/* pixels */
"XXXXXXXXXXXXXXXXXXXXXXXXXXXXXXXXXXXXXXXXXXXXXXXXXXXXXXXXXXXXXXXXXXXXXXXXXXXXXXXXXXXXXXXXXXXXXXXXXXXX",
"XXXXXXXXXXXXXXXXXXXXXXXXXXXXXXXXXXXXXXXXXXXXXXXXXXXXXXXXXXXXXXXXXXXXXXXXXXXXXXXXXXXXXXXXXXXXXXXXXXXX",
"XXXXXXXXXXXXXXXXXXXXXXXXXXXXXXXXXXXXXXXXXXXXXXXXXXXXXXXXXXXXXXXXXXXXXXXXXXXXXXXXXXXXXXXXXXXXXXXXXXXX",
"XXXXXXXXXXXXXXXXXXXXXXXXXXXXXXXXXXXXXXXXXXXXXXXXXXXXXXXXXXXXXXXXXXXXXXXXXXXXXXXXXXXXXXXXXXXXXXXXXXXX",
"XXXXXXXXXXXXXXXXXXXXXXXXXXXXXXXXXXXXXXXXXXXXXXXXXXXXXXXXXXXXXXXXXXXXXXXXXXXXXXXXXXXXXXXXXXXXXXXXXXXX",
"XXXXXXXXXXXXXXXXXXXXXXXXXXXXXXXXXXXXXXXXXXXXXXXXXXXXXXXXXXXXXXXXXXXXXXXXXXXXXXXXXXXXXXXXXXXXXXXXXXXX",
"XXXXXXXXXXXXXXXXXXXXXXXXXXXXXXXXXXXXXXXXXXXXXXXXXXXXXXXXXXXXXXXXn.N.XXXXXXXXXXXXXXXXXXXXXXXXXXXXXXXX",
"XXXXXXXXXXXXXXXXXXXXXXXXXXXXXXXXXXXXXXXXXXXXXXXXXXXXXXXXXXXX5.r.{ q.Z.XXXXXXXXXXXXXXXXXXXXXXXXXXXXXX",
"XXXXXXXXXXXXXXXXXXXXXXXXXXXXXXXXXXXXXXXXXXXXXXXXXXXXXXXXXXJ.{ / P I 9.XXXXXXXXXXXXXXXXXXXXXXXXXXXXXX",
"XXXXXXXXXXXXXXXXXXXXXXXXXXXXXXXXXXXXXXXXXXXXXXXXXXXXXXV.x.I.U.b.W R p.XXXXXXXXXXXXXXXXXXXXXXXXXXXXXX",
"XXXXXXXXXXXXXXXXXXXXXXXXXXXXXXXXXXXXXXXXXXXXXXXXXXXXD.P.Q.'.~.t.R ' XXXXXXXXXXXXXXXXXXXXXXXXXXXXXXXX",
"XXXXXXXXXXXXXXXXXXXXXXXXXXXXXXXXXXXXXXXXXXXXXXXXF.J.E.). X`.G.Q C f.XXXXXXXXXXXXXXXXXXXXXXXXXXXXXXXX",
"XXXXXXXXXXXXXXXXXXXXXXXXXXXXXXXXXXXXXXXXXXXXW.J.Y.(.|..X/.z.C f K A.XXXXXXXXXXXXXXXXXXXXXXXXXXXXXXXX",
"XXXXXXXXXXXXXXXXXXXXXXXXXXXXXXXXXXXXXXXXXXF.E.!.[..X{.!.k.` f h 9.XXXXXXXXXXXXXXXXXXXXXXXXXXXXXXXXXX",
"XXXXXXXXXXXXXXXXXXXXXXXXXXXXXXXXXXXXXXm.H.I.^.}. X].P.y.` f u ! u.XXXXXXXXXXXXXXXXXXXXXXXXXXXXXXXXXX",
"XXXXXXXXXXXXXXXXXXXXXXXXXXXXXXXXXXXXS.x.b.R._._.T.v.[ ( h y m 0.XXXXXXXXXXXXXXXXXXXXXXXXXXXXXXXXXXXX",
"XXXXXXXXXXXXXXXXXXXXXXXXXXXXXXXXM.i.j.J.U.b.c.c.[ ) ( M i 6 N C.XXXXXXXXXXXXXXXXXXXXXXXXXXXXXXXXXXXX",
"XXXXXXXXXXXXXXXXXXXXXXXXXXXXXXM.6._ j.Q.L.{ T ( ) ( Y f 8 6 F XXXXXXXXXXXXXXXXXXXXXXXXXXXXXXXXXXXXXX",
"XXXXXXXXXXXXXXXXXXXXXXXXXXXX%.@.V Q t.z.0.! U Y ( W r 6 5 u 7.XXXXXXXXXXXXXXXXXXXXXXXXXXXXXXXXXXXXXX",
"XXXXXXXXXXXXXXXXXXXXXXXXXXXX@.d f j E j j j j I Y U w 5 y Z XXXXXXXXXXXXXXXXXXXXXXXXXXXXXXXXXXXXXXXX",
"XXXXXXXXXXXXXXXXXXXXXXXXXXXXH i i f r g f e e f g L q 5 a 9.XXXXXXXXXXXXXXXXXXXXXXXXXXXXXXXXXXXXXXXX",
"XXXXXXXXXXXXXXXXXXXXXXXXXXXXD y - 0 0 0 0 0 0 8 0 e 6 7 d 0.XXXXXXXXXXXXXXXXXXXXXXXXXXXXXXXXXXXXXXXX",
"XXXXXXXXXXXXXXXXXXXXXXXXXXXX+.c y = = 5 5 - 8 5 4 0 6 - a D +.XXXXXXXXXXXXXXXXXXXXXXXXXXXXXXXXXXXXXX",
"XXXXXXXXXXXXXXXXXXXXXXXXXXXXXX;.x y - - % 8 - 4 4 9 8 % - < N d.XXXXXXXXXXXXXXXXXXXXXXXXXXXXXXXXXXXX",
"XXXXXXXXXXXXXXXXXXXXXXXXXXXXXXXX+.b 1 % % - - - 4 9 8 # % * a D +.3.XXXXXXXXXXXXXXXXXXXXXXXXXXXXXXXX",
"XXXXXXXXXXXXXXXXXXXXXXXXXXXXXXXXXX;.D t % % * * $ 7 y - - - @ < z H V.XXXXXXXXXXXXXXXXXXXXXXXXXXXXXX",
"XXXXXXXXXXXXXXXXXXXXXXXXXXXXXXXXXXXXa.H p - - @ $ - y % # # @ @ @ t @.2.XXXXXXXXXXXXXXXXXXXXXXXXXXXX",
"XXXXXXXXXXXXXXXXXXXXXXXXXXXXXXXXXXXXXXa.#.3 @ @ @ 7 8 % # # * , * % p +.XXXXXXXXXXXXXXXXXXXXXXXXXXXX",
"XXXXXXXXXXXXXXXXXXXXXXXXXXXXXXXXXXXXXXXXh.3 * # @ 5 8 % # * * * O # a S =.XXXXXXXXXXXXXXXXXXXXXXXXXX",
"XXXXXXXXXXXXXXXXXXXXXXXXXXXXXXXXXXXXXX=.H , > O @ 5 8 - @ O > O * % s J | XXXXXXXXXXXXXXXXXXXXXXXXXX",
"XXXXXXXXXXXXXXXXXXXXXXXXXXXXXXXXXXXXXX&.p o > O @ % 8 8 @ o O * @ 8 n +.XXXXXXXXXXXXXXXXXXXXXXXXXXXX",
"XXXXXXXXXXXXXXXXXXXXXXXXXXXXXXXXXXXXXXo.= O > . % 4 8 y = & @ - s C +.XXXXXXXXXXXXXXXXXXXXXXXXXXXXXX",
"XXXXXXXXXXXXXXXXXXXXXXXXXXXXXXXXXXXXK.v & O > O $ 7 7 - - 8 u n 7.%.XXXXXXXXXXXXXXXXXXXXXXXXXXXXXXXX",
"XXXXXXXXXXXXXXXXXXXXXXXXXXXXXXXXXXXX*.2 .   o & - = % 5 8 B J u.XXXXXXXXXXXXXXXXXXXXXXXXXXXXXXXXXXXX",
"XXXXXXXXXXXXXXXXXXXXXXXXXXXXXXXXXXK...:   O o # * 1 8 f ! d.=.XXXXXXXXXXXXXXXXXXXXXXXXXXXXXXXXXXXXXX",
"XXXXXXXXXXXXXXXXXXXXXXXXXXXXXXXXXX-.v ; X X o # - 1 B ' u.XXXXXXXXXXXXXXXXXXXXXXXXXXXXXXXXXXXXXXXXXX",
"XXXXXXXXXXXXXXXXXXXXXXXXXXXXXXXXXX..k ; ; X & 8 m G u.XXXXXXXXXXXXXXXXXXXXXXXXXXXXXXXXXXXXXXXXXXXXXX",
"XXXXXXXXXXXXXXXXXXXXXXXXXXXXXXXX} v : ; X & t B d.V.XXXXXXXXXXXXXXXXXXXXXXXXXXXXXXXXXXXXXXXXXXXXXXXX",
"XXXXXXXXXXXXXXXXXXXXXXXXXXXXXXXX-.k o X * x $.a.XXXXXXXXXXXXXXXXXXXXXXXXXXXXXXXXXXXXXXXXXXXXXXXXXXXX",
"XXXXXXXXXXXXXXXXXXXXXXXXXXXXXXXX#.3 * a B g.,.XXXXXXXXXXXXXXXXXXXXXXXXXXXXXXXXXXXXXXXXXXXXXXXXXXXXXX",
"XXXXXXXXXXXXXXXXXXXXXXXXXXXXXXW.J f m #.3.XXXXXXXXXXXXXXXXXXXXXXXXXXXXXXXXXXXXXXXXXXXXXXXXXXXXXXXXXX",
"XXXXXXXXXXXXXXXXXXXXXXXXXXXXXXXXp.7.f.<.XXXXXXXXXXXXXXXXXXXXXXXXXXXXXXXXXXXXXXXXXXXXXXXXXXXXXXXXXXXX",
"XXXXXXXXXXXXXXXXXXXXXXXXXXXXXXXX>.1.XXXXXXXXXXXXXXXXXXXXXXXXXXXXXXXXXXXXXXXXXXXXXXXXXXXXXXXXXXXXXXXX",
"XXXXXXXXXXXXXXXXXXXXXXXXXXXXXXXXXXXXXXXXXXXXXXXXXXXXXXXXXXXXXXXXXXXXXXXXXXXXXXXXXXXXXXXXXXXXXXXXXXXX",
"XXXXXXXXXXXXXXXXXXXXXXXXXXXXXXXXXXXXXXXXXXXXXXXXXXXXXXXXXXXXXXXXXXXXXXXXXXXXXXXXXXXXXXXXXXXXXXXXXXXX",
"XXXXXXXXXXXXXXXXXXXXXXXXXXXXXXXXXXXXXXXXXXXXXXXXXXXXXXXXXXXXXXXXXXXXXXXXXXXXXXXXXXXXXXXXXXXXXXXXXXXX",
"XXXXXXXXXXXXXXXXXXXXXXXXXXXXXXXXXXXXXXXXXXXXXXXXXXXXXXXXXXXXXXXXXXXXXXXXXXXXXXXXXXXXXXXXXXXXXXXXXXXX",
"XXXXXXXXXXXXXXXXXXXXXXXXXXXXXXXXXXXXXXXXXXXXXXXXXXXXXXXXXXXXXXXXXXXXXXXXXXXXXXXXXXXXXXXXXXXXXXXXXXXX",
"XXXXXXXXXXXXXXXXXXXXXXXXXXXXXXXXXXXXXXXXXXXXXXXXXXXXXXXXXXXXXXXXXXXXXXXXXXXXXXXXXXXXXXXXXXXXXXXXXXXX",
"XXXXXXXXXXXXXXXXXXXXXXXXXXXXXXXXXXXXXXXXXXXXXXXXXXXXXXXXXXXXXXXXXXXXXXXXXXXXXXXXXXXXXXXXXXXXXXXXXXXX"
};
