/* XPM */
static char *result[] = {
/* columns rows colors chars-per-pixel */
"45 60 256 2 ",
"   c #0C0504",
".  c #0D0A05",
"X  c #0C040A",
"o  c #0C0B0C",
"O  c #050504",
"+  c #140A05",
"@  c #1B0C06",
"#  c #13050A",
"$  c #140B0B",
"%  c #1A0C0B",
"&  c #180506",
"*  c #15120C",
"=  c #1A120C",
"-  c #181407",
";  c #120A12",
":  c #190B14",
">  c #1A1415",
",  c #0D0C18",
"<  c #230B0C",
"1  c #270A07",
"2  c #390A0B",
"3  c #28160C",
"4  c #35170C",
"5  c #250A14",
"6  c #241412",
"7  c #2A1915",
"8  c #371A16",
"9  c #380917",
"0  c #39280B",
"q  c #2A2316",
"w  c #372517",
"e  c #383714",
"r  c #2C1E21",
"t  c #3A2825",
"y  c #3A342B",
"u  c #480A08",
"i  c #59090A",
"p  c #4B140B",
"a  c #4B0912",
"s  c #580C13",
"d  c #471B15",
"f  c #561914",
"g  c #551608",
"h  c #660B0B",
"j  c #79080C",
"k  c #7C1209",
"l  c #670B13",
"z  c #6A1614",
"x  c #741613",
"c  c #720E12",
"v  c #45270D",
"b  c #572A0B",
"n  c #482617",
"m  c #552414",
"M  c #562918",
"N  c #483517",
"B  c #5A3619",
"V  c #55350D",
"C  c #6B290A",
"Z  c #772A0A",
"A  c #64340C",
"S  c #672B17",
"D  c #683519",
"F  c #773819",
"G  c #732C18",
"H  c #452625",
"J  c #493826",
"K  c #56372A",
"L  c #583835",
"P  c #52312E",
"I  c #683723",
"U  c #712C28",
"Y  c #600F23",
"T  c #5D5316",
"R  c #6A4419",
"E  c #79451A",
"W  c #6A5617",
"Q  c #725312",
"!  c #5A4438",
"~  c #4A4331",
"^  c #654323",
"/  c #675526",
"(  c #775B25",
")  c #6B4639",
"_  c #754F32",
"`  c #7F672B",
"'  c #763A45",
"]  c #523941",
"[  c #5A4645",
"{  c #794546",
"}  c #775249",
"|  c #96080A",
" . c #89150A",
".. c #850915",
"X. c #950A17",
"o. c #861517",
"O. c #981519",
"+. c #8E0C09",
"@. c #A7191A",
"#. c #B61718",
"$. c #AD120F",
"%. c #8B340B",
"&. c #873B1A",
"*. c #973813",
"=. c #892D0B",
"-. c #B82415",
";. c #A92E0F",
":. c #B21526",
">. c #8F3B26",
",. c #8B0222",
"<. c #DA140C",
"1. c #C81A13",
"2. c #D61816",
"3. c #C6150F",
"4. c #E51413",
"5. c #E6190D",
"6. c #C83D03",
"7. c #D62F12",
"8. c #E42E0E",
"9. c #DB2C2F",
"0. c #DD2026",
"q. c #894A18",
"w. c #984619",
"e. c #86581D",
"r. c #994D14",
"t. c #A94C16",
"y. c #A75718",
"u. c #B85519",
"i. c #B44B10",
"p. c #976718",
"a. c #8C681D",
"s. c #AF6C1B",
"d. c #864624",
"f. c #974825",
"g. c #90562D",
"h. c #A74B23",
"j. c #A55825",
"k. c #B65727",
"l. c #AA562F",
"z. c #976828",
"x. c #987A28",
"c. c #967732",
"v. c #8D6A2E",
"b. c #A6682A",
"n. c #BA6624",
"m. c #A87824",
"M. c #B37530",
"N. c #C64607",
"B. c #C44C17",
"V. c #C6581A",
"C. c #D65C19",
"Z. c #D8500C",
"A. c #E25916",
"S. c #C7671A",
"D. c #D7671A",
"F. c #C9781B",
"G. c #D87719",
"H. c #DA6F0D",
"J. c #E87519",
"K. c #E87112",
"L. c #D45D27",
"P. c #C85E2F",
"I. c #C9652B",
"U. c #DB6C23",
"Y. c #D76828",
"T. c #CC7825",
"R. c #DA7A27",
"E. c #CA7735",
"W. c #D47033",
"Q. c #E56D27",
"!. c #E77528",
"~. c #EA7330",
"^. c #E05825",
"/. c #863D41",
"(. c #855D57",
"). c #995757",
"_. c #8C4E4B",
"`. c #A5585A",
"'. c #AE525B",
"]. c #906753",
"[. c #A8745C",
"{. c #8E6B6C",
"}. c #A97A66",
"|. c #B27468",
" X c #D37272",
".X c #E67572",
"XX c #CC604F",
"oX c #B08A18",
"OX c #AF8B31",
"+X c #BBA132",
"@X c #928023",
"#X c #C5871C",
"$X c #D88B16",
"%X c #D3971A",
"&X c #E4881C",
"*X c #E79919",
"=X c #F59C17",
"-X c #F19012",
";X c #F6A20C",
":X c #EDA71A",
">X c #F4A51A",
",X c #F9BA1A",
"<X c #EEB613",
"1X c #C89427",
"2X c #D89A27",
"3X c #DC8535",
"4X c #D18C30",
"5X c #E68625",
"6X c #EA9729",
"7X c #E89736",
"8X c #EF902C",
"9X c #D9A525",
"0X c #DAB839",
"qX c #D1A930",
"wX c #E8A726",
"eX c #F3A927",
"rX c #E9B727",
"tX c #F7B925",
"yX c #E7A637",
"uX c #E9B736",
"iX c #F7B837",
"pX c #F3A734",
"aX c #DFAC1F",
"sX c #F9C219",
"dX c #F7C728",
"fX c #EDC938",
"gX c #FBCC33",
"hX c #F6C536",
"jX c #FAD335",
"kX c #F4D232",
"lX c #AE8B70",
"zX c #AE975B",
"xX c #D8AC46",
"cX c #EDB843",
"vX c #CE9073",
"bX c #E59876",
"nX c #E19552",
"mX c #F7CD4A",
"MX c #887F87",
"NX c #D07B83",
"BX c #B2AFAD",
"VX c #989597",
"CX c #D79B85",
"ZX c #CE9387",
"AX c #E99585",
"SX c #D8AA8A",
"DX c #F7B68A",
"FX c #EBB498",
"GX c #F8BA97",
"HX c #E9AC8D",
"JX c #F9B8A2",
"KX c #E1B0A2",
"LX c #F6C099",
"PX c #D4D5DB",
"IX c #E8E9EA",
"UX c None",
/* pixels */
"UXUXUXUXUXUXUXUXUXUXUXUXUXUXUXUXUX# > > UXUXUXUXUXUXUXUXUXUXUXUXUXUXUXUXUXUXUXUXUXUXUXUXUX",
"UXUXUXUXUXUXUXUXUXUXUXUXUXUXUXUXUX$ ; # UXUXUXUXUXUXUXUXUXUXUXUXUXUXUXUXUXUXUXUXUXUXUXUXUX",
"UXUXUXUXUXUXUXUXUXUXUXUXUXUXUXUX# 4 c.^ # O UXUXUXUXUXUXUXUXUXUXUXUXUXUXUXUXUXUXUXUXUXUXUX",
"UXUXUXUXUXUXUX    UXUXUXUXUXUXUX< v.uXxX/ * = UXUXUXUXUXUXUXUXUXUXUXUXUXUXUXUXUXUXUXUXUXUX",
"UXUXUXUXUXUXUX# 6 : . $ UXUXUX$ I 3XcXmXmX@Xw , = UXUXUXUXUXUXUXUXUXUXUXUXUXUXUXUXUXUXUXUX",
"UXUXUXUXUXUXX 7 OXzXW e 3 % : > l.3X7XmXjXmXqXW 7 , UXUXUXUXUXo + UXUXUXUXUXUXUXUXUXUXUXUX",
"UXUXUXUXUXUXX n qXfXkXuX+Xx.S m E.~.5XiXjXjXjXkXOXN 6 # UX; % 3 @   UXUXUXUXUXUXUXUXUXUXUX",
"UXUXUXUXUXUXX n 7XfXmXgXjXiXI.f.~.~.R.2XmXjXjXjXdXfX@Xw % H b.+XJ # UXUXUXUXUXUXUXUXUXUXUX",
"UXUX    UXUXO n 3X6XmXdXfXdX#Xf.W.Q.~.~.pXjXjXgXkXkXmXc.^ E.5XhX`   UXUXUXUXUXUXUXUXUXUXUX",
"UXUXo , % X > 8 E.Q.R.4XR ` m.f.Y.Q.Q.Q.R.pXgXgXtXOXD q.R.3X7XmX+X0 , UXUXUXUXUXUXUXUXUXUX",
"UXUXX w v.T 7 7 l.Q.W.h.N B 0 f &.k.Y.Y.R.&XpXwXI.n t d n.R.3XmXfX( o UXUXUXUXUXUXUXUXUXUX",
"UXUXX D rXkX0X+Xb.Q.W.>.R xXxXOXW ^ I >.k.U.Q.Q.F E xXg.H j.U.mXkXqXq ; ; o - UXUXUXUXUXUX",
"UXUXX F 6XhXgXdX2XD.I.>.d.5XcXgXkXuX9XoXa.f.I.Y.D E.wXfXx.B q.uXdX2XD E v.7 - UXUXUXUXUXUX",
"UXUXX E !.yXgXsXhX3XY.t.f.!.5XtXgXdXdXkXhX9X#XS.h.~.G.iXhXqX^ b.uXn.E.:XyXn . UXUXUXUXUXUX",
"UXUX$ D !.G.eXdXdX6XQ.L.l.D.Y.R.wXdXsXfXhXsX,XwXG.R.U.8XhXgX0Xa.1X4X7XdXmXM X UXUXUXUXUXUX",
"UXUXO n Q.Q.U.yXdXwXK.Y.I.V.Y.U.D.:XrXx.@X9XdXhXtX8XR.G.iXgXdXwX1X6XiXdXdXQ   UXUXUXUXUXUX",
"X o > d L.Y.Y.U.~.T.y.D B B e.4XtXeXm.R x.m.2XsXdXtX,X<XrX<XdXtXtXdXdXsXrXa.  O UXUXUXUXUX",
"  = q < q.Y.Y.k.q.m A m.9X:XrXtXdXqXA p.rXmXcXhXiXhXiXiX+Xx.aXdXsXsXiX2Xm.( W 0 * UXUXUXUX",
"$ 4 4X1XE d.S 3 ^ x.uXdXsXsXsXdXdXz.v OXR.b 0 v V R R y.3Xm.Q 9XdXtXiX2XrX,XrXe.  UXUXUXUX",
"O 1 M.cXqXz.I w 4X6XtXdXdXdXdXtXtX1Xv w.k.f g.'.`./.L 8 S T.N x.rX,XsXdXrX&X&Xp.$ UXUXUXUX",
". + z.pXsX*XU.C G I.Y.D.K.J.pX,XsX<Xa.7 I L CXJXGXDXDXSX~ n 7 J w H ^ I L I s.z.: UXUXUXUX",
"- @ g.~.tX>XD.V.F &.E.U.D.K.eX,X<X9XR 5 3 L SXLXGXLXGXGX}.6 ^ SXCXZXlXlX(.5 v ^ 6 UXUXUXUX",
"UX& _ G.&X8XY.D.Y.u.s.$X>X,XtX,XdX1Xm _.L K HXGXJXGXLXGXFX{.vXDXJXLXGXGXlX5 # % # UXUXUXUX",
"UX& S U.D.D.D.G.6XeX:X>X,X,X,X,X>XwXR _ ZX].HXGXLXLXGXGXGXDXHXGXFXGXGXGXlX6 $ >   UXUXUXUX",
"UX# d P.^.L.C.D.!.#Xa.oX,XtX,X,X$X#XW P SXHXSXCXSXHXGXAXKXGXJXAX}.SXLXGX].> % UX& UXUXUXUX",
"UXo   q.l.C.A.S.w.m b.eX:X>XtX,X#XA n 8 bX[.J ^ _ g.zX(.L }.FXJXlXvXJXDX} $ UXUXUXUXUXUXUX",
"UX  : n B q.u.&.8 E 4XR.S.S.s.1XwXE : 9 CXSX) g.7XyXv.R OXe._.FXFXvXKXSX! ; UXUXUXUXUXUXUX",
"UX$ v 1X:X*XT.q.f v I D G d ! _ z.OXH ).SXCX_ n.~.6X4X7X6X6Xv.}.g.K ].ZXq o UXUXUXUXUXUXUX",
"UX= 1 n.6X>X>X$XV.t.i.t.4 { FXDXvX1Xn '.AXlXR [.~.!.~.~.~.!.yXm.4XM.H |.6 # UXUXUXUXUXUXUX",
"UXUXX P I.G.8X8XC.C.L.f.3 ].vX[.bXyXb _.AXlX) d 8 F l.L.~.Q.8XpX&XI.8 ].* > UXUXUXUXUXUXUX",
"UXUX$ : F Y.C.D.S.L.Y.y.4 _ vXZXbXyXR ' bXDXFX_.y MXL n U h.U.~.~.B.3 } X UXUXUXUXUXUXUXUX",
"UXUXUXO % &.k.f.k.Y.V.V.S 9 _.lXXX6XQ P  XDXJXZXy BXIXPXVXy 3 x f.d.4 _ + UXUXUXUXUXUXUXUX",
"UXUXUXUX  3 d &.V.H.C.G.e.8 U H r.:Xm.n ).AXFXDX(.] VXPXIXBX] r ; 7 P } + UXUXUXUXUXUXUXUX",
"UXUXUXUX. . D F.&Xy.V.3XF } `.D F.-X=Xp.d { vXDXGX|.[ L J L y y t [ {.] @ q UXUXUXUXUXUXUX",
"UXUXUXUXUX: A U.i.v *.l.M _._.M y.H.=X<XM.B M _.vXCXvXlX(.! H d n B F q + UXUXUXUXUXUXUXUX",
"UXUXUXUXUX: 1 g.F % 7 4 1 ).'.H C G.>X;X;X6Xp.R 8 8 d n K q.p.oXOXy.y.e @ UXUXUXUXUXUXUXUX",
"UXUXUXUXUXUX& 3 w   % K `. X X' F U.G.H.*X;X>X*X$X&X$X%X*X:X;X;X=XF.z.t . UXUXUXUXUXUXUXUX",
"UXUXUXUXUXUXUX* X ; . % M ).NX_.S P.t.y.*X>X=X$X>X>X>X>X&X$X>X=X;X;X*XJ   UXUXUXUXUXUXUXUX",
"UXUXUXUXUXUXUXUX  r o 2 s 5 8 H 3 M 9 d b A q.w.T.*X;X*Xu.u.J.=X;X;X5X0   UXUXUXUXUXUXUXUX",
"UXUXUXUXUXUXUXUXUX7 & l X.j s 2 o ; : 9 ,.o.d 3 f.G.-XG.i.&.V.R.-X;Xs.@ ; UXUXUXUXUXUXUXUX",
"UXUXUXUXUXUXUXUXUXUX. h o.X.| X...u i +.3.8.O.2 u >.B.V.F l f u.G.T.D O UXUXUXUXUXUXUXUXUX",
"UXUXUXUXUXUXUXUXUXUX  ..+.X.| | l 2 O.| 8.A.N.p x p S F a O.z f u.k.4 $ UXUXUXUXUXUXUXUXUX",
"UXUXUXUXUXUXUXUXUXUX# X.| | | ..a l O.#.A.-XA.k z 1.O.s p ;.=.& 8 8 . UXUXUXUXUXUXUXUXUXUX",
"UXUXUXUXUXUXUXUXUX* < X.| $.;.x 2 O.@.:.0.8.5.X.9 1.2.2.-.C.j.3 3 , O UXUXUXUXUXUXUXUXUXUX",
"UXUXUXUXUXUXUXUXUX; 2 O.| -.i.C u :.;.i.8.<.1.@.5 #.4.4.2.8.k.p j.b o UXUXUXUXUXUXUXUXUXUX",
"UXUXUXUXUXUXUXUXUXO u X.| |  .u s @.$.i.7.#.-.o.5 O.2.<.<.5.@.4 B n > > , 7 . UXUXUXUXUXUX",
"UXUXUXUXUXUXUXUXUX# l X.....+.2 s j i h G &.t.y.n k 3.1.0.#.$.1 H ) t , w c.3 X   UXUXUXUX",
"UXUXUXUXUXUXUXUXUX+ Y c j +.+.2 M Z %.i.-XK.H.n.D C Z.7.1.x f 6 > q : & V OXp x p * $ UXUX",
"UXUXUXUXUXUXUXUXUX. 2 4 4 a z 8 &.N.6.f.&.b n 6 q N n.y.G M c.e e J 9 j g V j 0.XXX.5 UXUX",
"UXUXUXUXUXUXUXUX$ o 3 oXQ > K w 3 n d f } {.t J ~ ! ) r = 0 n w ( 3 i | #.#.1.0.NXZXY O UX",
"UXUXUXUXUXUXUXUX  # d oXQ r ! K 1 ).`.XXAXlXt lXlXvXlXy W oXN N ( 2 l  .1.4.5.4.9..Xo.@ UX",
"UXUXUXUXUXUXUXUX% p 1 4 < < 1 1 < `.bX.XvXZXP ; 3 q q : q E m N ( u ,.j $.0.4.2.0.@.f & % ",
"UXUXUXUXUXUXUXUX& s u a i j j j a 9 _.`.|.(.d s X.k k c 5 w n w / 3 +.u u x <.4.#.f a.T 3 ",
"UXUXUXUXUXUXUX+ f h.Z g u h l h z i u 2 s z  .#.1.$.@.O.a N x.n v w w p.E 2 j +.z u ~ 0 + ",
"UXUXUXUXUXUXUX@ M B.N.;.=.x g s i i i i h k  . . .k Z %.y.q.b 7 = @ ~ oXm 2 u u 1 & $ = UX",
"UXUXUXUXUXUXUX+ 1 F B.Z.6.N.i.i.;.*.%.Z Z %.*.u.s.K.K.K.K.A.B.F 2 % o =   # # @ = UXUXUXUX",
"UXUXUXUXUXUXUXUX. ; 4 F t.N.N.N.N.6.6.6.6.6.N.N.Z.Z.N.N.i.*.f : * 6 UXUXUXUXUXUXUXUXUXUXUX",
"UXUXUXUXUXUXUXUXUXUXUX  % d G %.r.t.u.i.B.B.i.t.r.%.=.f 4 @ - % UXUXUXUXUXUXUXUXUXUXUXUXUX",
"UXUXUXUXUXUXUXUXUXUXUXUXUX. # X + < 1 < 1 @ 1 1 @ *   + UXUXUXUXUXUXUXUXUXUXUXUXUXUXUXUXUX",
"UXUXUXUXUXUXUXUXUXUXUXUXUXUXUXUXUX  X % > $ O UXUXUXUXUXUXUXUXUXUXUXUXUXUXUXUXUXUXUXUXUXUX"
};
