/* XPM */
static char *result[] = {
/* columns rows colors chars-per-pixel */
"45 60 256 2 ",
"   c #0C0504",
".  c #0C0A05",
"X  c #0D050A",
"o  c #080808",
"O  c #130403",
"+  c #150B05",
"@  c #1B0B05",
"#  c #130B0B",
"$  c #1D0C0B",
"%  c #170509",
"&  c #19140B",
"*  c #0E0713",
"=  c #150B14",
"-  c #1A1514",
";  c #230B0B",
":  c #270A08",
">  c #390A0A",
",  c #23120D",
"<  c #2B170C",
"1  c #37170A",
"2  c #261816",
"3  c #371A16",
"4  c #300A12",
"5  c #3A250B",
"6  c #3A2615",
"7  c #302714",
"8  c #291622",
"9  c #382523",
"0  c #3C393A",
"q  c #363028",
"w  c #480A0A",
"e  c #570A09",
"r  c #48180C",
"t  c #581609",
"y  c #471B15",
"u  c #581816",
"i  c #530C11",
"p  c #660B0B",
"a  c #7A0809",
"s  c #67130B",
"d  c #761616",
"f  c #701012",
"g  c #46290A",
"h  c #4B2414",
"j  c #472717",
"k  c #572917",
"l  c #49371D",
"z  c #59351C",
"x  c #5B370B",
"c  c #672A17",
"v  c #673718",
"b  c #763619",
"n  c #742D0E",
"m  c #421E23",
"M  c #482825",
"N  c #552B27",
"B  c #473429",
"V  c #583625",
"C  c #593736",
"Z  c #4D3532",
"A  c #633725",
"S  c #763D23",
"D  c #6E3836",
"F  c #584717",
"G  c #6A4715",
"H  c #79471B",
"J  c #745318",
"K  c #7B661A",
"L  c #554333",
"P  c #7B4927",
"I  c #6C5624",
"U  c #764736",
"Y  c #6D4E2F",
"T  c #7A662B",
"R  c #514649",
"E  c #694944",
"W  c #744C46",
"Q  c #7C5449",
"!  c #605753",
"~  c #78684E",
"^  c #606164",
"/  c #850C0A",
"(  c #88140D",
")  c #950D13",
"_  c #8B1619",
"`  c #981316",
"'  c #94110D",
"]  c #A8170B",
"[  c #B7130B",
"{  c #A90C17",
"}  c #BA0E14",
"|  c #A81614",
" . c #B3120F",
".. c #97360D",
"X. c #863616",
"o. c #953716",
"O. c #8E330F",
"+. c #AD310E",
"@. c #AE1926",
"#. c #A13F21",
"$. c #881523",
"%. c #CC130C",
"&. c #C7170B",
"*. c #D4130B",
"=. c #D9170B",
"-. c #C90F12",
";. c #C91614",
":. c #D71415",
">. c #D40D11",
",. c #E9191A",
"<. c #D42308",
"1. c #D83719",
"2. c #D32E10",
"3. c #DB2B24",
"4. c #834A19",
"5. c #984617",
"6. c #86591C",
"7. c #925516",
"8. c #A64518",
"9. c #A6581B",
"0. c #B8571A",
"q. c #B4480E",
"w. c #9B661A",
"e. c #8F6B1A",
"r. c #B76819",
"t. c #A3781B",
"y. c #B46E17",
"u. c #874A26",
"i. c #9B4B26",
"p. c #8A5928",
"a. c #925330",
"s. c #A95625",
"d. c #B65723",
"f. c #A9583A",
"g. c #876628",
"h. c #9A7626",
"j. c #986538",
"k. c #956726",
"l. c #A76627",
"z. c #B66728",
"x. c #A87A28",
"c. c #B4762A",
"v. c #BB783A",
"b. c #A87133",
"n. c #CB470B",
"m. c #D6440D",
"M. c #C55A17",
"N. c #CF5310",
"B. c #EB5B0B",
"V. c #E94F12",
"C. c #D86A1B",
"Z. c #C6791A",
"A. c #D8751B",
"S. c #CC6213",
"D. c #F57A0C",
"F. c #E7691B",
"G. c #E37718",
"H. c #F47013",
"J. c #C95928",
"K. c #D25A27",
"L. c #CC6726",
"P. c #D96826",
"I. c #CD7526",
"U. c #D57923",
"Y. c #D37534",
"T. c #E36424",
"R. c #E77926",
"E. c #E8732E",
"W. c #EA5F22",
"Q. c #854848",
"!. c #875747",
"~. c #905551",
"^. c #A45455",
"/. c #96654B",
"(. c #8B6758",
"). c #AD6957",
"_. c #AE5863",
"`. c #A97A65",
"'. c #AD7169",
"]. c #906B66",
"[. c #C76E56",
"{. c #C6736A",
"}. c #D97775",
"|. c #CD726A",
" X c #E47A74",
".X c #D75F5F",
"XX c #B1871B",
"oX c #B88B29",
"OX c #BB8834",
"+X c #AF8F31",
"@X c #9C8121",
"#X c #D98818",
"$X c #D58D0E",
"%X c #F88507",
"&X c #E99917",
"*X c #EF9115",
"=X c #D5A319",
"-X c #EDA716",
";X c #F3A918",
":X c #F8BA1A",
">X c #F1AA0D",
",X c #DB8525",
"<X c #C8982A",
"1X c #CE9230",
"2X c #E88828",
"3X c #E79626",
"4X c #F19527",
"5X c #E69936",
"6X c #EA803A",
"7X c #DCA723",
"8X c #D8A439",
"9X c #D8B538",
"0X c #D2AF2E",
"qX c #E9A828",
"wX c #F4A928",
"eX c #EAB627",
"rX c #F7B928",
"tX c #E6A833",
"yX c #EAB837",
"uX c #F5B833",
"iX c #F3AE36",
"pX c #FAC51B",
"aX c #FBC424",
"sX c #FBC52A",
"dX c #F6C628",
"fX c #F8C734",
"gX c #F5D335",
"hX c #EFCC2F",
"jX c #B78870",
"kX c #BB9E5F",
"lX c #EBAB43",
"zX c #CF8E71",
"xX c #E68D78",
"cX c #D8A15C",
"vX c #F0C144",
"bX c #7F7B89",
"nX c #DC7381",
"mX c #7F8282",
"MX c #8F898F",
"NX c #A4AAAC",
"BX c #CB9389",
"VX c #E8938B",
"CX c #DDA587",
"ZX c #E5A788",
"AX c #F8B88D",
"SX c #F7AB95",
"DX c #EDB497",
"FX c #FABA95",
"GX c #FCB59B",
"HX c #F7B797",
"JX c #E8AA95",
"KX c #F5BBA3",
"LX c #F4C094",
"PX c #DCD9DC",
"IX c #E7E9EB",
"UX c None",
/* pixels */
"UXUXUXUXUXUXUXUXUXUXUXUXUXUXUXUXUXUXUXUXUXUXUXUXUXUX% $ UXUXUXUXUXUXUXUXUXUXUXUXUXUXUXUXUX",
"UXUXUXUXUXUXUXUXUXUXUXUXUXUXUXUXUXUXUXUXUXUXUXUXUX* + X UXUXUXUXUXUXUXUXUXUXUXUXUXUXUXUXUX",
"UXUXUXUXUXUXUXUXUXUXUXUXUXUXUXUXUXUXUXUXUXUXUX% , A T & UXUXUXUXUXUXUXUXUXUXUXUXUXUXUXUXUX",
"UXUXUXUXUXUXUXUXUXUXUXUXUXUXUXUXUX- * UXUXUX+ 6 j.2XcX7   UXUXUXUXUXUXUXUXUXUXUXUXUXUXUXUX",
"UXUXUXUXUXUXUXUXUXUXUXUXUXUXUXUX& 2 - o UXX 6 v.E.wXgXK   UXUXUXUXUXUXUXUXUXUXUXUXUXUXUXUX",
"UXUXUXUXUXUXUXUXUXUXUXUXUXUXUX% j <X+X7 o 3 Y.R.R.lXgX9X5 O UX& o o O UXUXUXUXUXUXUXUXUXUX",
"UXUXUXUXUXUXUXUXUXUX+ X # . # < j.dXgX8Xh a.R.F.U.lXgXfX@X& + < Y T < X UXUXUXUXUXUXUXUXUX",
"UXUXUXUXUXUXUXUXUXUX+ 7 J 6 # v 5XvXhXfXl.I.G.P.2XfXgXfX9Xl g.9XfXeXb * UXUXUXUXUXUXUXUXUX",
"UXUXUXUXUXUXUXUXUXUXO v 8X9XK u.tXhX0XT i.P.P.E.R.fX0X+X@X+XfXgXgXiXI.r & UXUXUXUXUXUXUXUX",
"UXUXUXUXUXUXUXUXUXUX$ s.E.gXh.z.2XuXI 6 h z.Y.T.R.gXK 1 k +XaXfXfXlXG.f.3 + UX. # UXUXUXUX",
"UXUXUXUXUXUXX . $ = y Y.E.fX8Xd.E.oXg OXXXH i.P.6X9XB +Xj.6 <XdXhXiXE.P.i.+ , M = - UXUXUX",
"UXUXUXUXUXUX# I T 8 4.I.a.oXsXZ.T.P z lXhX9Xc.9.5Xh.K yXqXv.b 0XgXeXU.L.i.l +X8Xj . UXUXUX",
"UXUXUXUXUXUX+ j.yXG I.u.7 p.dXdX&XS 4.iXdXdXdX=X7XJ eXfXrX2Xz.c.hXyXa.c b OXdXwXa.O UXUXUX",
"UXUXUXUXUX  : v.8Xu.f.h @Xh.yXsXdXj.u.tXpXsXdXfX7XoXdXsXsX2XI.Z.rX9Xv j 5 8XsXwXz.1 # UXUX",
"UXUXUXUXUX+ r Y.tXr.a.P eX9XpXaXaXOXu.1XsXsXsXsXdXiXpXsXfX-XP.3X:Xx.J oXg x.aXqXU.V O UXUX",
"UXUXUXUXUX* P U.qX#Xa.p.p.g.XXeXpXtXz.U.rXaXaXpXsXaX:XpXsXrX3XuXoXh.eXrX6.z aXuXP.i.+ UXUX",
"UXUXUXUXUX# a.s.6.qX=X<XP S z.I.qXrX3XA.;XrXaXaXeXoX6.=XaXrXuXeXqXdXdXuXr.V dXuXC.M.& UXUX",
"UXUXUXUXUX# U b : k.aXuXa.u.#XwXwXdXaXrX:XrXrXwX<XXXx.G 8XrXpXsXuXyXuXrXr.k.pXuXC.L., UXUX",
"UXUXUXUX, # C h F x.7XrXt.k #X<XJ 6.+X1XeXpXrXrXrX;XqXk.v <Xt.K z v z t.#X7XaXuXC.d.;   O ",
"UXUXUXUX% 3 V < G rXrXeXK 3 [.X.Q.D N j x I x.OXz.9.4X7Xj 7 N D ^._.Q.3 k.:X:XiXd.b z 2 @ ",
"UXUXUXUX+ j 1Xh.n -XrXt.3 9 y Q. XxXxX{._.Q.Y N N k ,Xh.l jXSXHXAXAXxX^.j oXrX&XZ.8X1X9 : ",
"UXUXUXUX. 1 z.5Xl.Z.8Xz Q.D 3 {.VXSXHXSXSXSXJXZXBXz l.V jXSXGXHXLXFXSX}.D F qXrXeX-XL.%   ",
"UXUXUXUXUX; s.R.iX;Xx.j [.[._.VXAXFXGXFXHXFXGXDXBX< V jXKXFXGXGXFXGXGXVX).j <XwXaX&Xs.X UX",
"UXUXUXUXUX* u.F.wX:X6.D }.VX XGXGXGXGXGXFXFXJXAX/.q zXLXFXAXAXFXFXAXHXJXnXN w.;X:X2XS O UX",
"UXUXUXUXUX2 h L.&XwXJ C _.`.zXHXCXZXHXGXLXLX`.`.`.'.zXLXLXFXAXCXZXDXCX`.].M e.:XwXI.3 O UX",
"UXUXUXUXUXUX: b c.qXw.$ z e.P j.U z (.CXFXLXxXjXKX).ZXLXFXZXW j !.a.J s.c , h.eX,Xn + UXUX",
"UXUXUXUXUXUXUX: k y.x.+ k I.4Xv.P +Xg./.DXzX'.DXHXzXjXBXCX!.h.OXu.OX5XL.h 2 c.x.l # UXUXUX",
"UXUXUXUXUXUXo 9 ]./.Y < l.U.R.2X4X*X4Xl.Q T z `.DX`.z P P c.4X2X5X2XA.U.p.3 u./.~ 2   UXUX",
"UXUXUXUXUXUXO (.xXAXjXl X.i.M.C.T.W.E.2X3X2XP !.KXU u.5X8X5XF.F.P.P.J.5.G g cXxXJXQ # UXUX",
"UXUXUXUXUXUX% /.zX^.zX6 M 8 m c i.K.P.R.2XT.v !.GXU X.C.2XE.W.K.o.c m 8 9 B zX!.nXQ.* UXUX",
"UXUXUXUXUXUX% C |.xX[.V !.q NXNXR 2 c #.J.K.k !.GXE b J.0.i.u 3 ! NXNXB L A xXxX'.N * UXUX",
"UXUXUXUXUXUX  $ C !.a.P E Y ^ IXPX0 o = j c 1 !.KXW y k 9 * * R PXPX^ W C u.f.!.N - = UXUX",
"UXUXUXUXUXUXUXUX+ * c z.j (.Y R MXbXZ 0 0 8 C zXAXBXB & R 0 R MXmXR W !.x l.h % + UXUXUXUX",
"UXUXUXUXUXUXUXUXUXo 1 Z.9.6 (.`.(.W Y L R C z k V N N L L L E W ~ '.Q j z.y.< # UXUXUXUXUX",
"UXUXUXUXUXUXUXUXUXUX@ 4.M.H j Z (.].U j N 4.t.XX$Xy.t.H k M Q ].].N V 8.0.b @ UXUXUXUXUXUX",
"UXUXUXUXUXUXUXUXUXUX& ; $ v A.y.H b w.$X>X>X$XH x 4.&X>X&X$Xp.x H Z.U.z ; * + UXUXUXUXUXUX",
"UXUXUXUXUXUXUXUXUXUXUX- o : 5.2X0.A.>X&XwX-X-X*X#X*X>X&X>X>X&XA.M.G.l.4 O X UXUXUXUXUXUXUX",
"UXUXUXUXUXUXUXUXUXUX, # 1 > 1 i.X.J.*X>X#XS.$X;X>X>X*XS.4X;X&XL...0.j w > + # UXUXUXUXUXUX",
"UXUXUXUXUXUXUXUXUX  > d ) } p 1 , o.A.*XN.+.S.4X;X&Xq...C.4XS.5.r y s  .) f ;   UXUXUXUXUX",
"UXUXUXUXUXUXUXUX& > `  .+.1.;.w i u i.M.M.v 0.N.#XM.8.k 0.N.0.u > w -.m.2.' _ : + UXUXUXUX",
"UXUXUXUXUXUXUXX > ` )  .H.H.1.e _ | i u.v w c N.n.0.c u c s.y ( ( e 2.H.G. .{ _ : # UXUXUX",
"UXUX. + UXUXUX; _ | ' } m.B.+.> +.=.' e > ` u o.J.X.p ] i r 5.1.` w ;.F.m.[ ' +.d $ UXUXUX",
"UX& l 5 * UX+ i | ] ] ;.;.*.) r K.<.;.-.| ;.| w z w  .*.+.r.D.V.| > { *.*.&.` | ` i # UXUX",
"+ g <XI & & $ t s t a ' `  .p f 2.=.:.:.*.*.:.( w _ =.=.V.D.%XB.&.w f  .{ ) a e e s # UXUX",
", 1 G < E q y q.o.o.8.9.o.n 1 f :.:.:.;.>.=.*.&.{ -.>.:.1.H.D.V.;.e y X.5.s.8.....8.1   UX",
"UX+ + # $ 9 r O.O...r.G.D.G.n a *.%.&.&.=.m.1.=.>.:.>.-.*.&.<.=.;.s b D.H.G.r...O.O.1   UX",
"UXUXUXUX-   9 D N k h 5 g v 1 / %.%.&.*.,.B.%XH.B.<.%.-.%.%.&.&.;.d 3 G z k l j N D 8   UX",
"UXUXUXUXUX  W }.nXVX`.3 2 o : @.&.&.;.;.;.H.%X%X%XB.%.*.&.-.>.2.V.+.4 !./.).ZXVX|. XC   UX",
"UXUXUXUXUX& M {.}.xXN C jX~ Z u i.i.d s ( N.D.%X%XB.&.&.&.&.>.2.H.M.r E D '.|.nX}.[.3 . UX",
"UXUXUXUXUXUX$ M ~._.Z - L jXkXq $ 3 6.G , r n M.q.]  .&.1.1.&.%.<.2.f : C '.'..XQ.m $ UXUX",
"UXUXUXUXUXUXUX+ & O # O @ - B 3 T 7 M 1 F 6 # : y I r +.H.H.2.[ -.-.{ p > * * % + o UXUXUX",
"UXUXUXUXUXUXUXUXUXUX- % y > ; < t.F 1 T 7 4 e w u.h.2 u m.V.[ [ [ [ ] a p = X UXUXUXUXUXUX",
"UXUXUXUXUXUXUXUXUXUX@ h n t 3 2 1 2 J 5 w e ' ` u t _ r a  .[ } ] ' a t X.y   UXUXUXUXUXUX",
"UXUXUXUXUXUXUXUXUXUX: o.n.+.u G I 7 I > / f -.>.} :.3.$.> ( ( n n X...+.n.b # UXUXUXUXUXUX",
"UXUXUXUXUXUXUXUXUXUXo h 8.n...5 V 7 z w / a -.,.,.,.VX_.r 5.0.M.n.n.n.n.5.3 % UXUXUXUXUXUX",
"UXUXUXUXUXUXUXUXUXUXUX. + r b n y & 7 g x < { :.=.,..X~.w q.N.n.q.5.b > : ; UXUXUXUXUXUXUX",
"UXUXUXUXUXUXUXUXUXUXUXUXUX# ; : & * 5 @Xe.< a %.:.} @.u 1 n n r 1 : + . UXUXUXUXUXUXUXUXUX",
"UXUXUXUXUXUXUXUXUXUXUXUXUXUX# * X o X 2 4 w p a $.r G 7 o o o o O O UXUXUXUXUXUXUXUXUXUXUX",
"UXUXUXUXUXUXUXUXUXUXUXUXUXUXUXUXUX, O # # % ; w 4 1 6.- o UXO   UXUXUXUXUXUXUXUXUXUXUXUXUX",
"UXUXUXUXUXUXUXUXUXUXUXUXUXUXUXUXUXUXUXUXUXo $ $ - $ . . UXUXUXUXUXUXUXUXUXUXUXUXUXUXUXUXUX"
};
