/* XPM */
static char *result[] = {
/* columns rows colors chars-per-pixel */
"45 60 256 2 ",
"   c #0B0402",
".  c #0B0B04",
"X  c #0D050B",
"o  c #070808",
"O  c #130503",
"+  c #1C0502",
"@  c #150D05",
"#  c #1A0A04",
"$  c #13050C",
"%  c #140B0B",
"&  c #1C0D0B",
"*  c #19050B",
"=  c #1C130C",
"-  c #171207",
";  c #0A0713",
":  c #160913",
">  c #181515",
",  c #0D120B",
"<  c #230B0B",
"1  c #250906",
"2  c #330C0D",
"3  c #380808",
"4  c #23190C",
"5  c #281709",
"6  c #34130D",
"7  c #3C140B",
"8  c #371D0B",
"9  c #270A13",
"0  c #271714",
"q  c #371915",
"w  c #370816",
"e  c #2B2209",
"r  c #382519",
"t  c #322511",
"y  c #1E0A22",
"u  c #371D23",
"i  c #3B2626",
"p  c #383227",
"a  c #192318",
"s  c #460908",
"d  c #5B0A08",
"f  c #491909",
"g  c #58150A",
"h  c #461B15",
"j  c #551B15",
"k  c #4F0713",
"l  c #680A09",
"z  c #770909",
"x  c #650B12",
"c  c #750B14",
"v  c #6B1418",
"b  c #7A171A",
"n  c #6A120A",
"m  c #47270C",
"M  c #59240C",
"N  c #47350B",
"B  c #492618",
"V  c #582818",
"C  c #47381A",
"Z  c #553819",
"A  c #57360E",
"S  c #6A340C",
"D  c #682916",
"F  c #742C19",
"G  c #67391B",
"H  c #78351A",
"J  c #68280D",
"K  c #491F23",
"L  c #572A27",
"P  c #4A3929",
"I  c #583635",
"U  c #4E2D2B",
"Y  c #693726",
"T  c #632E36",
"R  c #751421",
"E  c #5D4311",
"W  c #774714",
"Q  c #7C5215",
"!  c #6B4F15",
"~  c #574B29",
"^  c #494235",
"/  c #584C39",
"(  c #694624",
")  c #744624",
"_  c #794839",
"`  c #60523D",
"'  c #765A3A",
"]  c #6C4E30",
"[  c #73672B",
"{  c #7B6B14",
"}  c #534B4B",
"|  c #675A45",
" . c #72534A",
".. c #77644A",
"X. c #7D6A5A",
"o. c #645F64",
"O. c #870808",
"+. c #950B09",
"@. c #880816",
"#. c #960916",
"$. c #871315",
"%. c #9A1616",
"&. c #951508",
"*. c #A31517",
"=. c #B91616",
"-. c #AF0F10",
";. c #883719",
":. c #8C2F0E",
">. c #B63808",
",. c #AE2F10",
"<. c #8D3728",
"1. c #991825",
"2. c #C5180A",
"3. c #D9160B",
"4. c #CA1714",
"5. c #D61915",
"6. c #CC0E13",
"7. c #E61717",
"8. c #E7130E",
"9. c #C73E03",
"0. c #CC2A15",
"q. c #E61B28",
"w. c #DF2629",
"e. c #854619",
"r. c #935317",
"t. c #B64609",
"y. c #BA4612",
"u. c #B15214",
"i. c #916917",
"p. c #B36B14",
"a. c #894A27",
"s. c #984B25",
"d. c #895627",
"f. c #995427",
"g. c #985737",
"h. c #84473D",
"j. c #AA4823",
"k. c #B85A26",
"l. c #A5502F",
"z. c #9B6C25",
"x. c #8E6E2E",
"c. c #BC6727",
"v. c #A67C29",
"b. c #B96337",
"n. c #A86E30",
"m. c #C84607",
"M. c #D95508",
"N. c #C7581A",
"B. c #D75718",
"V. c #CE4E12",
"C. c #E45814",
"Z. c #EA5213",
"A. c #D9690A",
"S. c #C96717",
"D. c #D86915",
"F. c #D87618",
"G. c #D17311",
"H. c #E67716",
"J. c #EE6D11",
"K. c #CA5724",
"L. c #D65A2A",
"P. c #DB6927",
"I. c #D87727",
"U. c #DA7932",
"Y. c #C96E2F",
"T. c #E46A27",
"R. c #E47526",
"E. c #EE6E31",
"W. c #E45F22",
"Q. c #AC3F47",
"!. c #995757",
"~. c #8F554E",
"^. c #A85647",
"/. c #8B684A",
"(. c #947155",
"). c #A96E55",
"_. c #AD5D63",
"`. c #937363",
"'. c #B27264",
"]. c #C86A4B",
"[. c #D47573",
"{. c #E57670",
"}. c #D9524E",
"|. c #B2872A",
" X c #AD9523",
".X c #C8851D",
"XX c #DA8517",
"oX c #CC8309",
"OX c #F98506",
"+X c #F99E0C",
"@X c #E6881B",
"#X c #E99919",
"$X c #F69C16",
"%X c #F5A319",
"&X c #FBBD1C",
"*X c #F6B91A",
"=X c #F0A714",
"-X c #DA862A",
";X c #C99525",
":X c #DA9923",
">X c #CC8830",
",X c #E88827",
"<X c #E99828",
"1X c #E79937",
"2X c #F08F34",
"3X c #D4A428",
"4X c #DAB43A",
"5X c #D1AD30",
"6X c #E9A927",
"7X c #F5A626",
"8X c #E9B527",
"9X c #F8BA28",
"0X c #EAA937",
"qX c #E8B638",
"wX c #F6B938",
"eX c #F3A73D",
"rX c #DDAA12",
"tX c #F6C61B",
"yX c #F4C818",
"uX c #ECC528",
"iX c #F8C627",
"pX c #F6D52C",
"aX c #EAC338",
"sX c #FCCD34",
"dX c #FAC637",
"fX c #FAD436",
"gX c #ECD029",
"hX c #B3944A",
"jX c #B2876D",
"kX c #B8A446",
"lX c #C7A741",
"zX c #EEB049",
"xX c #C79479",
"cX c #C78972",
"vX c #E6927F",
"bX c #E49A43",
"nX c #F7D547",
"mX c #F3C54F",
"MX c #EB7E80",
"NX c #989B9A",
"BX c #C79682",
"VX c #D38D81",
"CX c #E69B88",
"ZX c #D9AA90",
"AX c #E5A98C",
"SX c #EAB399",
"DX c #FCBB93",
"FX c #F7BA99",
"GX c #F3AC8E",
"HX c #F7BAA6",
"JX c #E3B2A6",
"KX c #F6C09A",
"LX c #F4C092",
"PX c #D0CDD0",
"IX c #E9E7ED",
"UX c None",
/* pixels */
"UXUXUXUXUXUXUXUXUXUXUXUXUXUXUXUXUXUXUXUXUXUXUXUXUXUXUXUXUXo UXUXUXUXUXUXUXUXUXUXUXUXUXUXUX",
"UXUXUXUXUXUXUXUXUXUXUXUXUXUXUXUXUXUXUXUXUXUXUXUXUXUXUXUX  o o UXUXUXUXUXUXUXUXUXUXUXUXUXUX",
"UXUXUXUXUXUXUXUXUXUXUXUXUXUXUXUXUXUXUXUXUXUXUXUXUXUXUXO < [ 1 UXUXUXUXUXUXUXUXUXUXUXUXUXUX",
"UXUXUXUXUXUXUXUXUXUXUXUXUXUXUXUXUXUXUXUXUXUXUXUXUXUX= 4 kXwXG & UXUXUXUXUX4 % UXUXUXUXUXUX",
"UXUXUXUXUXUXUXUXUXUXUXUXUXUXUXUXUXUXUXUXUXUXUXUXUX. r lXfX0X].- UXUXUX% , * $ UXUXUXUXUXUX",
"UXUXUXUXUXUXUXUXUXUXUXUXUXUXUXUXUX& 0 UXUXUXUX% , ] aXfXnX1X,XA . @ $ 2 ] kX= = UXUXUXUXUX",
"UXUXUXUXUXUXUXUXUXUXUXUXUXUXUXUXUXO - + UXUX= 4  XfXpXfXnXR.R.g.0 '  XuXpXdXB   UXUXUXUXUX",
"UXUXUXUXUXUXUXUXUXUXUXUXUXUXUXUXUX: hX[ 2 X Z 4XdXnXfXnX0XT.R.b.d.wXpXsXnX6XY   UXUXUXUXUX",
"UXUXUXUXUXUXUXUXUXUXUXUXUXUXUXUX; r nX,X).Z aXsXsXfXnXzX@XT.T.b.j.dXgXfXzX,XY = UX  @ UXUX",
"UXUXUXUXUXUXUXUXUXUXUXUXUXUXUXUX: { fXU.E.b.( |.iXsXnX@XH.E.I.g.n.|.( 1XH.U.B ; @ X ; UXUX",
"UXUXUXUXUXUXUXUXUXUXUXUXUXUXUX: # 4XsX,XR.s.0 0 Y.eX6XI.P.T.b.V e U - P.R.,X9 % Z d.o UXUX",
"UXUXUXUXUXUXUXUXUXUXUXUXUXo $ ; ( gXsXI.l.7 5Xf.H H.A.T.j.h C i.lXmXm K.P.b.|.aXnX;X  UXUX",
"UXUXUXUXUXUXUXUXUXUXUXUXUX. ] Z Q iXaXd.m lXuX-XF P.b.! v.5XiXiXfX<XG k.R.Y.iXsXzXI.o UXUX",
"UXUXUXUXUXUXUXUXUXUXUXUXUX@ qXbX^.6X>XA 8XpX,XR.s.]..XiXtXpXyXiX1XI.;.K.G.wXtXsX6XU.  UXUX",
"UXUXUXUXUXUXUXUXUXUXUXUX= e uXdX,X1Xd.qXyXwXH.D..XeXyXiXsXdXsX<XP.E.s.P.F.sXsX6XG.I.  UXUX",
"UXUXUXUXUXUXUXUXUXUXUXUX: N iX9X6X6X3XuXiX<XP.<X9XtX9X;Xz.wX#XF.T.N.b.J.I.wX6XI.P.L.@ UXUX",
"UXUXUXUXUXUXUXUXUXUXUX4 : ( dXyXuXtXiXiX9X6XuXiXiX9X;X|.( |.8X0Xp.r.S ;.c.:XT.W.D.h.O   : ",
"UXUXUXUXUXUXUXUXUXUXUX. ! Q i.3X9X9X9X6Xi.5X9X9X&X9X9XtX;XB 8XiX9XiX4Xx.7 H k.S.Y.h 0 $ > ",
"UXUXUXUXUXUXUXUXUXUXUX> 5X9XiXrX9XiX9XW ;XI.W A m 8 m i.#X2 ;XtX9X&X9XiX3X) 4 M ;.x.zXa o ",
"UXUXUXUXUXUXUXUXUXUXUX0 -XI.1XwXtX8Xz.h v.2 U ~._.'.h.H f.h 4X&XtXwXiX9X7X1Xm a.p.yX1X9 4 ",
"UXUXUXUXUXUXUXUXUXUX= 8 .XF f N r B p 4 r `.FXGXDXDX'.m f x.tX9X7XXXF.D.F.f.V S.9XiXY.9 UX",
"UXUXUXUXUXUXUXUXUXUXe q Y : `.jXBXSXFX/ q SXKXFXDXHXjX% > Z 6X&X*X@XD.T.f.D N.A.wX2Xc.+ UX",
"UXUXUXUXUXUXUXUXUXUX= ; o X xXFXDXDXDXBX'.DXHXKXDXHXjXK _.8 6X&XyX*X8Xc.S.S.W.D.eXH.z.  UX",
"UXUXUXUXUXUXUXUXUXUX-   p   jXGXFXFXFXDXFXHXLXDXDXDXjXxX!.! %X9X&X*X*X0X9X7XH.P.C.C.f.+ UX",
"UXUXUXUXUXUXUXUXUXUX# - UX  /.DXFX(.ZXDXDXZXFXSXcXcXJXHX^ d..X7X*X*X*Xp.d.@XS.B.C.D.Y = UX",
"UXUXUXUXUXUXUXUXUXUXUXUXUX%  .FXDX'.HXSX_ t jX) f.) h AXp B D *X*X%X<X8XS F K.B.N.a.4 o UX",
"UXUXUXUXUXUXUXUXUXUXUXUXUX. B HXxXAXHX_ v.v.W zX-XD jXFXT $ |.:Xz.p.N..X>X5 V K.H W P ; UX",
"UXUXUXUXUXUXUXUXUXUXUXUXUX% 0 ZXB I _ n.<X2X<X2X@Xn.' GXMX> ;X_ ~.q H J 8 j r.F.9X7XW - UX",
"UXUXUXUXUXUXUXUXUXUXUXUXUXUX% !.D 7X;X8XE.E.E.E.L.g.D GX_.8 1XGXKX`.0 N.N.L.G.9X6XF.q - UX",
"UXUXUXUXUXUXUXUXUXUXUXUXUXUX  /.V E.2X@XE.E.j.A & U ).GX!.m qX).'.[.2 y.V.B.$X@XC.f.o UXUX",
"UXUXUXUXUXUXUXUXUXUXUXUXUXUX  h.q E.E.K.G 6 } NX} jXDXGX~.E zXAXCXT q N.K.K.S.V.L.5 % UXUX",
"UXUXUXUXUXUXUXUXUXUXUXUXUXUXX h.8 a.m 1 o.PXIXPXi JXDXCXT f.@X'.^.9 e.N.V.y.H l.m > UXUXUX",
"UXUXUXUXUXUXUXUXUXUXUXUXUXUX  '.K X a o.IXIXNXq jXFXGX).6 ,XrXN I B i.H.V.G.f.3 = UXUXUXUX",
"UXUXUXUXUXUXUXUXUXUXUXUXUXUXo P  .^ i u i u _ BXFXCX^.2 v.$XF.S.T ~.;.F.y.D.H.e.; UXUXUXUX",
"UXUXUXUXUXUXUXUXUXUXUXUXUXUX; D r.~ 6 u P (.[.cX!.U 8 v.6X+Xu.j.B _.U g.f ;.G.i % UXUXUXUX",
"UXUXUXUXUXUXUXUXUXUXUXUXUXUX- 8 ( p.=X;Xz.A m 8 A i.<X+X+X6Xc.7 !.[.6 q o h s.O UXUXUXUXUX",
"UXUXUXUXUXUXUXUXUXUXUXUXUXUXt ( .X#X+X%X%X$X$X#X=X%X$X+XH.p.L.6 [.{._.w o > < % UXUXUXUXUX",
"UXUXUXUXUXUXUXUXUXUXUXUXUXUXt Y +X$X+X%Xp.#X+X$X<X@X%X$XS.:.k.0 [.T *   o   > UXUXUXUXUXUX",
"UXUXUXUXUXUXUXUXUXUXUXUXUXUX, P =X#X$XG.,.S.%X7XN.;.e 1 9 y $ y 1 3 c s o @ UXUXUXUXUXUXUX",
"UXUXUXUX@   O 4 = UXUXUXUXUXo O -X$XF.u.g k.H.c.H 1 b 1.l $ < k c #.+.h , UXUXUXUXUXUXUXUX",
"UXUXo 1 v $.x x.Q % UXUXUXUXUX  j.B.k.v x r.Z.<.s s q.8.-.d w #.+.#.+.d a UXUXUXUXUXUXUXUX",
"UX> $ Q.vXw.b x.f X % UXUXUXUX; 8 k.< v $.w 7 g D J J.J.-.%.3 O.#.+.#.v 4 UXUXUXUXUXUXUXUX",
"UX; b MX}.q.*.d R < r $ % UXUXUX  < $ ;.>.l *.4.n %.J.Z.=.*.k d +.+.#.c % UXUXUXUXUXUXUXUX",
"+ P n 0.7.5.7.4.+.s ~ = E < UXUX  > 6 N.Z.3.3.w.3 -.8.8.-.#.$.s >.,.+.$.  UXUXUXUXUXUXUXUX",
"+ |.L =.8.8.8.-.O.s ~ 6  Xq o UXO e.N 0.3.6.3.=.3 =.5.3.L.,.*.3 >.,.O.+.O UXUXUXUXUXUXUXUX",
"  & w *.2.%.O.O.+.3 [ 5 - % o , ; w > =.8.3.3.*.1 l O.%.,.&.#.9 +.@.+.*.+ UXUXUXUXUXUXUXUX",
"UX& $ l O.3 Z d n 8 [ h 3X{ P ^  .BX: 6.3.4.5.:.F -XG.u.:.2 d 9 O.#.@.#.< UXUXUXUXUXUXUXUX",
"UXUX- + 2 3 ;XZ 9 [ 4 1 u , ` X.K X.1 6.3.Z.J.:.B W p.oXB.>.V.q x O.@.#.7 - UXUXUXUXUXUXUX",
"UXUXUX. . $ Q p e 0 x.x.; ; # 0 > i k 2.J.OXOXz.Z  .I 8 j :.s.8 :.&.O.#.x . UXUXUXUXUXUXUX",
"UXUXUXUXUXUX# . o : 5 : o UXUX= > I l >.J.OXH.7 xX'.CXZX!.L K 0 9.>.+.O.@.o UXUXUXUXUXUXUX",
"UXUXUXUXUXUXUXUXUXUX& UXUXUXUXUX& % c 2.Z.OXG.3 I 0 ZXGX[.{.!.j >.,.&.O.$.. UXUXUXUXUXUXUX",
"UXUXUXUXUXUXUXUXUXUXUXUXUXUXUXUXUXo v 2.2.5.2.*.$.3 cXvX{.VXK d +.O.O.z b # UXUXUXUXUXUXUX",
"UXUXUXUXUXUXUXUXUXUXUXUXUXUXUXUX# 7 W n *.4.6.2.=.z s U L 3 s l O.z l s D h O UXUXUXUXUXUX",
"UXUXUXUXUXUXUXUXUXUXUXUXUXUXUXUX> S H.c.;.g c -.=.2.-.,.z l z z l d j :.m.a.% UXUXUXUXUXUX",
"UXUXUXUXUXUXUXUXUXUXUXUXUXUXUXUX, f M.J.OXOXp.e.S J J g s s g M F >.y.m.N.H O UXUXUXUXUXUX",
"UXUXUXUXUXUXUXUXUXUXUXUXUXUXUXUX~ - s s.M.M.M.J.A.M.m.>.t.t.9.9.m.t.M.y.j & ^ UXUXUXUXUXUX",
"UXUXUXUXUXUXUXUXUXUXUXUXUXUXUXUX..| 0 * m ;.u.m.m.t.y.m.m.m.V.V.V.j.M @ = | ' UXUXUXUXUXUX",
"UXUXUXUXUXUXUXUXUXUXUXUXUXUXUXUXUX' /.| r & + 2 B D F :.D V B 6   # r ` hX(.UXUXUXUXUXUXUX",
"UXUXUXUXUXUXUXUXUXUXUXUXUXUXUXUXUXUXUX' /...` P P 0 O o o   - ^ ` (.jX| UXUXUXUXUXUXUXUXUX",
"UXUXUXUXUXUXUXUXUXUXUXUXUXUXUXUXUXUXUXUXUXUX] | `.(.| | | ..(./ / UXUXUXUXUXUXUXUXUXUXUXUX"
};
