/* XPM */
static char *result[] = {
/* columns rows colors chars-per-pixel */
"45 60 256 2 ",
"   c #0C0504",
".  c #0D0A05",
"X  c #0D090B",
"o  c #080408",
"O  c #140504",
"+  c #140B05",
"@  c #1B0A04",
"#  c #130B0B",
"$  c #1A0B0B",
"%  c #160508",
"&  c #1B120B",
"*  c #161108",
"=  c #150A12",
"-  c #191314",
";  c #0F0C0F",
":  c #220C05",
">  c #260C09",
",  c #360909",
"<  c #2A150A",
"1  c #37160A",
"2  c #260B12",
"3  c #390A13",
"4  c #281413",
"5  c #351718",
"6  c #382509",
"7  c #392316",
"8  c #322B15",
"9  c #372526",
"0  c #3F2F32",
"q  c #430A0C",
"w  c #590A0A",
"e  c #47180A",
"r  c #57180C",
"t  c #480814",
"y  c #5A0B14",
"u  c #471912",
"i  c #551714",
"p  c #660A0A",
"a  c #79090C",
"s  c #63170C",
"d  c #790A12",
"f  c #6E1312",
"g  c #47250C",
"h  c #552A0C",
"j  c #472716",
"k  c #562616",
"l  c #57381A",
"z  c #4E3815",
"x  c #74240C",
"c  c #6C2815",
"v  c #782A15",
"b  c #663516",
"n  c #783917",
"m  c #69290B",
"M  c #472E29",
"N  c #50332B",
"B  c #673622",
"V  c #71382C",
"C  c #5A4413",
"Z  c #65451C",
"A  c #76481A",
"S  c #6F5419",
"D  c #5A4525",
"F  c #664724",
"G  c #774426",
"H  c #7B5925",
"J  c #736229",
"K  c #7D681C",
"L  c #623545",
"P  c #77504A",
"I  c #78624E",
"U  c #87090A",
"Y  c #98080B",
"T  c #97120A",
"R  c #9A0A15",
"E  c #971714",
"W  c #8C1012",
"Q  c #BB170B",
"!  c #BB0D13",
"~  c #A51816",
"^  c #B81414",
"/  c #AC0F0D",
"(  c #99380B",
")  c #883A16",
"_  c #973916",
"`  c #852B0C",
"'  c #B93B09",
"]  c #A8300E",
"[  c #853C27",
"{  c #A83F20",
"}  c #C5120D",
"|  c #CB180B",
" . c #D3130C",
".. c #DB130D",
"X. c #D6190A",
"o. c #D90F16",
"O. c #C81514",
"+. c #D51312",
"@. c #DB1413",
"#. c #D61618",
"$. c #C70D10",
"%. c #E21313",
"&. c #E31219",
"*. c #E4110D",
"=. c #CC2809",
"-. c #DA250B",
";. c #DA3B0B",
":. c #DA3813",
">. c #CD3012",
",. c #E5370B",
"<. c #E43A13",
"1. c #E5270E",
"2. c #D01524",
"3. c #984818",
"4. c #88571A",
"5. c #8D4915",
"6. c #B6440B",
"7. c #AB4819",
"8. c #B74914",
"9. c #AA5519",
"0. c #BD5313",
"q. c #B9551C",
"w. c #AB4E0E",
"e. c #90651B",
"r. c #B47C1D",
"t. c #AD701A",
"y. c #874724",
"u. c #974825",
"i. c #845727",
"p. c #995729",
"a. c #904E31",
"s. c #A95927",
"d. c #B95924",
"f. c #A55A35",
"g. c #AF512C",
"h. c #8A6523",
"j. c #996924",
"k. c #987924",
"l. c #936B35",
"z. c #B56829",
"x. c #A67829",
"c. c #AE6F2F",
"v. c #C44C0E",
"b. c #C9470A",
"n. c #DA4B0C",
"m. c #CB530C",
"M. c #C6560B",
"N. c #D5570C",
"B. c #C44E11",
"V. c #CA4E13",
"C. c #CC4F1A",
"Z. c #D74A16",
"A. c #C55212",
"S. c #CB5213",
"D. c #CC541A",
"F. c #C85918",
"G. c #D45413",
"H. c #D2541B",
"J. c #D35B1C",
"K. c #D65C15",
"L. c #E7450C",
"P. c #E54714",
"I. c #E95714",
"U. c #EF5510",
"Y. c #C86519",
"T. c #D66718",
"R. c #C87616",
"E. c #D87516",
"W. c #CE680D",
"Q. c #F87C0B",
"!. c #E66718",
"~. c #F56819",
"^. c #E57817",
"/. c #F97916",
"(. c #F26E0F",
"). c #CB5B25",
"_. c #D05523",
"`. c #C86327",
"'. c #D96625",
"]. c #CA7727",
"[. c #D97628",
"{. c #D47036",
"}. c #E57626",
"|. c #E3762B",
" X c #874E49",
".X c #B7635B",
"XX c #AE6660",
"oX c #CF736B",
"OX c #E3716D",
"+X c #96832E",
"@X c #BA8B26",
"#X c #B7943A",
"$X c #AB8C2E",
"%X c #A58717",
"&X c #D28D17",
"*X c #F88808",
"=X c #E7891B",
"-X c #E9971D",
";X c #EF8714",
":X c #DBAC1E",
">X c #F8B70B",
",X c #E7A71C",
"<X c #F7A918",
"1X c #FBB315",
"2X c #F6BB15",
"3X c #FBB31B",
"4X c #F5BB1B",
"5X c #FBBC1B",
"6X c #F8B816",
"7X c #F1AE15",
"8X c #D6882C",
"9X c #CA9828",
"0X c #D89729",
"qX c #DC8931",
"wX c #D59934",
"eX c #C98D2E",
"rX c #E58927",
"tX c #E89729",
"yX c #F39724",
"uX c #E98B39",
"iX c #DAAB2A",
"pX c #D6A936",
"aX c #D0AB32",
"sX c #EDA223",
"dX c #E8A828",
"fX c #F6AB26",
"gX c #E8B628",
"hX c #FBBB24",
"jX c #FBBC2C",
"kX c #F7B827",
"lX c #E9AC32",
"zX c #F2AD35",
"xX c #E8B736",
"cX c #F6BA36",
"vX c #F9C41A",
"bX c #F3C413",
"nX c #EAC628",
"mX c #FBC324",
"MX c #FCC42B",
"NX c #F8CA28",
"BX c #ECC538",
"VX c #F4C934",
"CX c #FBCB33",
"ZX c #FACD3A",
"AX c #F7C638",
"SX c #F5D238",
"DX c #F8D22A",
"FX c #B7935E",
"GX c #D69043",
"HX c #DBBA42",
"JX c #F6B844",
"KX c #C0896F",
"LX c #F8C843",
"PX c #F6D142",
"IX c #EEAD82",
"UX c None",
/* pixels */
"UXUXUXUXUXUXUXUXUXUXUXUXUXUXUXUXUX# - & UXUXUXUXUXUXUXUXUXUXUXUXUXUXUXUXUXUXUXUXUXUXUXUXUX",
"UXUXUXUXUXUXUXUXUXUXUXUXUXUXUXUXUX= - $ > # UXUXUXUXUXUXUXUXUXUXUXUXUXUXUXUXUXUXUXUXUXUXUX",
"UXUXUXUXUXUXUXUXUXUXUXUXUXUXUXUXUX% J #XF 3 % UXUXUXUXUXUXUXUXUXUXUXUXUXUXUXUXUXUXUXUXUXUX",
"UXUXUXUXUXUXUXUXUXUXUXUXUXUXUXUXUX- +XSXGXf.1   UXUXX . O UXUXUXUXUXUXUXUXUXUXUXUXUXUXUXUX",
"UXUXUXUXUXUXUXUXUXUXUXUXUXUXUXUX$ C HXPXJXuXc.5 ; * - l 1 * UXUXUXUXUXUXUXUXUXUXUXUXUXUXUX",
"UXUXUXUXUXUXUXUXUXUXX * $ = UX; & #XSXPXLXrXrXf.4 < K HXx.< O UXUXUXUXUXUXUXUXUXUXUXUXUXUX",
"UXUXUXUXUXUXUXUXUX# - J +XD < * J PXZXZXAXrX|.[.B k.LXSXxXi.$ ; + @ o . UXUXUXUXUXUXUXUXUX",
"UXUXUXUXUXUXUXUXUX2 j 9XSXnX#XF $XVXSXCXZXuX|.=Xf.@XxXDXSX].5 8 D l.- o UXUXUXUXUXUXUXUXUX",
"UXUXUXUXUXUXUXUX* < z.qXLXZXSXHXj.#X$XnXLXuX{.~.{.F h.nXLXuXb #XVXqXj . UXUXUXUXUXUXUXUXUX",
"UXUXUXUX% o UX& < p.{.rXCXDXVXpXG 6 z iXLXtX}.].G g j $XcX|.5.HXgX}.G : UXUXUXUXUXUXUXUXUX",
"UXUXUX& = 7 < $ V |.|.dXZXDXaXA i.@XD k.AXrXY.n i.9Xh.D tX|.9.BXxX|.c.4 = @ # * UXUXUXUXUX",
"UXUXUX* M aXaXF y.'.{.zXNXVXH f.wXcX9XC gXqXp.wXVXNX@X7 Y.E.tXBXe.s.[.b 8 l.l ; UXUXUXUXUX",
"UXUXUXX n lXZXpXG [ ) lXDXgXu.GXzXCXMXx.x.pX:XNXmXNX8Xg Y.sXMXgXC e z.s.4.cXA X UXUXUXUXUX",
"UXUXUX> f.tXZXBXZ 1 e pXNX,X'.qXJXZXMXnX@XBXDXMXvXVXqXb eX#XpXiXk.B k f.4.zXs.# UXUXUXUXUX",
"UXUXO j {.tXPXaXj k.l.h.xXmX].tXjXMXCXmXkXVXCXMXNXjX].n x.7 S iXgXr.g 9.t.zX{.< O UXUXUXUX",
"UXUX+ G {.lXBXj.l xXxXx.x.xXsXqXxXcXCXMXMXMXCXVXVXlXY.p.z h.z h.kX^.c w.0XlXrXj $ UXUXUXUX",
"UXUX= c.^.zXSX4.i.lXNXcXlXiXgXH S kXvXvXMXMXvXmXcXtXz.b x.xX9Xl j.].z.0XiXj.t.b @ UXUXUXUX",
"UXUX% z.!.zXVXt.p.zXMXvXmXvX@X8 6 i.xXvXmXMXmXmXcX0X5.$XAXmXfXp.C 0XvXnXe.2 3.G @ UXUXUXUX",
"$   O f.'.zXvXfXR.sXmXbXbXbXp.G GXS b %XgXkXMXvXxXj.wXmXmXMXLX].h &XkX&Xj.N n h $ 7 UXUXUX",
"; @ , [ `.gX5X3XfXhXmX>XbXmX[ s.dXgX@XH A 9XvXvX,X:XhXhXbXvXJXE.y.r.vX3XsXN 1 1 ; O UXUXUX",
"X 6 eXqXY.=XrXrXjXvXbX5X5XkXA Y.&XcXbXbXiXx.0X2X7XhX3XnX>XmXjXE.u.r.5XjX0Xb k.eXj + UXUXUX",
"  > c.rXsX^.T.E.yX4X2X5X6XhXp.'.T.sXjX4X6X3XdXjX2XvXhXbX5XjXfXT.p.eX5X3XR.4.wX`.< . UXUXUX",
"UX# a.!.-X}.Y.J.T.R.9X4X6XhX&XF.'.=X3X2XhXhX5X5X5X5XkX3XkXgXrXT.d.dXhX7X-XlXrXf.O UXUXUXUX",
"UXO b [.^.}.W.T.`.n g l.iX7X,XR.'.T.7X3XhXjX3X>XhXjX3X1XbX4X=XK.T.9X%X,X2XdX|.[ @ UXUXUXUX",
"UX& 1 {.K.!.K.J.).k l Z n j.:XfXyX-X<X2XmXkXhX2X3XdXe.@X>XyX'.`.3.7 l :X7X;X'.g & UXUXUXUX",
"UXUX> y.`.J.K.Y.d.k H dX0X@X&X,X6X1X1X2XdX=X7X>X7Xx.1 l :X-XyXt.j.D h ,XfX].u.@ UXUXUXUXUX",
"UXUX- < v 7.K.K.J.c A -X2X6XfX3X3X1XhXfX[.E.7X-Xj.h e.h @X>X6X7X=Xy.4.sXt.B 5 o UXUXUXUXUX",
"UXUXX M l.c.9.Y.K.7.` Y.=XyX^.;X<X1X<X^.F.T.^.3.V z.gXe.i.<XhXtX=XR.,Xr.x.l.8 = UXUXUXUXUX",
"UXUXo 5 s.^.rXR.J.J.0.).J.T.`.0.!.=XE.K.K.F.7.u.Y.-X1X&XA =X1X3X<X1X<XfXgX5.+ o UXUXUXUXUX",
"UXUXo 2 n '.^.}.K.F.M.H.J.K.[ k g.K.J.J.J.J.8.F.=X<X>X&X7.}.<X>X>X1X<X<Xt.j - O UXUXUXUXUX",
"UXUXX 9 M ).J.K.N.m.D.S.G.N.u 2 k 7.H._.J.D.S.K.-X<X<XE.N.T.-X1X3X<X7X=X_ 7 9 . UXUXUXUXUX",
"UXUXX - 5 n '.N.m.D._.H.S._.< 3.n c 7.S.J.G.D.K.W.E.T.H.m.8.R.<X^.yX,XF.i 9 4 + UXUXUXUXUX",
"UXUXUXO # 1 s.D.D.D.Z.D.D.D.g K.Z.8.9.F.S.D.D.F.N.S.D._.3.g m T.M.rXY.) @ -   UXUXUXUXUXUX",
"UXUXUXUXUX+ r 8.m.A.C.S.S.n.3.V.H.G.G.G.H.D.D.S.S.G.B.` k l , g.A.W.7.1 X UXUXUXUXUXUXUXUX",
"UXUXUXUXUXUX> 3.D.S.M.C.C.V.F.V.S.V.G.S.V.S.S.m.S.V.{ u._.d.r g.V.S.[ : - UXUXUXUXUXUXUXUX",
"UXUXUXUXUXUX+ 5 d._.D.H.C.q.D.A.V.G.v.B.S.v.S.S.S.m.Z.B.m.8.c d.m.q.1 O UXUXUXUXUXUXUXUXUX",
"UXUXUXUXUXUXUX& i ).S.0.A.v.S.v.V.m.V.S.A.S.V.B.v.S.V.0.M.6.7.M.q.j % UXUXUXUXUXUXUXUXUXUX",
"UXUXUXUXUXUXUX- ; e g.) 0.m.m.m.A.A.A.A.S.B.A.V.S.B.v.0.B.C.).9.u = # UXUXUXUXUXUXUXUXUXUX",
"UXUXUXUXUXUX- , t # 3 , u.F.8.6.A.B.B.v.B.v.0.B.v.B.0.8.6.7.c , 2 r : $ UXUXUXUXUXUXUXUXUX",
"UXUXUXUXUX. q ~ E 3 p u i f.` _ `.J.J.D.S.B.B.6.B.A.B.x 5 q y r 3 0.( , % UXUXUXUXUXUXUXUX",
"UXUXUXUX< f 2.1.] , U $.W t > , , e c B B B k i y.5.i s ^ %.Q d 3 M./.>.p : UXUXUXUXUXUXUX",
"UXUXUX+ w >.,.<.] , U $.&.2.^ $.O.~ E R E { _ f w p E #.&.&.! U , ] :.-.^ t X UXUXUXUXUXUX",
"UXUXo < ~ !.L.| W 3 Y } X.<.U.L.1.*.&.#.@.,.-.X.2.2.#.%.1.L.n.Y , W :.1.%.E 2 O UXUXUXUXUX",
"UXUXX i E O.O./ p q R ! ..,.Q.*X~.X.%.%.%.%.*.%.&.&.#...,./.K.T 3 d >.>.Q ~ u . UXUXUXUXUX",
"UX# 1 `.w.5.m w , t Y $.%.P.*X*X/.-.@.....#.@.....X.*.*.-.L.=.U q , p v ) q.t.1 # UXUXUXUX",
"UX* h =X;X;XA._ q t R Q #.<.Q.*XU.X.#.@.@.@.X...*.%.%...O.+.! Y t w ) F.;X^.^.g ; & & & UX",
"UX; 4 k A 8.6.7.s y R $.+.+.1.1.X.+.o.&...X.-.<.-.o.o.+. .X.! R y x 7.6.w.A g + + C J z & ",
"UX. XXKX X5 $ u t f R ^ | | ....+.+.+.-.P.I.(./.<. ...*.o.} $.Y p 1 5 + . 4 0 0 7 %X4.K @ ",
"UX@ KXIXoXL L N & f T >.P.;. .o.+. . .;.Q.*X*X*XL. ... .o.} Q Y d $ N L 5 N I D = 4 < < & ",
"UX= I IXOX.XOXXX3 T T !./.P. .O. .}  .P./.*X*X*X:.+.+.I.(.U.Q Y W 1 .XOX X5 9 - X X # . UX",
"UXo - P .XoXoXN 3 R U >.Z.=.| -.:.=. .X.U.~.~.n.O.+.,.;XQ.Q.>.U R 3 V oXoX XN 2   UXUXUXUX",
"UXUXUXO = 4 4 ; t ~ U R O.#.=.!./.;.$.O.| | | | O.| n.*X(.N.T U R t ; - - = = UXUXUXUXUXUX",
"UXUXUXUXUXUXO # s Y U U Y / } U.~.=.O.O.} } O.$.$.| -.>.Q T U a W y # UXUXUXUXUXUXUXUXUXUX",
"UXUXUXUXUXUXX , x r y p a U U Y ] ~ 2.$.Q $.! ! / / Y U a a p w q ` : UXUXUXUXUXUXUXUXUXUX",
"UXUXUXUXUXUX; k 9.] v s w w p p a a d U a U a a a a a p w y r ` ( m.i   UXUXUXUXUXUXUXUXUX",
"UXUXUXUXUXUX@ k 0.n.b.6.( ( ` x r i i i r i r s r r x x ( ] 6.b.n.q.M X UXUXUXUXUXUXUXUXUX",
"UXUXUXUXUXUXUX& 5 b w.B.Z.b.b.6.6.6.' ' ' ' ' ' ' 6.b.b.v.M.M.w.m 1 # UXUXUXUXUXUXUXUXUXUX",
"UXUXUXUXUXUXUXUXO @ : u v _ 6.F._.J.G.N.N.N.m.G.G.F.0.w.( v e : + & UXUXUXUXUXUXUXUXUXUXUX",
"UXUXUXUXUXUXUXUXUXUXUX# o   O : : , e r r r r e , > : %   . + UXUXUXUXUXUXUXUXUXUXUXUXUXUX",
"UXUXUXUXUXUXUXUXUXUXUXUXo . O . + .     o       + .     # + UXUXUXUXUXUXUXUXUXUXUXUXUXUXUX"
};
