/* XPM */
static char *result[] = {
/* columns rows colors chars-per-pixel */
"70 65 63 1 ",
"  c #010101",
". c #090604",
"X c #0D0905",
"o c #0B0B0B",
"O c #120C06",
"+ c #130E0A",
"@ c #13110D",
"# c #1A120B",
"$ c #141313",
"% c #181715",
"& c #191816",
"* c #1C1C1B",
"= c #211F1D",
"- c #22211E",
"; c #28241F",
": c #201F20",
"> c #242323",
", c #282726",
"< c #2A2826",
"1 c #2C2B2B",
"2 c #312F2E",
"3 c #32302E",
"4 c #343333",
"5 c #383736",
"6 c #3A3837",
"7 c #393738",
"8 c #3C3B3B",
"9 c #413E3D",
"0 c #42403F",
"q c #444343",
"w c #494746",
"e c #4A4847",
"r c #4C4B4B",
"t c #514E4D",
"y c #52504F",
"u c #504F50",
"i c #545352",
"p c #595655",
"a c #5B5857",
"s c #595758",
"d c #5D5B5A",
"f c #615E5D",
"g c #62605F",
"h c #656362",
"j c #696665",
"k c #6A6967",
"l c #6D6B6A",
"z c #706E6C",
"x c #72706E",
"c c #726F70",
"v c #747272",
"b c #797675",
"n c #7C7877",
"m c #7C7A79",
"M c #817F7E",
"N c #83807F",
"B c #858383",
"V c #888786",
"C c #898986",
"Z c #8D8B8A",
"A c #918E8F",
"S c #959393",
"D c None",
/* pixels */
"DDDDDDDDDDDDDDDDDDDDDDDDDDD<35wyeq8rreqq62,DDDDDDDDDDDDDDDDDDDDDDDDDDD",
"DDDDDDDDDDDDDDDDDDDDDDDD318dghaahliZZAAVmcw48qwDDDDDDDDDDDDDDDDDDDDDDD",
"DDDDDDDDDDDDDDDDDDDDD6qrwqrxkzfyflrZAAAZMmshlfupeDDDDDDDDDDDDDDDDDDDDD",
"DDDDDDDDDDDDDDDDDDD5qpdhjdwjgjarys7BmMMmcluMCcffpr06DDDDDDDDDDDDDDDDDD",
"DDDDDDDDDDDDDDDDD,<0yklzblrpdgatwr4Nbnnxjp8BBjdbmzr94>DDDDDDDDDDDDDDDD",
"DDDDDDDDDDDDDDDDr1>8ykljlkdyhhfyqq6Nmnnzhi7MvpdnCVhgu6<DDDDDDDDDDDDDDD",
"DDDDDDDDDDDDDDrrr5-,0gjhhjlrljgatw0Zmbxkgiunjiijlhkzlgu3-DDDDDDDDDDDDD",
"DDDDDDDDDDDDD4qrfku=1rdddhlgxzzgpq8Cxzxkhilxdiiffqgkbmhu5*DDDDDDDDDDDD",
"DDDDDDDDDDDD4qyaglgq,5upafkcllchy73mjlzkd0mhuriseikkbMgw83:DDDDDDDDDDD",
"DDDDDDDDDDD18wiipgjp418raghhure81;=ftsfft4jiruiiwfzzzkdr3351DDDDDDDDDD",
"DDDDDDDDDhq470qwtpdaq130ruuw5<:&$oo3<1551>809wrrikvkfpiw1355,DDDDDDDDD",
"DDDDDDDDDr088660riaay3,14421:oo. . oo.oo$%*>178wfxzfttr737063-DDDDDDDD",
"DDDDDDDDe88qw78wipsau5>::*$$.            o.@$*1qjjgfiw835rpr5,>DDDDDDD",
"DDDDDDDq6<15qwwiddfdw1:%@o                  oo&1tpyir8549fxzr>1DDDDDDD",
"DDDDDDD5<:=>16rfkhpr4*$.                      .$;9qw0765pznnh8-1DDDDDD",
"DDDDDD831661:>3whgq1*o.                        .X$<9q86txbmbjy>-$DDDDD",
"DDDDD*,30pfpq429q91$.                           ..@*,20hbvljdr143DDDDD",
"DDDDD540wagjfy994,$.                              .o%1rjcjgdsdsr3&DDDD",
"DDDD8qrspfkkffy9,$X                              . .@,rhjhdhjlly1%DDDD",
"DDDD00yjhkzzgfe2=o.                               ..o:9flclvnxsw1*$DDD",
"DDDDw8qypgzvlj8:+. .                             ....$2inBNbldiy7>$DDD",
"DDD269wryipfdi1%o..                              ..X.+:9lnxzjfay9,$DDD",
"DDD,30eyppssu8:+X...                             ..XXO%4pkljjgdi8>*$DD",
"DDD;290yisddr2$oXXXX.                            ..oOo+>7iddpyr6>&%*DD",
"DD,>-<5qrrir9>@.oOOX.                            ..OOOX&>14431,::::*DD",
"DD1,=-<155652*oXO+OO.                            .XXOOX#%%%&::><141&DD",
"DD31-,,,>,>>>%.O#+OO.                            XXOOOOOo$&<5qrurq1*DD",
"DD3,*,1354>>&+OO##OO                             ..O#OOO$&1rgcllgu2$DD",
"DD346wiaprq1&+.O##OOX                            ...OOOO$*4scmlkhu2$DD",
"DD49rdggjjp6%o..#===$                            X.XXXOO@*4scvhgdr1o D",
"DD5wpapdjla6+.$295<;+.                           o%&--#X.&4skgssu0>@ D",
"DD>24458wr0<$%:4593#o                            o$*,33<@%,9q9774>%. D",
"D8eteepffsi7@$&:,54$.                            .o%>331*-9agsistq4>$D",
"DihkkjcMvcjq@o@$>53%.                             .o>3**&<ibMbvxkdt7*D",
"Dueetttissr2oo+$>1>*o                              @>3-%$>qdgggsw971*D",
"Diteeeetdgi2o..%1>*&o                             .$*>;@o;qpadsrqq94:D",
"Dreqeettkjr,.  >41::o                             o$**>& *8ruuuqqqq4:D",
"Dq770qwtpr5*. .=662=X                            ..%*:2;.*4qrqwqew91&D",
"D71>114441>$. X#<41$.                             .o>44<X&15880ww97:$D",
"D>&$%&*:*&%o..O+$&&o                             ..o*44;+@*--><11>*$oD",
"D.oo$$$&&&$@..OOO....                            ...@*;#+@$@$$%%$$@. D",
"D o@$%*::=*$..OOOXXX.                             .  .X#O%****=*:*$o D",
"D $%*>,121:%o.oO###O.                            .....X#O&--<14441*o D",
"D.*>127qw94*. OO##OO.                             ....###*<5rfhhfu3$ D",
"Do:117wudu8>X OO##@O                              ...OO#O&4rgzclhs7& D",
"D.:128rsjd0:..XO##OO.                            ....OO#@*5rfjhfsu4%.D",
"Do:248wskg9*. XO##OO.                            . .XXO#O=4rpiruuq1% D",
"D.%>,,4quq1$..XO#OOX                               ..XO@O#>4844672*$ D",
"D %>223894>$...oO#OO.                     o      ....OOOO@;3412474:$ D",
"D.1rhjjcki7*. XO#OXX.                   o     o .  ..XXOO*qjlghgjjq: D",
"D %,48651:&@X .X+#OX            o   o  o o  ooo o....XXOO*4riipweq1% D",
"Doo$*><>>:&$..X.OOOX.         o o  o o oo oo ooo.. .X.XO.-40erurq8,o D",
"D.$&,7qq993*. .X+OOX     .   o   o ooooooooooooooo.....O.:12460871&o.D",
"D &,9ufdipq>..XX#OOX. o   o o ooooooooooo$oo$$$$$... ..OX:>123441:$o D",
"D :7rsghssw: ...+OXo  o o o oooooooo$o$$$$$$$$**$o  . XOX-17qw064,&o D",
"Do*289qrqq3&...X++Xo .  .ooooooo$o$$$$$$$$*****:*$....XO.&,qsrq872*o.D",
"D $:<<1573:$....oo. o ooooo$$$$$$$$*$***::::::>>>*$ooooo.+*4q64444:$ D",
"D.4svcbZAmf4X  . o..oooooo$$$$*****::::>>>>>>1>><111>&$$O&qbSAmMBZj1 D",
"Do<qisahjfq,.  . oooooo$$$$$$*:::::>>,11111114144424331:$*3ijkgdss9*.D",
"D.,9idapfsq:.  .ooooo$$$$***::::>,1141444477847755888871&-3edgguuu7* D",
"Do>8yfptii0:.  ooo$$$$$**::::111144447888888888q00qqqq84::4qidguur4%oD",
"D.*4epyerq7*o  .o$$$*$*::>:11114447788q88qqqrqrqerrqrrq4::18riirwq1$oD",
"D &>400875,$o oo$$$$*::>>111444788qqqqqrqrrrrruuuuuuuur8>>14qwqqq7>$ D",
"DD$&=,,,>=%$   o$$**:::111477888qqqqrrruuuuuuuiiiiiissuq>1,1444441:%DD",
"DDoooooooooo  oo$&:::111447790qqrrruuuuuusssssssssdfddsq1>*$$$$$$*:>DD"
};
