/* XPM */
static char *result[] = {
/* columns rows colors chars-per-pixel */
"70 65 156 2 ",
"   c #050403",
".  c #0A0603",
"X  c #0D0905",
"o  c #0C0B0A",
"O  c #140C06",
"+  c #190F06",
"@  c #110E0C",
"#  c #180F08",
"$  c #1C1107",
"%  c #14110E",
"&  c #1D1309",
"*  c #141313",
"=  c #191614",
"-  c #1B1916",
";  c #1C1B1B",
":  c #201206",
">  c #22150A",
",  c #26190C",
"<  c #2B1C0D",
"1  c #311E0E",
"2  c #241C13",
"3  c #2C1E10",
"4  c #211E1C",
"5  c #301F10",
"6  c #2E210F",
"7  c #33210F",
"8  c #39230F",
"9  c #2E2113",
"0  c #24211E",
"q  c #28241F",
"w  c #342312",
"e  c #3B2612",
"r  c #362817",
"t  c #3D2915",
"y  c #342719",
"u  c #33291C",
"i  c #3C2C1A",
"p  c #242322",
"a  c #292624",
"s  c #2B2926",
"d  c #2C2B2B",
"f  c #362D25",
"g  c #312E2D",
"h  c #3B3024",
"j  c #33312E",
"k  c #3A342D",
"l  c #3F382E",
"z  c #343333",
"x  c #393635",
"c  c #3B3936",
"v  c #393738",
"b  c #3C3B3A",
"n  c #402711",
"m  c #432C16",
"M  c #4A2E16",
"N  c #442E19",
"B  c #492F19",
"V  c #473017",
"C  c #4C3116",
"Z  c #44311C",
"A  c #4B331A",
"S  c #4F381C",
"D  c #513317",
"F  c #52351B",
"G  c #59361B",
"H  c #543A1E",
"J  c #5A3C1E",
"K  c #603E1F",
"L  c #423523",
"P  c #4C3721",
"I  c #4C3922",
"U  c #41372A",
"Y  c #513620",
"T  c #553C22",
"R  c #5A3F23",
"E  c #493F36",
"W  c #413E3D",
"Q  c #643D26",
"!  c #4B402F",
"~  c #564025",
"^  c #5C4124",
"/  c #5E4429",
"(  c #4E4333",
")  c #43413E",
"_  c #48463F",
"`  c #51473E",
"'  c #624323",
"]  c #664925",
"[  c #634629",
"{  c #6B442A",
"}  c #654A2C",
"|  c #6B4C2D",
" . c #724E2E",
".. c #6D512E",
"X. c #72532F",
"o. c #684F30",
"O. c #744D31",
"+. c #6B5131",
"@. c #755334",
"#. c #795635",
"$. c #7C5937",
"%. c #7A5939",
"&. c #444342",
"*. c #494745",
"=. c #4B4947",
"-. c #4D4B4A",
";. c #504741",
":. c #554E45",
">. c #514E4D",
",. c #52504E",
"<. c #5A534C",
"1. c #504F50",
"2. c #555352",
"3. c #595655",
"4. c #5B5856",
"5. c #595758",
"6. c #5D5B5A",
"7. c #645C53",
"8. c #615E5D",
"9. c #685F58",
"0. c #6A6156",
"q. c #63615E",
"w. c #6A635C",
"e. c #72655B",
"r. c #74685D",
"t. c #656362",
"y. c #696665",
"u. c #6B6966",
"i. c #6D6B6A",
"p. c #726A62",
"a. c #786D62",
"s. c #716E6C",
"d. c #7D7267",
"f. c #72706E",
"g. c #7A746D",
"h. c #726F70",
"j. c #747272",
"k. c #797674",
"l. c #7C7976",
"z. c #7C7A7A",
"x. c #81776F",
"c. c #847B74",
"v. c #887D75",
"b. c #817F7E",
"n. c #84817D",
"m. c #89837D",
"M. c #93867A",
"N. c #848382",
"B. c #888786",
"V. c #898986",
"C. c #8D8B8A",
"Z. c #918E8F",
"A. c #98928D",
"S. c #949392",
"D. c #9D9D9D",
"F. c None",
/* pixels */
"F.F.F.F.F.F.F.F.F.F.F.F.F.F.F.F.F.F.F.F.F.F.F.F.F.F.F.k k c *.>.-.&.b -.-.*.*.&.v g s p F.F.F.F.F.F.F.F.F.F.F.F.F.F.F.F.F.F.F.F.F.F.F.F.F.F.",
"F.F.F.F.F.F.F.F.F.F.F.F.F.F.F.F.F.F.F.F.F.F.F.j j g b 6.q.y.4.4.t.i.2.C.C.Z.C.B.z.h.*.z b &.*.F.F.F.F.F.F.F.F.F.F.F.F.F.F.F.F.F.F.F.F.F.F.F.",
"F.F.F.F.F.F.F.F.F.F.F.F.F.F.F.F.F.F.F.F.F.c _ >.=.W =.f.i.i.6.2.8.i.*.C.C.Z.Z.C.N.k.5.t.i.6.1.5.-.F.F.F.F.F.F.F.F.F.F.F.F.F.F.F.F.F.F.F.F.F.",
"F.F.F.F.F.F.F.F.F.F.F.F.F.F.F.F.F.F.F.c *.3.6.t.y.6.*.u.q.t.6.-.2.4.b N.b.b.b.z.h.i.1.b.V.h.6.8.2.=.W b F.F.F.F.F.F.F.F.F.F.F.F.F.F.F.F.F.F.",
"F.F.F.F.F.F.F.F.F.F.F.F.F.F.F.F.F.s s &.1.i.i.i.k.i.-.3.6.t.4.-.=.-.z b.k.k.z.h.t.4.b N.N.t.t.j.z.h.-.W z p F.F.F.F.F.F.F.F.F.F.F.F.F.F.F.F.",
"F.F.F.F.F.F.F.F.F.F.F.F.F.F.F.t.-.g p b 1.u.i.u.i.i.6.,.t.t.8.>.&.&.x N.z.z.l.i.t.2.b b.j.3.4.z.B.B.t.8.1.v s F.F.F.F.F.F.F.F.F.F.F.F.F.F.F.",
"F.F.F.F.F.F.F.F.F.F.F.F.F.F.,.-.=.z p p ) t.u.t.t.u.i.1.i.y.q.3.-.=.&.C.z.l.j.i.8.2.1.z.i.>.2.y.i.y.t.i.i.q.1.g 0 F.F.F.F.F.F.F.F.F.F.F.F.F.",
"F.F.F.F.F.F.F.F.F.F.F.F.F.c &.=.8.i.1.4 d =.6.6.6.t.i.6.s.i.s.y.3.&.b V.f.i.i.u.t.2.i.s.8.2.2.8.8.&.t.i.z.z.t.1.x 4 F.F.F.F.F.F.F.F.F.F.F.F.",
"F.F.F.F.F.F.F.F.F.F.F.F.x &.,.4.q.i.y.&.p v 1.2.5.8.u.h.i.s.f.t.>.b g z.y.u.s.u.6.&.z.t.2.>.2.3.-.1.y.s.z.z.t.*.b z p F.F.F.F.F.F.F.F.F.F.F.",
"F.F.F.F.F.F.F.F.F.F.F.j b =.2.2.4.q.t.3.z g b 1.4.q.t.t.1.-.=.b d p p 6.,.3.9.8.>.z t.2.-.-.2.2.*.7.s.s.s.y.6.-.g j z g F.F.F.F.F.F.F.F.F.F.",
"F.F.F.F.F.F.F.F.F.t.*.x v &.&.*.-.3.6.5.&.d g W -.1.-.=.v a 0 - * o o z d j x x z p b W W *.-.-.5.y.h.u.6.5.2.&.d g v x d F.F.F.F.F.F.F.F.F.",
"F.F.F.F.F.F.F.F.F.,.) b b x b W -.2.4.4.1.g s d z x z d 4 * o . .     - % % = = - - p p d x b *.q.s.s.t.1.>.-.v g b W b d 0 F.F.F.F.F.F.F.F.",
"F.F.F.F.F.F.F.F.-.b b *.&.b b *.1.4.4.4.1.x p ; ; ; - - % O X O O .   2 , & $ $ , 2 % - - 4 d &.t.y.t.8.2.&.W z x -.3.-.x d 0 F.F.F.F.F.F.F.",
"F.F.F.F.F.F.F.=.v s d v &.*.*.1.6.6.8.6.*.g p - * o X = % $ & , > O   I i w w w t t , 9 2 = ; g 1.3.1.2.=.b x g W 8.s.s.-.p d F.F.F.F.F.F.F.",
"F.F.F.F.F.F.F.v d ; ; p d v -.8.u.t.4.-.z ; * o . . O 9 < 7 e e 1 $ X +.T A V V Y J 1 Z w & % - p W &.*.&.b b v 3.s.z.z.t.b 0 g F.F.F.F.F.F.",
"F.F.F.F.F.F.W g g v v d 0 p z *.t.8.*.g ; o X X X @ , Z i t t n e $ X +.H F H H ^ ' 8 ^ N < , & % ; d v &.b x -.j.k.z.j.u.>.p 0 * F.F.F.F.F.",
"F.F.F.F.F.0 a z &.2.6.3.&.z z x =.&.d = o . . O + : 5 R A N m m e $ . +.J F H R ^ K n ..H 7 7 , , # * 4 s g &.t.j.j.i.y.8.-.d z z F.F.F.F.F.",
"F.F.F.F.F.c z W *.6.y.y.6.,.&.b z p - o   X O & > > e o.Y m m m w $ o +.T H H H K K n X.^ V i e 3 $ X @ - d -.y.s.y.8.6.4.4.4.=.g ; F.F.F.F.",
"F.F.F.F.W *.-.5.3.6.u.i.q.8.,.b p = o . X O & 2 1 1 i +.Y m m m 8 + . o.H H J R R J n X.^ A V i t , O # * s -.t.y.t.8.t.y.i.i.1.d * F.F.F.F.",
"F.F.F.F.&.W 1.y.t.y.s.f.t.q.*.d ; % . o # $ > w w w t @.T n N M 8 + . | H H T H J F t X.^ C A V B 9 $ & = 4 W 8.i.j.i.j.z.s.6.=.g ; * F.F.F.",
"F.F.F.F.=.b _ ,.3.t.s.j.i.t.b 4 % . X % & , 3 e m n N #.R M B B w $ . } A H H Y J D t ..^ D V V A w > 3 2 - g 2.z.N.b.k.i.6.3.1.v p * F.F.F.",
"F.F.F.x b b =.-.2.2.3.4.6.2.g = o . O 2 3 < w N B M N #.R B B Y 8 O . } H F F F H V 8 ..' S H S Y t > i w & p W i.z.j.i.t.8.5.2.W s * F.F.F.",
"F.F.F.s x b =.,.3.2.5.5.2.b 4 @ . X & 9 w w m B B M N #.R B B m 8 $ . } A H F C V M 8 ] ^ D D S R M < A i = 2 z 2.i.i.y.y.8.6.2.v p ; = F.F.",
"F.F.F.a g b _ ,.2.5.6.5.1.g = o X O , y e e m A G B N #.R B m m 7 % . } A S S V S V 8 | J C S S T V 1 R P , - p b 1.6.8.3.>.-.c p * ; ; F.F.",
"F.F.g a p d z &.=.1.2.-.W p % @ O $ 9 i Z t M V F D V %.Q B N N e O . } A A A A S t 7 ] K C S S H D 8 [ ~ < & - p d z z z d p p ; p p ; F.F.",
"F.F.k s ; p d d z v v v g ; o o $ & w I A t m V F D V %.R B n B 7 + . | F A V B C 8 < ' J D C S F D 8 } / w , = = = * ; ; p p a d z d * F.F.",
"F.F.z d 0 p p p p s p p p = X O & , r ~ T M M N F F V %.T B m m 8 O . ..V N B N V 7 6 J H C C S F C 1 } } t < $ @ * = p z W -.1.-.&.d ; F.F.",
"F.F.j s 4 a d z z g s 0 ; % O % , , t / H M M N J F B $.G m m n 7 O . | A B N m n 6 6 J S V V C F C 8 } } i 3 & * - g -.t.h.h.i.8.1.z * F.F.",
"F.F.z z x &.2.4.5.1.W z = @ X & < < i } ^ V V V G F m $.G M m n 1 O X | V N B t n 6 < J F V Z V A M 8 | | V 7 , * ; z 5.h.z.h.y.t.1.d * F.F.",
"F.F.z b >.6.8.t.y.y.3.v - o O & 6 7 Z ..[ A C A J G m #.G M m e < O . | A A B t t < < G F V m m A M 1 | | V e < * ; v 5.h.h.t.t.8.-.d o   F.",
"F.F.x =.3.4.3.6.y.i.5.x * @ O & w e A ../ S V A J G m @.F m m m 1 O . | A V B e t < , S F V m V V D e | } m e 6 & 4 z 2.y.t.2.5.1.W p o   F.",
"F.F.p g x z x b *.-.W d o O O , e e A ..^ D V V G D t  .Y n m m 1 O X | F A N t 8 < , A D V m m A D e | [ n t 6 & - d W &.W v v z p * o   F.",
"F.b *.>.-.-.5.8.6.6.2.z X X # , i t A ..T C B m F D t { C t V V 1 O . | F A B m e < & D S V V Z A V 8 } [ n m w $ 4 b 4.t.5.3.2.1.&.z p * F.",
"F.2.t.t.y.y.h.b.j.s.t.&.* O # < V V A ..T N t m F D t Q V m i t < O . | A A B t 8 , $ F S V V A S M 7 ] [ m m w $ a 3.j.z.z.j.j.i.5.1.v ; F.",
"F.1.-.-.>.-.:.1.4.3.-.z o X # < V A Y +.S m m m D B e Q M m V t 1 O .  .F A N e e < & S S V V A F D e ] ] B N e & a *.6.8.t.8.5.*.W v d ; F.",
"F.2.-.*.-.-.-.>.8.t.2.g X X + < A A A ..A t N B G B e [ V V i t < O .  .F B N e e < > S A V V A H D n } ] V V e > a &.3.5.6.5.-.&.&.W z 4 F.",
"F.-.*.*.*.*.-.1.u.u.-.a o . # 3 A Z V [ B 1 e n m n e R t t t e < O X | N t e 5 w , $ V m 8 t V Z m 1 R R m n w % p b -.2.2.1.&.&.*.&.z p F.",
"F.&.v v &.&.*.1.3.-.x ; .   @ + e e e A 5 > < < 1 1 < B 6 6 6 6 $ O   F 1 < < < , $ X 7 6 < 6 6 w 1 > B N 1 < : O 4 z &.*.*.&.&.*.*.W d * F.",
"F.v d p d d g z g d 4 * o @ a ) 7.a.x.M.v.c.c.c.v.c.g.d.w.0.<.` k 2 O e.9.w.9.p.e.<.:.0.0.0.0.w.e.e.w.a.r.7.:.c 0 0 g v b b W *.*.W z p * F.",
"F.p = * ; ; ; 4 ; ; * * o @ p W >.8.i.k.h.g.k.k.b.v.N.v.g.g.g.p.<.s @ A.N.c.x.k.f.7.3.q.q.q.w.w.w.w.8.q.9.3.=.c 4 ; ; 4 p p s d d p ; * o F.",
"F.o o o * * * ; = ; * o o o ; g c W &.=.>.3.3.=.*.=.<.p.n.i.8.4.=.p @ C.u.7.w.s.q._ W W ) _ <.3.*.W W b W _ -.j - * * * * * * * * * o o   F.",
"F.  o o * * ; ; p ; ; * o = p g W ) *.=.:.8.q.;.x f c q.D.i._ j q @ . 7.c c 6.n.N.=.k f j W 2.q.) x j g k =.q.z = = ; ; ; ; ; ; 4 ; * o   F.",
"F.  @ ; ; p d d g d p * o   * * = - - 4 ; 4 g a 4 s _ 4.n.t.-.j ; .   z 0 z 3.i.f.,.l 0 % = 0 s 2 @ @ @ O ; a 2 o = ; p d g z z g d ; o   F.",
"F.. ; p d g v &.*.&.g ; o     o O O O # O O X O o j u.=.) -.2.b -     # 4 1.3.&.*.>.3.0 O X X X X .   O X X X .   = s v -.6.t.y.8.1.z *   F.",
"F.o p d g v *.1.6.1.b p X   . O > : & w + + + + O =.S.v b ) 4.,.a     > f s.t.v ) &.z.l , & O O + X . : > + + O o ; g *.6.h.h.i.t.5.b ;   F.",
"F.o ; d g b -.5.t.8.) 4     O > e e 5 P w , , > , ! b.4.W -.u.q.f O   y f t.i.-.&.5.N.( 6 6 6 6 < + + < 7 < < : O ; z 1.6.i.t.6.5.1.z *   F.",
"F.o p d z v *.5.i.8.W 4 X X # , B m i / B 1 1 1 6 h 2.i.k.j.s.<.f X   N y =.t.f.j.j.u.! r e 8 r w > + w i 8 t < & 0 z 1.2.5.1.1.-.&.d *   F.",
"F.  * p s d z W 1.&.g *   X # < N m N [ A 8 w 5 6 q g -.i.i.,.k 2 O   Z 3 s *.8.i.t.c k i t t t e , $ e m t M w , - p z b z g v z z ; *   F.",
"F.  * p g g z b W z p *   . # 3 t t N / N w w 1 < , % - a d a 9 > O . h 9 & = q s d % i t e r t w , + w i m m 8 & = p z z d g z z z p *   F.",
"F.o d -.t.y.t.h.i.2.b ; o o # < m e t T i w < < < , $ O X . O , > O . i 6 & O . . . O i t 7 e w w , > e m n m 7 , 0 =.t.i.8.t.t.y.y.&.;   F.",
"F.o * s z b b x d p * o . X # , i t e P t 3 < 3 < , , w & & , 3 , O   h 9 6 & % O O O Z i w w e w > $ y m t m 7 & q x =.3.3.2.=.*.&.d *   F.",
"F.  o * ; p s p p ; ; * o . # , e w e Y y < < < < < , h w w w 9 > X   i 9 < < & > & $ Z i 7 w w w > : y i m t w & q z ) *.-.1.=.*.b p *   F.",
"F.  o ; a v &.&.W b g ;   . O , w 3 e Y 9 < < < 7 , , h 7 t t 9 & X   i < < , & , , O V t 9 w w w $ $ y t e t 7 = p d g z v W b v d ; o   F.",
"F.o ; d W 1.6.8.5.3.&.p o . O , w 3 w Y w < , < < , > i 6 e w 3 > X   i 3 , & , & > O i e w w e w $ % 9 w w e < & p s s d z z g d p *     F.",
"F.  4 z -.5.8.8.4.5.&.p . . O & 3 < w P r < , < < , & i 6 w w 9 , .   r 2 , , , , & O r 9 6 w w w & # 9 w 5 w < & q s v *.&.&.v z a = o   F.",
"F.o ; g b &.&.-.&.&.z ;     O & , , 3 Z 9 , , < < , & y < w w 9 , .   9 , , & & & & O 9 9 6 6 9 3 $ # 9 y < < < $ 4 s &.5.1.&.b v d ; @   F.",
"F.  * ; s d d x v g p *   . X O , & 6 Z 9 , , , < > & u < 9 9 3 & .   9 , , , & > $ O 9 < , < 9 3 > + q 5 , , < $ % ; x *.v z z z z p *   F.",
"F.  z 5.h.h.k.C.Z.z.6.z o   X # , & < i < , > , , & & w < < 9 < & .   9 2 < < & $ : O < < , < 9 5 , + 3 w < , > $ 4 &.k.S.V.z.b.N.C.t.d   F.",
"F.o a &.2.5.6.t.y.6.&.a . . X O , & < r < & & & & & $ w < < 6 , $ .   9 , , , & + + O , , , < < 5 , & 5 w < < > $ ; j 1.y.t.t.6.5.5.b ;   F.",
"F.o s &.2.4.3.3.8.5.&.p o . X O & $ , r , & , , , & % w , 9 < , O .   9 , < < & + O X < , & , < 3 > > 5 5 < < , O 4 g -.6.8.8.2.1.1.v ;   F.",
"F.o p b ,.6.3.>.3.2.b p     X O > & & w > & & , > $ $ y , < < , + .   9 , < , % O O X < , > > , 3 > $ 5 w < , , o ; z &.2.6.8.1.1.-.z ;   F.",
"F.o ; z =.2.2.=.=.&.v ; .   . O & $ & w > $ > > & $ $ r > < 6 > O .   9 & < > + O O X < > : > , , > $ 5 w < < , @ ; d b 1.2.2.-.*.&.d *   F.",
"F.  * p x &.) W c x s * .   X O & $ & 9 > $ & > & $ & i & < < > + .   6 > > & + X O O < , + $ , > > + w w < < , # - p z &.-.&.&.W v p * o F.",
"F.F.* ; ; a a p p 0 - @     X O & $ & 9 & $ $ & , $ $ i > , , > O     6 & $ + O O O . < < > : > , > # 3 w 1 < > # - p d z z z z z d ; % F.F.",
"F.F.o o . o o o o o @ o .   X # > + > w > + + > > + & N > > > $ O     < > + O O O + . 8 1 > : > > : + 7 e , , > O + % % * * * * * * % X F.F."
};
