/* XPM */
static char *result[] = {
/* columns rows colors chars-per-pixel */
"56 60 256 2 ",
"   c #050504",
".  c #0C0403",
"X  c #050B03",
"o  c #0C0B04",
"O  c #060C0B",
"+  c #0C0A0B",
"@  c #08050B",
"#  c #130504",
"$  c #1B0402",
"%  c #140B05",
"&  c #1A0B04",
"*  c #14050B",
"=  c #140B0B",
"-  c #1C0C0A",
";  c #1A060B",
":  c #0B1305",
">  c #0C140C",
",  c #0C1B0C",
"<  c #061705",
"1  c #141003",
"2  c #151209",
"3  c #1B130B",
"4  c #181609",
"5  c #050414",
"6  c #0A0615",
"7  c #1A0B17",
"8  c #1D1314",
"9  c #1C1B11",
"0  c #171B16",
"q  c #091412",
"w  c #230A05",
"e  c #220B0C",
"r  c #270807",
"t  c #370E07",
"y  c #23120C",
"u  c #2C130C",
"i  c #281407",
"p  c #38150A",
"a  c #231513",
"s  c #241D13",
"d  c #281817",
"f  c #321313",
"g  c #381B17",
"h  c #290D16",
"j  c #0B2408",
"k  c #182C0C",
"l  c #132A15",
"z  c #1A2817",
"x  c #1B3319",
"c  c #10350A",
"v  c #262318",
"b  c #392619",
"n  c #243817",
"m  c #322A0F",
"M  c #361C23",
"N  c #291C24",
"B  c #1E3822",
"V  c #192328",
"C  c #252424",
"Z  c #382A25",
"A  c #273927",
"S  c #3E352A",
"D  c #461A16",
"F  c #481D0E",
"G  c #49260D",
"H  c #5B2A0A",
"J  c #432414",
"K  c #492718",
"L  c #582817",
"P  c #593317",
"I  c #4A321C",
"U  c #662C0D",
"Y  c #622D1D",
"T  c #672A17",
"R  c #702B1B",
"E  c #673416",
"W  c #743719",
"Q  c #64320C",
"!  c #601F20",
"~  c #472A26",
"^  c #572D27",
"/  c #483529",
"(  c #583827",
")  c #503132",
"_  c #622B25",
"`  c #672927",
"'  c #742B28",
"]  c #683722",
"[  c #7A3D26",
"{  c #763939",
"}  c #6B2F35",
"|  c #531D20",
" . c #1A5A0D",
".. c #194D13",
"X. c #284717",
"o. c #29581C",
"O. c #2C5311",
"+. c #1D6612",
"@. c #196D0A",
"#. c #2B6718",
"$. c #37691D",
"%. c #2F6F14",
"&. c #1C5C2B",
"*. c #294728",
"=. c #384C2B",
"-. c #255425",
";. c #2C5425",
":. c #2D5924",
">. c #25542A",
",. c #2B542C",
"<. c #25592C",
"1. c #2C5A2C",
"2. c #225924",
"3. c #325B24",
"4. c #31562D",
"5. c #335A2D",
"6. c #375828",
"7. c #334A36",
"8. c #2D5532",
"9. c #2D5A31",
"0. c #285735",
"q. c #335632",
"w. c #335A32",
"e. c #33553B",
"r. c #355B3A",
"t. c #3B5C3A",
"y. c #3C5A37",
"u. c #2C4735",
"i. c #2B6527",
"p. c #33642C",
"a. c #396728",
"s. c #39772B",
"d. c #2B6233",
"f. c #386737",
"g. c #3D7734",
"h. c #2D7322",
"j. c #44661E",
"k. c #554739",
"l. c #4B4F36",
"z. c #784E28",
"x. c #694F3D",
"c. c #43682C",
"v. c #467728",
"b. c #497339",
"n. c #4B7238",
"m. c #674B1F",
"M. c #3E6042",
"N. c #3C5042",
"B. c #534943",
"V. c #6E5551",
"C. c #486A48",
"Z. c #48764A",
"A. c #55794A",
"S. c #567856",
"D. c #4F7D55",
"F. c #766547",
"G. c #6B6540",
"H. c #5A7961",
"J. c #87361B",
"K. c #833B23",
"L. c #894518",
"P. c #995716",
"I. c #924A13",
"U. c #A7571C",
"Y. c #AD4C14",
"T. c #8B5827",
"R. c #9C5A26",
"E. c #885535",
"W. c #904B2C",
"Q. c #A65525",
"!. c #A86128",
"~. c #AE651F",
"^. c #855747",
"/. c #8E5044",
"(. c #91724F",
"). c #857865",
"_. c #9E726B",
"`. c #AC786D",
"'. c #A06555",
"]. c #CF7871",
"[. c #E5786D",
"{. c #3E8526",
"}. c #308614",
"|. c #5CBD1D",
" X c #56BA1F",
".X c #4FA21C",
"XX c #62BF1C",
"oX c #66BF1A",
"OX c #478828",
"+X c #569629",
"@X c #548732",
"#X c #5A9937",
"$X c #4D8B2C",
"%X c #6C992E",
"&X c #57A62D",
"*X c #5DBC23",
"=X c #58B729",
"-X c #4EA629",
";X c #62BE22",
":X c #65BC29",
">X c #68A635",
",X c #6AB536",
"<X c #74BE35",
"1X c #67AA2A",
"2X c #4F8B1F",
"3X c #5DC114",
"4X c #64C21C",
"5X c #6BC41D",
"6X c #69C514",
"7X c #71C41E",
"8X c #79CA1C",
"9X c #73CC1A",
"0X c #7ED41D",
"qX c #5BC027",
"wX c #65C123",
"eX c #6CC422",
"rX c #64C22C",
"tX c #6CC32A",
"yX c #6CC827",
"uX c #72C623",
"iX c #75C923",
"pX c #7BCA25",
"aX c #73C42A",
"sX c #76C929",
"dX c #7BCC2A",
"fX c #79C429",
"gX c #78D429",
"hX c #7CC936",
"jX c #78D435",
"kX c #6EC135",
"lX c #588846",
"zX c #558655",
"xX c #529050",
"cX c #64954B",
"vX c #5EA144",
"bX c #75BA4A",
"nX c #5C8D63",
"mX c #689165",
"MX c #75A266",
"NX c #79C546",
"BX c #85B73A",
"VX c #86D82A",
"CX c #88CB3A",
"ZX c #84D437",
"AX c #94DB37",
"SX c #87D128",
"DX c #B0866A",
"FX c #A0885E",
"GX c #C1A27F",
"HX c #E4AF78",
"JX c #8DCE49",
"KX c #D68180",
"LX c #DBA98A",
"PX c #F5B299",
"IX c #F5C198",
"UX c None",
/* pixels */
"UXUXUXUXUXUXUXUXUXUXUXUXUXUXUXUXUXUXUXUXUXUXUXUXUXUXUXUXUXUXUXUXUXUXUXUXUXUXUXUXUXUXUXUXUXUXUXUXUXUXUXUXUXUXUXUX",
"UXUXUXUXUXUXUXUXUXUXUXUXUXUXUXUXUXUXUXUXm.s - = - a I UXUXUXUXUXUXUXUXUXUXUXUXUXUXUXUXUXUXUXUXUXUXUXUXUXUXUXUXUX",
"UXUXUXUXUXUXUXUXUXUXUXUXUXUXUXUXUX(.a o n j.%X%X%X@Xn % % k.UXUXUXUXUXUXUXUXUXUXUXUXUXUXUXUXUXUXUXUXUXUXUXUXUXUX",
"UXUXUXUXUXUXUXUXUXUXUXUXUXUXUXUXN o X.1XAXAXAXAXAXAXAXBXj.: 2 UXUXUXUXUXUXUXUXUXUXUXUXUXUXUXUXUXUXUXUXUXUXUXUXUX",
"UXUXUXUXUXUXUXUXUXUXUXUXUXUX/ . X.BXJXVXVXAXZXCXVX0X0XSXCXCXc.6 s UXUXUXUXUXUXUXUXUXUXUXUXUXUXUXUXUXUXUXUXUXUXUX",
"UXUXUXUXUXUXUXUXUXUXUXUXUXs > @XJXAXVXhXVXgXpXpXdXdXpXpXpXdXSX>Xj # UXUXUXUXUXUXUXUXUXUXUXUXUXUXUXUXUXUXUXUXUXUX",
"UXUXUXUXUXUXUXUXUXUXUXUXo n CXVXgXdXpXSX8XpX8X8X8XpXpXiX9X8X8X8XhXa.X UXUXUXUXUXUXUXUXUXUXUXUXUXUXUXUXUXUXUXUXUX",
"UXUXUXUXUXUXUXUXUXUXUXo 3.CX8XsXdXSXpXpXiX9XiXfXfXpX8X8XfXfXuX9X9XfXc.o UXUXUXUXUXUXUXUXUXUXUXUXUXUXUXUXUXUXUXUX",
"UXUXUXUXUXUXUXUXUXUXO c.ZXSXaXpXiXfXiXfXiXiXpXaXiXiXpXaXiXiXiX7XuXiX7X+XX b UXUXUXUXUXUXUXUXUXUXUXUXUXUXUXUXUXUX",
"UXUXUXUXUXUXUXUXUX* o.JXpXiXuXaXpX7XiXuXiXuXiXsXiXuXiXpXiXiX7X7XiX5XiXaXn.X UXUXUXUXUXUXUXUXUXUXUXUXUXUXUXUXUXUX",
"UXUXUXUXUXUXUXUX. B <XoX9XuXuXaXuXuXuXiXiXuXiXsXdXiXuXuXuXuXuX7X5XiXuXiXfX$.. UXUXUXUXUXUXUXUXUXUXUXUXUXUXUXUXUX",
"UXUXUXUXUXUXUXf , %XfXiXiXaXuXuX7X7XoXiXuX5XpXaXhXiXuXeXeXiXuX5XiXeXeXeX9XfXl 6 UXUXUXUXUXUXUXUXUXUXUXUXUXUXUXUX",
"UXUXUXUXUXUXZ = a.dXuXuX:XaXuXuXeXuXuX5XeXuXuXaXfX5XsXeXuXuX4X5XeX5XeX9X5XpXOX0 a UXUXUXUXUXUXUXUXUXUXUXUXUXUXUX",
"UXUXUXUXUXUX+ A 2XjXoXuXuXuXuXtXtX5XeXeXeXeXeXaXsXtXeXeXyX5XeX5XuX5XeX5X5XaX1X;.+ UXUXUXUXUXUXUXUXUXUXUXUXUXUXUX",
"UXUXUXUXUX0 x 6.#XjX9X7X<XtXtX5XeXtXeX5X6XwXtXtXtXeXeX4XyX6X6XeX6X7XrXeXoXsXkXi.u.. UXUXUXUXUXUXUXUXUXUXUXUXUXUX",
"UXUXUXUXUX6 t.6.#XgXaXoX5X5X5X;X5XwXwXwX4XeXtXwXaX;X4X4X4XwXwXkX6X6XtX6X4XgX,X:.l.z a UXUXUXUXUXUXUXUXUXUXUXUXUX",
"UXUXUXUX* 7.a.5.s.gXNX:X4X4X4X4XXX4X3XrXrX4X6XrXwX4X4XXXXXoXXX=XwXwXwX3XgXjX@X5.y.w.o UXUXUXUXUXUXUXUXUXUXUXUXUX",
"UXUXUXI 0 f.6.w.p.,XgXgXyXrX4X3X*X;X|.4X:X;X4X*XwX|.4X3X|.6X.X.X|.rXtXgXgXNXa.y.e.p.A 2 UXUXUXUXUXUXUXUXUXUXUXUX",
"UXUXUXo y.:.6.r.r.a.1XjXZXgXyX*X-XOX;XoXqX*XqX*XwX|.|.|.qXvX .&X4XgXgXjXbX$.f.r.w.:.C.: UXUXUXUXUXUXUXUXUXUXUXUX",
"UXUXZ > C.6.w.w.q.4.i.@XhXgXgXjXjX#.$X,XwX*XrXqX|.4X*X=X=X@X..NXgXjXZX>X$.i.y.w.w.w.C.A 4 UXUXUXUXUXUXUXUXUXUXUX",
"UXUXo N.5.q.e.w.3.q.e.w.i.OX:XgXdXNXX.g..X X3X=X3XqX=X=X}.v.f.NXrX+Xh.9.w.r.w.5.w.r.w.C.o UXUXUXUXUXUXUXUXUXUXUX",
"UXUXq b.4.w.5.4.q.w.6.5.w.5.6.a.OX&X3.y.p.{.|.*X=X=X-Xh.zXl n.a.p.r.q.6.5.4.w.w.5.w.8.C.z d UXUXUXUXUXUXUXUXUXUX",
"UXy A f.4.5.4.4.4.4.q.5.q.,.1.:.w.e.q.< H.w.s.=X-Xs.1.zXA l 5.$.w.9.q.5.5.4.5.4.q.q.1.9.n.. UXUXUXUXUXUXUXUXUXUX",
"UXo C.1.w.q.,.,.q.q.6.5.8.8.w.,.q.e.;.n x zX9.i.d.i.lXy.q 7.,.;.9.q.q.5.q.,.w.w.4.4.:.9.C.O UXUXUXUXUXUXUXUXUXUX",
"UXX D.1.1.,.,.8.,.8.4.q.,.8.8.8.o.>.3.,.< a.b.e.M.cXB < =.q.q.,.,.9.w.8.9.,.9.w.8.4.1.<.C.z UXUXUXUXUXUXUXUXUXUX",
"UX< b.8.8.,.,.8.,.8.q.8.q.8.8.q.,.5.,.e.B < mXlXS.l > u.8.,.8.q.8.5.q.w.8.8.8.8.w.1.,.r.i.*.8 UXUXUXUXUXUXUXUXUX",
"UX< b.,.,.,.8.,.,.0.,.,.,.,.4.4.e.;.4.6.7.q 7.x < x 7.8.1.1.1.,.4.;.8.,.,.,.,.8.9.9.4.0.p.*.7 UXUXUXUXUXUXUXUXUX",
"UXo D.2.>.,.,.,.,.,.,.,.,.,.8.,.q.4.,.,.,.*.< j *.,.<.,.1.>.<.8.8.8.8.8.0.,.=.q.1.2.y.1.Z.z UXUXUXUXUXUXUXUXUXUX",
"UX3 *.Z.>.>.>.,.*.,.>.,.>.,.,.,.9.,.,.,.,.,.4.q.8.9.,.,.<.8.>.,.,.*.,.,.4.-.,.8.8.4.,.f.C.o UXUXUXUXUXUXUXUXUXUX",
"UXUX+ C.f.1.>.>.,.,.,.>.>.,.>.,.,.,.,.4.-.,.q.,.q.1.,.,.>.=.,.,.,.1.1.;.4.>.>.<.8.7.9.nX, UXUXUXUXUXUXUXUXUXUXUX",
"UXUXUXX S.r.>.>.,.,.,.,.,.*.,.,.,.,.,.,.,.,.9.y.,.,.,.,.>.,.,.,.>.1.>.,.>.0.>.-.-.d.zXz 3 UXUXUXUXUXUXUXUXUXUXUX",
"UXUXUXs , S.f.&.-.>.,.,.>.,.,.,.>.,.,.,.,.,.9.w.,.1.,.,.,.,.>.<.0.<.4.u.B u.8.o.i.zXx + UXUXUXUXUXUXUXUXUXUXUXUX",
"UXUXUXUXv : A.Z.<.-.,.,.,.,.,.,.,.,.>.,.>.>.,.w.,.,.,.,.>.>.>.<.8.7.z 3 p z 9.g.zXl 9 UXUXUXUXUXUXUXUXUXUXUXUXUX",
"UXUXUXUXUXZ < M.D.:.*.,.9.,.,.>.>.9.,.8.,.,.9.9.4.,.*.>.,.8.*.=.x o ^ ( g A M.xX, 2 UXUXUXUXUXUXUXUXUXUXUXUXUXUX",
"UXUXUXUXUXUXx.o A zXg.i.-.>.8.e.8.1.q.q.,.8.1.w.4.4.>.-.>.&.u.A _ ^ ' & f C =.# / UXUXUXUXUXUXUXUXUXUXUXUXUXUXUX",
"UXUXUXUXUXUXUXUX: > Z.zXp.-.<.,.=.;.5.q.,.8.1.q.=.0.<.<.0.<.=.n ~ = D E.{ @ X l.UXUXUXUXUXUXUXUXUXUXUXZ $ . * UX",
"UXUXUXUXUXUXUXUXUXB.  z S.zXd.&.-.;.4.,.,.8.>.1.0.0.>.*.l + l   ^ x.J a $ ~ g + UXUXUXUXUXUXUXUXUXUXZ 7 ( C 7 # ",
"UXUXUXUXUXUXUXUXUXZ 5 > , *.lX#Xd.<.>.1.4.q.8.d.8.q.l : i h z ^.[ F r M { t e UXUXUXUXUXUXUXUXUXUXUX# ( # v b UX",
"UXUXUXUXUXUXUXUX+ 0 vX+XB q X x H.nXZ.f.1.1.9.9.*., % ^ ] E % h * r ( r # % . UXUXUXUXUXUXUXUXUXUXv g ^ - UXUXUX",
"UXUXUXUXUXUXUXUX  n lXJXS.z :..., j w.zXmXxXM.l = ~ u G E g w : 5.r + ; ^ ^.w s UXUXUXUXUXUXUXUXUXo ] f ~ UXUXUX",
"UXUXUXUXUXUXUXk.- ).m l 7.V c.%.@. .c j X 0 ; ] ~.Y.[ % G p f . v + ~ E.L e e 8 = UXUXUXUXUXUXUX/ @ I.r UXUXUXUX",
"UXUXUXUXUXUX).% (.PXPX'.p . c.@.@.+.+.l % L R.U.!.K.( & h D g - 8 ^.' * & F ! D 6 UXUXUXUXUXUXUX. U W * UXUXUXUX",
"UXUXUXUXUXUX  = LXIXPX[.[.K s.+. .j 3 P R.~.P.H _ E R G * p D v $ w * K D M b b @ = UXUXUXUXUX0 g Y.g z UXUXUXUX",
"UXUXUXUXUXUX3 w f V.`.].KXg y.c = I P.U.U.W.W ` ] T R _ : t p L t + V.t # v u & a $ 9 3 8 6 . b T.U.. UXUXUXUXUX",
"UXUXUXUXUXy i P G C % $ f 7 % I Q.Y.R.L.T ' ' U E P } ` L + E Q 8 5 g $ * u G b + m X ~ ] z.P.Y.J.K 3 UXUXUXUXUX",
"UXUXUXUXUX= g U Q K f f 8 . m.P.U.J.R L Y _ _ Q ' Y W W.E.= u # . @ - u u b r e b ~.. U Y.Y.!.I.G + UXUXUXUXUXUX",
"UXUXUXUXUX@ J H F u & ; 3 . z.L.R ` T Y Y Y ` ` J.I.P.L 7 D L W z.y 3 w e ; K [ r R f p F p * . d UXUXUXUXUXUXUX",
"UXUXUXUXUX. G H t # & * #   p L _ _ _ L T R ' L.T.( w w H _ T L K # 5 6 e $ 4 ^.1 ^ ~ # Z Z B.FXUXUXUXUXUXUXUXUX",
"UXUXUXUXUX. b G t t p g . 5 . J P P L T ' W.P.I r h ~ | J M p i = 5 @ a t t # r v = y G.UXUXUXUXUXUXUXUXUXUXUXUX",
"UXUXUXUXUX2 - b f g b f @ 5 @ - L _ T E T.P - X % i w #   < k O.7.    % | F p F s # UXUXUXUXUXUXUXUXUXUXUXUXUXUX",
"UXUXUXUXUXUX% . - d 7 * k.C 0 2 L L.E.P - k O.O.O. . .+.$.cX$XO.X.O 8 * * a 8 & # UXUXUXUXUXUXUXUXUXUXUXUXUXUXUX",
"UXUXUXUXUXUXUXUX% # = UXUX9 l.A.i b 1 : , c n k n k k j k o.$XbXMX+ ).UXUX  # UXUXUXUXUXUXUXUXUXUXUXUXUXUXUXUXUX",
"UXUXUXUXUXUXUXUXUXUXUXUXUXUX< :.A.A.p.g.OXv.a.h.h.s.s.s.s.cXbX#XX.+ UXUXUXUXUXUXUXUXUXUXUXUXUXUXUXUXUXUXUXUXUXUX",
"UXUXUXUXUXUXUXUXUXUXUXUXUXUX+ N y 9 c X.3.3.a.i.a.#.i.o.X.l 0 2 @ F.UXUXUXUXUXUXUXUXUXUXUXUXUXUXUXUXUXUXUXUXUXUX",
"UXUXUXUXUXUXUXUXUXUXUXUXUXUXs B.IXHX/.{ u o   # # . ; ) { `.HXDX; GXUXUXUXUXUXUXUXUXUXUXUXUXUXUXUXUXUXUXUXUXUXUX",
"UXUXUXUXUXUXUXUXUXUXUXUXUXUXv y (.`.].`.w b F.G.F.k.$ ^.].`._.g % ).UXUXUXUXUXUXUXUXUXUXUXUXUXUXUXUXUXUXUXUXUXUX",
"UXUXUXUXUXUXUXUXUXUXUXUXUXUX& u b r r ; = UXUXUXUXUXv   - w D ~ o F.UXUXUXUXUXUXUXUXUXUXUXUXUXUXUXUXUXUXUXUXUXUX",
"UXUXUXUXUXUXUXUXUXUXUXUXUXFXs y z.( K % z UXUXUXUXUXUX. M L T.I # (.(.UXUXUXUXUXUXUXUXUXUXUXUXUXUXUXUXUXUXUXUXUX",
"UXUXUXUXUXUXUXUXUXUXUXUXUXUXB.* $ . @ . UXUXUXUXUXUXUX3 . + * # / (.UXUXUXUXUXUXUXUXUXUXUXUXUXUXUXUXUXUXUXUXUXUX",
"UXUXUXUXUXUXUXUXUXUXUXUXUXUXUXUX( UXUXUXUXUXUXUXUXUXUXUXUXUXUXUXUXUXUXUXUXUXUXUXUXUXUXUXUXUXUXUXUXUXUXUXUXUXUXUX"
};
