/* XPM */
static char *result[] = {
/* columns rows colors chars-per-pixel */
"56 60 255 2 ",
"   c #0C0503",
".  c #050A03",
"X  c #0B0B04",
"o  c #080709",
"O  c #130401",
"+  c #1B0504",
"@  c #140C05",
"#  c #150C0A",
"$  c #1C0C0B",
"%  c #170709",
"&  c #0C1205",
"*  c #0D130B",
"=  c #071507",
"-  c #14120B",
";  c #1B130C",
":  c #181709",
">  c #090915",
",  c #150B14",
"<  c #0D1213",
"1  c #131C12",
"2  c #191515",
"3  c #220B0B",
"4  c #270A06",
"5  c #350D0B",
"6  c #2B140C",
"7  c #26160A",
"8  c #36160A",
"9  c #2A0B14",
"0  c #231D12",
"q  c #281615",
"w  c #371916",
"e  c #1B2414",
"r  c #172818",
"t  c #1B3217",
"y  c #142C0B",
"u  c #272418",
"i  c #372419",
"p  c #253819",
"a  c #35230C",
"s  c #171723",
"d  c #2A1C21",
"f  c #1C2B23",
"g  c #392823",
"h  c #273827",
"j  c #393328",
"k  c #2B3331",
"l  c #461C14",
"z  c #48190D",
"x  c #55260D",
"c  c #472617",
"v  c #582A14",
"b  c #4D351B",
"n  c #4D2F0A",
"m  c #652B15",
"M  c #693211",
"N  c #511F26",
"B  c #462823",
"V  c #57372B",
"C  c #4D352F",
"Z  c #69382A",
"A  c #6A3A33",
"S  c #1C4A0E",
"D  c #1D4813",
"F  c #1D540C",
"G  c #264816",
"H  c #275A18",
"J  c #35571B",
"K  c #334C19",
"L  c #33681B",
"P  c #367318",
"I  c #2A4825",
"U  c #2B542B",
"Y  c #285827",
"T  c #355927",
"R  c #2C4A34",
"E  c #344A35",
"W  c #2A5733",
"Q  c #345836",
"!  c #354828",
"~  c #2F6328",
"^  c #356625",
"/  c #357626",
"(  c #356936",
")  c #1C4628",
"_  c #7B4519",
"`  c #694119",
"'  c #466E17",
"]  c #5D4738",
"[  c #4B522D",
"{  c #684827",
"}  c #794327",
"|  c #674436",
" . c #6C5036",
".. c #457436",
"X. c #53793A",
"o. c #496D2E",
"O. c #7F7A27",
"+. c #3E3442",
"@. c #653F40",
"#. c #395849",
"$. c #384A44",
"%. c #3B6456",
"&. c #346441",
"*. c #43584A",
"=. c #505651",
"-. c #795C48",
";. c #6F5348",
":. c #496B49",
">. c #497647",
",. c #567649",
"<. c #466657",
"1. c #566F57",
"2. c #74654E",
"3. c #526D66",
"4. c #6D6365",
"5. c #853C18",
"6. c #853A25",
"7. c #915015",
"8. c #A74E15",
"9. c #855736",
"0. c #8E4D2A",
"q. c #AF5122",
"w. c #AF6733",
"e. c #9B6023",
"r. c #D87A11",
"t. c #EA7C0B",
"y. c #8D574E",
"u. c #826349",
"i. c #886956",
"p. c #99795A",
"a. c #976B52",
"s. c #A47B57",
"d. c #AA7251",
"f. c #8D7269",
"g. c #AF7869",
"h. c #B75054",
"j. c #DE7A6C",
"k. c #CF7670",
"l. c #E4796A",
"z. c #E37C72",
"x. c #D2705E",
"c. c #3A8328",
"v. c #4A8B18",
"b. c #4CB91A",
"n. c #54BC1C",
"m. c #5DBE1B",
"M. c #5ABF15",
"N. c #50AA17",
"B. c #62BC19",
"V. c #65A017",
"C. c #458628",
"Z. c #55992B",
"A. c #568A37",
"S. c #589735",
"D. c #4D8C32",
"F. c #679532",
"G. c #57A62C",
"H. c #59BA25",
"J. c #57AC30",
"K. c #66BC27",
"L. c #72BB2A",
"P. c #66A638",
"I. c #67B835",
"U. c #77B838",
"Y. c #6CAD2E",
"T. c #5CC21C",
"R. c #56C215",
"E. c #4FCB0E",
"W. c #65C21D",
"Q. c #6BC41D",
"!. c #68C817",
"~. c #76C91A",
"^. c #5CC525",
"/. c #64C322",
"(. c #6CC422",
"). c #6CCA24",
"_. c #6BC42B",
"`. c #6AC92A",
"'. c #73C622",
"]. c #74C923",
"[. c #7CCB24",
"{. c #72C429",
"}. c #78CA2B",
"|. c #76D22B",
" X c #6BC633",
".X c #78C938",
"XX c #70D332",
"oX c #588A48",
"OX c #598554",
"+X c #57934E",
"@X c #689655",
"#X c #69934E",
"$X c #78B957",
"%X c #72AE4E",
"&X c #568166",
"*X c #678B62",
"=X c #73AF65",
"-X c #7CCA47",
";X c #7CC755",
":X c #79D34E",
">X c #ACA122",
",X c #D98411",
"<X c #E88B0B",
"1X c #F3B40C",
"2X c #C1BC0C",
"3X c #86CD1B",
"4X c #8ECF2E",
"5X c #A5DB2F",
"6X c #A4E231",
"7X c #A1D81C",
"8X c #F3D60E",
"9X c #EAD726",
"0X c #9D8258",
"qX c #A5825A",
"wX c #A3834A",
"eX c #89B84A",
"rX c #9D836A",
"tX c #B68A74",
"yX c #AF8D6B",
"uX c #88BD6A",
"iX c #C99778",
"pX c #D08A76",
"aX c #E98A76",
"sX c #D4A978",
"dX c #82CA49",
"fX c #83D449",
"gX c #87C957",
"hX c #86D556",
"jX c #92CF53",
"kX c #90D567",
"lX c #A5E255",
"zX c #ED7B86",
"xX c #AB968D",
"cX c #A79995",
"vX c #D88D8D",
"bX c #F49283",
"nX c #EB9286",
"mX c #D9A793",
"MX c #D4AF85",
"NX c #FABB8A",
"BX c #FAAB95",
"VX c #FBBB9B",
"CX c #FABB97",
"ZX c #EAB092",
"AX c #FABCA4",
"SX c #F3B2A7",
"DX c #BEC4B7",
"FX c #DAC498",
"GX c #FAC38A",
"HX c #F8C297",
"JX c #E9C48E",
"KX c #F6C1A1",
"LX c #D6D6D3",
"PX c #EEECE9",
"IX c None",
/* pixels */
"IXIXIXIXIXIXIXIXIXIXIXIXIXIXIXIXIXIXIXIXIXIXIXIXIXIXIXIXIXIXIXIXIXIXIXIXIXIXIXIXIXIXIXIXIXIXIXIXIXIXIXIXIXIXIXIX",
"IXIXIXIXIXIXIXIXIXIXIXIXIXIXIXIXIXIXIXIXIXIXIXIXIXIXIXIXIX, . > >   # u IXIXIXIXIXIXIXIXIXIXIXIXIXIXIXIXIXIXIXIX",
"] IXIXIXIXIXIXIXIXIXIXIXIXIXIXIXIXIXIXIXIXIXIXIXIXIX# @ [ F.4X7X7X4XF.J < , IXIXIXIXIXIXIXIXIXIXIXIXIXIXIXIXIXIX",
"+ IXIXIXIXIXIXIXIXIXIXIXIXIXIXIXIXIXIXIXIXIXIXIXu . ' eX6XlX5X5X6X6X5X6XjX' @ ; IXIXIXIXIXIXIXIXIXIXIXIXIXIXIXIX",
"i IXIXIXIXIXIXIXIXIXIXIXIXIXIXIXIXIXIXIXIXIXC = ! 4X4X4X4X3X3X3X3X3X3X4X5X5X4XJ * j IXIXIXIXIXIXIXIXIXIXIXIXIXIX",
"IXIXIXIXIXIXIXIXIXIXIXIXIXIXIXIXIXIXIXIXIXh & X.3X[.3X~.3X}.}.4X[.[.3X4X3X4X5X5XF.1 q IXIXIXIXIXIXIXIXIXIXIXIXIX",
"IXIXIXIXIXIXIXIXIXIXIXIXIXIXIXIXIXIXIXyX2 t L.3X}.3X4X].[.[.[.[.[.[.[.[.[.[.[.4X5X4Xp 2 IXIXIXIXIXIXIXIXIXIXIXIX",
"IXIXIXIXIXIXIXIXIXIXIXIXIXIXIXIXIXIXtX2 p U.}.'.}.{.[.[.[.[.[.[.[.[.[.[.[.[.[.}.~.4XjXK O IXIXIXIXIXIXIXIXIXIXIX",
"IXIXIXIXIXIXIXIXIXIXIXIXIXIXIXIXIXxX- f U.~.].'.[.[.'.[.].[.].'.].~.].[.].].].{.].~.[.4Xp o IXIXIXIXIXIXIXIXIXIX",
"IXIXIXIXIXIXIXIXIXIXIXIXIXIXIXIXIX2 t F.}.~.~.].'.'.'.'.'.].'.~.].].'.].'.~.'.'.].].].].%Xp # IXIXIXIXIXIXIXIXIX",
"IXIXIXIXIXIXIXIXIXIXIXIXIXIXIXIX- 1 D.~.~.`.(._.Q.'.'.'.].Q.}.'.'.Q.'.'.'.'.4X'.}.{.{.'.~.A.r X IXIXIXIXIXIXIXIX",
"IXIXIXIXIXIXIXIXIXIXIXIXIXIXIXC * T U.'.).).(.'.'.'.(.'.'.(.'.'.'.(.(.~.'.Q.Q.(.].{.(._.}.4XT < j IXIXIXIXIXIXIX",
"IXIXIXIXIXIXIXIXIXIXIXIXIXIXIX. o.D.~.Q.Q.!.Q.Q.'.~.Q.)._.'.Q.{.).B.Q.!.!.Q.Q.(.{.{.).(..X}.S.,.X C IXIXIXIXIXIX",
"IXIXIXIXIXIXIXIXIXIXIXIXIXIXX E ~ $X'.Q.Q.W.Q.W.(.I._.!.B.].L.K.B.Q.L.{.W.!.(.'._.{.(.(.{.{.-Xo.*.X IXIXIXIXIXIX",
"IXIXIXIXIXIXIXIXIXIXIXIXIXi e ,.D.|._.`._._./.`.`.!.'.U.V.J G o.X.I Y S.I.K./.B.).(.B.Q.{._.4XS.,.p q IXIXIXIXIX",
"IXIXIXIXIXIXIXIXIXIXIXIXIX. ,.~ %X).W.K././.).`./.Q.L.P H %X;XhXdXdX%X/ ' Y. X/.}.Q.W.W. X/.`..XT OXX IXIXIXIXIX",
"IXIXIXIXIXIXIXIXIXIXIXIX: k ../ XX`.T.W.).T.!.B.K.Y.F A.;X-X:XhXgXhX.X-XS.D I.I.}.).B.W.I.R.Q.|.c...E & IXIXIXIX",
"IXIXIXIXIXIXIXIXIXIXIXIX& &X~ G.XX/.T.R.W.W./.K.G.) %XfX-XhXlX$X$XlXhXgX;X%XG P.K.`.T.H._.W.R.|.G.T *X= IXIXIXIX",
"IXIXIXIXIXIXIXIXIXIXIX; ! ,.~  X`.K.H.^.W.m.H.J.F U.dXfXkXX.2 c V 7 X.kXfX-X$XG G./.B.H./.H.R. X.X^ >.Q ; IXIXIX",
"IXIXIXIXIXIXIXIXIXIXIXo OX( P .X/.B.m.n.m.M.J.D %XdXgXkXG u m <X<XZ w p kXfX-X%XD J.T.K.Q.m.H.T.[./ ( #X. IXIXIX",
"IXIXIXIXIXIXIXIXIXIX0 h OXW C..X^.^.J.^.b.J.G P.:XhX$X: i.ZXw 5.7.6 MXrX- #XkX-X%XS J.R.T.n.H.^.|.D.Q oXI ; IXIX",
"IXIXIXIXIXIXIXIXIXIX. ,.&.( Z.|./.H.H.R.^.L S.gX:X$Xw s.NXHXyX9 4 s.HXHXs.u %XkXdXP.H n.H.n.n.n.}.S.Y ( ,.. IXIX",
"IXIXIXIXIXIXIXIXIXIX1 OXW Q Z.XX`.H.b.^.P o.-XdX=Xa mXKXHXHXa.i.a.vXVXCXGXZXu #XdX.XA.L K.n.b.R.|.G.Y W #Xe [ IX",
"IXIXIXIXIXIXIXIXIXq I +XT W C.XX^.^.E.Z.Y gX:XgX0 iXJXGXVXHXd.pXiXu.GXAXAXJXmXu $XjXdXT Z.H.b.R.).Z.Y Y >.E ; IX",
"IXIXIXIXIXIXIXIXIX# :.( Y W / XX`.b.G.S $X:XhXy d f.ZXNXNXCXCXCXmXBXKXCXGXBXp.c 1 $X-X;XS G.E.^.XXc.W Y ( >.. IX",
"IXIXIXIXIXIXIXIXIXX ,.~ U Q H J.XXn.H D.XXhXK 9.2X{ w @.vXyXg.CXGXg.yXiX .q { 2X>Xt fX;X+X~ R.E. XW U W W OXX IX",
"IXIXIXIXIXIXIXIXIXX >.~ U U U L :XJ.H -XfX,.M r.1X8X9X>Xa b 7 mXMX5 | n >X9X8X1X,XM o.:X-X^ J.^./ Y W Y W OX. IX",
"IXIXIXIXIXIXIXIXIX; W oXY W W Y / ~ ;XfX%X: } r.t.t.<X8X8X8X7 iXsX3 9X8X1X<X<X<X,X7., %XfXuXH / W Y ) ~ OX#.- IX",
"IXIXIXIXIXIXIXIXIXIX& OX( Y W W R y &.&Xf o +.d n q.r.r.<Xr.9 vXsX5 ,X<X<X,Xq.V d C > u +X>.r I R W U ..OX* IXIX",
"IXIXIXIXIXIXIXIXIXIX2 1 @X~ Y U h R 3.*.C b cXPXf.% 8 0.,X<X7 mXsX5 ,Xr.0.8 # 4.LXDXj C #.%.R t U W W @Xr - IXIX",
"IXIXIXIXIXIXIXIXIXIXIX; h *XY T r #.%.r pXiX0 LXPX<.o % q i 3 sXsXw c q o . k PXLXg tXiX2 %.#.r W Y *Xh - IXIXIX",
"IXIXIXIXIXIXIXIXIXIXIXIX# t @XQ r #.<.s a.SX2.s rXcX=.4.k # y.VXCXa.3 d 1.=.cXcXq ;.VXk.2 :.<.r Q oXp & IXIXIXIX",
"IXIXIXIXIXIXIXIXIXIXIXIXIX2 r OX! R *.k i pXBXmXp.V V -.tXCXCXHXHXVXVXiXu.V V i.mXCXpXB $.3.E t OXh : IXIXIXIXIX",
"IXIXIXIXIXIXIXIXIXIXIXIXIXIX: & 3.r %.%.* A z.BXKXHXHXHXHXGXNXCXNXVXCXVXHXCXAXKXBXaX| < <.<.r 1.1 < IXIXIXIXIXIX",
"i q IXIXIXIXIXIXIXIXIXIXIXIX@ w , 2 #.<.#.# y.j.aXBXHXVXAXAXtXZ Z s.HXGXNXNXNXaXl.h.+ #.3.*.< o b IXIXIXIXIXIXIX",
"2 u 7 + IXIXIXIXIXIXIXIXIXIX$ 6 6 q < 1.3.$.+ g.l.l.aXbXBXBXBXZXZXCXVXBXnXaXj.z.k.4 $.3.1.1 o  .IXIXIXIXIXIXIXIX",
"O O i i 3 IXIXIXIXIXIXIXIXIXrX, O 3 9 # e *.k + y.pXaXaXl.l.l.z.j.z.l.j.z.nXaXy.- k %.r > 0 MXIXIXIXIXIXIXIXIXIX",
"IX2.+ | + IXIXIXIXIXIXIXIXIXj 3 -.g   2 Q 1 , > X 6 N a.pXaXbXaXaXbXnXaXa.A u = o o ; [ r X rXIXIXIXIXIXIXIXIXIX",
"IXIX2 l l 2 IXIXIXIXIXIXIX; # 3 5 q k f y ' v.A.y B.A.t r 2 ; q q ; 2 p t A.U.y o.v.L p f k * IXIXIXIXIXIXIXIXIX",
"IXIXj 4 } + IXIXIXIXIXIXIX+ N N w . =.%.1.@X/ I e B.W.G.T #X;.ZXZXu.oX..A.Q.~.y G ..@XOX*.%.* g IXIXIXIXIXIXIXIX",
"IXIXIX+ } 8 d IXIXIXIXIXIXIX0 $ q w 7 : I o.@X:.G R.I.W.' A.o.p.rX' #XH K.K.!.J T #Xo.h - 1 i + IXIXIXIXIXIXIXIX",
"IXIXIX- Z } % IXIXIXIXIXIXIXSX;.+ vXx.g.u.| e = ! T.L.L.Y.S =Xo.U %XS Y.^.K.I.#.> d ;.-.g.x.vX5 =.IXIXIXIXIXIXIX",
"IXIXIXIX6 m m $ r k IXIXIXIX- . N k.zXBXVXHX .r Q P.M.K.E.N.S =XeXG N./.I.E.G.L t | HXGXVXz.j.@.o - IXIXIXIXIXIX",
"IXIXIXIXo 0.7.0.l 4 + O o . . 2 , 4 0.yXZXKXV h W L G.W.n.H.Z.G F D.n.^.K.J./ Y p B HXAXtX;.5 + $ X IXIXIXIXIXIX",
"IXIXIXIXu 4 e.q.8.8.0.A 9 9.@ l z 9 $ + O w 2 f G Y T o.D.G.J.D.S.b.S.Z./ E Q R h @ w 4 3 4 7 8 w   IXIXIXIXIXIX",
"IXIXIXIXIXq + c 0.e.9.6 l M   l 5 q x x c c , o @ < < r f r ! I h k f r e * *     : i x x B 5 5 l   IXIXIXIXIXIX",
"IXIXIXIXIXIXIXq % O     9.v % z 6 q v w @ 7 O 3 } _ ` { b c w 8 8 a u > .   5 ;.B   n m M x 8 5 g % IXIXIXIXIXIX",
"IXIXIXIXIXIXIXIXIXIXf., 4 % , z 6 5 v : 9.8 c x , x M Z 0.5.7.7._ x 4 c A V 8 4 l + v m x M 8 8 w % IXIXIXIXIXIX",
"IXIXIXIXIXIXIXIXIXIXIXIXIXj O c 5 8 w i 5.4 5.x q w 3 w B c l q + l { w , o @ X   3 c 4 v n 8 w B   IXIXIXIXIXIX",
"IXIXIXIXIXIXIXIXIXIXIXIXIXIX@ $ B 8 7 s 3 ; 0., n 0.Z 4 . . o 9 M _ 4 . = p I G ! - @ 8 x a C V q + IXIXIXIXIXIX",
"IXIXIXIXIXIXIXIXIXIXIXIXIXIXIXs + % 5 2 % % l > x 8.7.8.q.0.7.q.m 1 S.L.'.(..XX.T r o q 3 q q + 8 IXIXIXIXIXIXIX",
"IXIXIXIXIXIXIXIXIXIXIXIXIXIXIXIXIXIXIX  ; o k k 1 7 M w.w.} 0.x p D %XY.Z.v.J e h $., :   @ i -.IXIXIXIXIXIXIXIX",
"IXIXIXIXIXIXIXIXIXIXIXIXIXIXIXIXIXIXIXIXIXu 1 3.<.&XH e - 2 0 h X.%XH ^ D.+X%X:.1.r w FXIXIXIXIXIXIXIXIXIXIXIXIX",
"IXIXIXIXIXIXIXIXIXIXIXIXIXIXIXIXIXIXIXIXIXIX0   % s [ oXC.S.oX< = +X%X@XoXo.y - . : xXIXIXIXIXIXIXIXIXIXIXIXIXIX",
"IXIXIXIXIXIXIXIXIXIXIXIXIXIXIXIXIXIXIXIXIXIX;.+ xXx.a.] 2 > + q 2 o   + V a.g.zX9 ;.FXIXIXIXIXIXIXIXIXIXIXIXIXIX",
"IXIXIXIXIXIXIXIXIXIXIXIXIXIXIXIXIXIXIXIXIXIXB + 5 A p.i., 0 X.u.wX;.k $ -.i.| q & g qXIXIXIXIXIXIXIXIXIXIXIXIXIX",
"IXIXIXIXIXIXIXIXIXIXIXIXIXIXIXIXIXIXIXIXIX0Xp 7 c n n B % ;.0Xg.0XwX2.O w n M x 9 ; p.IXIXIXIXIXIXIXIXIXIXIXIXIX",
"IXIXIXIXIXIXIXIXIXIXIXIXIXIXIXIXIXIXIXIXIXqXC O g 0.{ q : f.rX0XqXqXp.6 ; ]  .b O g p.IXIXIXIXIXIXIXIXIXIXIXIXIX",
"IXIXIXIXIXIXIXIXIXIXIXIXIXIXIXIXIXIXIXIXIXqX0XB O % O $ 2.qXd.qXp.qXqXu.7 + + + i i.IXIXIXIXIXIXIXIXIXIXIXIXIXIX",
"IXIXIXIXIXIXIXIXIXIXIXIXIXIXIXIXIXIXIXIXIXFXiXrX2.2.2.p.qXwXw.qXp.qXqXqXp.2.2.-.rXIXIXIXIXIXIXIXIXIXIXIXIXIXIXIX"
};
