/* XPM */
static char *result[] = {
/* columns rows colors chars-per-pixel */
"56 60 253 2 ",
"   c #060503",
".  c #0C0503",
"X  c #040C02",
"o  c #0C0A04",
"O  c #0C050C",
"+  c #0C0A0B",
"@  c #06070B",
"#  c #120503",
"$  c #130B05",
"%  c #1B0A05",
"&  c #150C0B",
"*  c #190809",
"=  c #0D1C0C",
"-  c #091506",
";  c #15130C",
":  c #1B120C",
">  c #151709",
",  c #080913",
"<  c #160814",
"1  c #0D1A15",
"2  c #1B1313",
"3  c #131C12",
"4  c #191916",
"5  c #260B08",
"6  c #360D09",
"7  c #23130C",
"8  c #291509",
"9  c #391509",
"0  c #230C13",
"q  c #350E17",
"w  c #271814",
"e  c #371816",
"r  c #0D2A0A",
"t  c #182A08",
"y  c #16350A",
"u  c #0E2615",
"i  c #192816",
"p  c #183515",
"a  c #0F320D",
"s  c #39240C",
"d  c #282318",
"f  c #362519",
"g  c #26371E",
"h  c #1D152A",
"j  c #231623",
"k  c #2A0925",
"l  c #1E2528",
"z  c #1B2D2F",
"x  c #372822",
"c  c #263826",
"v  c #393529",
"b  c #263632",
"n  c #312F32",
"m  c #431707",
"M  c #461C17",
"N  c #521E09",
"B  c #472709",
"V  c #57280A",
"C  c #462313",
"Z  c #552A15",
"A  c #513210",
"S  c #683719",
"D  c #743014",
"F  c #4D2D27",
"G  c #552629",
"H  c #463526",
"J  c #5C382B",
"K  c #433731",
"L  c #5D3935",
"P  c #472433",
"I  c #673927",
"U  c #783E2A",
"Y  c #673835",
"T  c #1B480E",
"R  c #1C4E10",
"E  c #26491A",
"W  c #255515",
"Q  c #385A1C",
"!  c #334E1B",
"~  c #2A6B1A",
"^  c #39661B",
"/  c #387719",
"(  c #227213",
")  c #1C5120",
"_  c #2A4625",
"`  c #344B2A",
"'  c #2B5424",
"]  c #2B5B24",
"[  c #2B532B",
"{  c #265929",
"}  c #31542D",
"|  c #365928",
" . c #364A34",
".. c #2B5433",
"X. c #2D5932",
"o. c #2A5335",
"O. c #325431",
"+. c #345B33",
"@. c #3B5C35",
"#. c #3D5E3B",
"$. c #37583A",
"%. c #2F4D37",
"&. c #2E6225",
"*. c #386429",
"=. c #3C6234",
"-. c #386537",
";. c #347135",
":. c #1E7410",
">. c #6B4317",
",. c #49721B",
"<. c #584429",
"1. c #564935",
"2. c #424F30",
"3. c #794429",
"4. c #714C34",
"5. c #457728",
"6. c #456838",
"7. c #457538",
"8. c #466628",
"9. c #5E4F13",
"0. c #3B4D43",
"q. c #3C5A44",
"w. c #335750",
"e. c #3D6346",
"r. c #396458",
"t. c #425A47",
"y. c #465B58",
"u. c #545254",
"i. c #6F554B",
"p. c #4B6649",
"a. c #457644",
"s. c #416554",
"d. c #587854",
"f. c #53764A",
"g. c #6A6247",
"h. c #79634B",
"j. c #7A6D54",
"k. c #6F7E52",
"l. c #5A6067",
"z. c #883B13",
"x. c #853332",
"c. c #944814",
"v. c #A94E14",
"b. c #8A4F2D",
"n. c #A4522D",
"m. c #83603D",
"M. c #CF7311",
"N. c #EC7908",
"B. c #E37A22",
"V. c #895C50",
"C. c #967959",
"Z. c #8C6D54",
"A. c #B2685C",
"S. c #997A65",
"D. c #8F7F65",
"F. c #A7796A",
"G. c #B87470",
"H. c #D97B69",
"J. c #E5796E",
"K. c #3C9111",
"L. c #49961B",
"P. c #46881D",
"I. c #45B51A",
"U. c #4BB91C",
"Y. c #48B818",
"T. c #55BB1C",
"R. c #5CBD1E",
"E. c #53B41B",
"W. c #50A817",
"Q. c #64BF1E",
"!. c #4B882A",
"~. c #5E9939",
"^. c #4C932E",
"/. c #69992D",
"(. c #56A92A",
"). c #54BB22",
"_. c #5BBD23",
"`. c #58BA27",
"'. c #5BB435",
"]. c #4EB026",
"[. c #62BE24",
"{. c #69BD29",
"}. c #77B82A",
"|. c #6AA83A",
" X c #67B838",
".X c #77B033",
"XX c #778105",
"oX c #5BC21A",
"OX c #61C11E",
"+X c #6DC61C",
"@X c #73CA1D",
"#X c #75C71C",
"$X c #69D11F",
"%X c #5CC326",
"&X c #64C123",
"*X c #6CC424",
"=X c #6BC52A",
"-X c #6ECA29",
";X c #67C727",
":X c #72C523",
">X c #73C924",
",X c #7CCB23",
"<X c #7CCC2A",
"1X c #75C82A",
"2X c #67C938",
"3X c #7ACC37",
"4X c #75D232",
"5X c #5B8558",
"6X c #56874C",
"7X c #67914E",
"8X c #74A75A",
"9X c #78B658",
"0X c #71B24D",
"qX c #6F8C63",
"wX c #67A862",
"eX c #79C84A",
"rX c #79C954",
"tX c #7CD045",
"yX c #B3A51E",
"uX c #E9AF0C",
"iX c #83CD23",
"pX c #84CA2C",
"aX c #85D229",
"sX c #96D738",
"dX c #8BCD39",
"fX c #80CE1F",
"gX c #F1D30F",
"hX c #938157",
"jX c #998B6E",
"kX c #A78971",
"lX c #AE8B74",
"zX c #A38359",
"xX c #E58C73",
"cX c #D4A479",
"vX c #FAA97C",
"bX c #84C848",
"nX c #8FCC4D",
"mX c #87C161",
"MX c #728C83",
"NX c #B7A586",
"BX c #9F9896",
"VX c #D99F86",
"CX c #CFA88C",
"ZX c #F9BB97",
"AX c #EDB096",
"SX c #F1BDA8",
"DX c #DFB7A1",
"FX c #FAC295",
"GX c #F1C792",
"HX c #F3C7A3",
"JX c #DED49C",
"KX c #FAF9F9",
"LX c None",
/* pixels */
"LXLXLXLXLXLXLXLXLXLXLXLXLXLXLXLXLXLXLXLXLXLXLXLXLXLXLXLXLXLXLXLXLXLXLXLXLXLXLXLXLXLXLXLXLXLXLXLXLXLXLXLXLXLXLXLX",
"LXLXLXLXLXLXLXLXLXLXLXLXLXLXLXLXLXLXLXLXH w : o   . $ % w 1.LXLXLXLXLXLXLXLXLXLXLXLXLXLXLXLXLXLXLXLXLXLXLXLXLXLX",
"LXLXLXLXLXLXLXLXLXLXLXLXLXLXLXLXLXH & o t 8./.|..X}.}./.,.d - 8 h.LXLXLXLXLXLXLXLXLXLXLXLXLXLXLXLXLXLXLXLXLXLXLX",
"LXLXLXLXLXLXLXLXLXLXLXLXLXLXLXv X d  .*..XpXpXaXaXfXiXaXsXsX}.^ X 2 C.LXLXLXLXLXLXLXLXLXLXLXLXLXLXLXLXLXLXLXLXLX",
"LXLXLXLXLXLXLXLXLXLXLXLXLX1.$ g qXf.| |.pXiXpX<X#X,XiX,XfXiXiXsXsX8.& f LXLXLXLXLXLXLXLXLXLXLXLXLXLXLXLXLXLXLXLX",
"LXLXLXLXLXLXLXLXLXLXLXLXd > 6X7X5.6.~.dX#XiX1X,XiX,X,X,X#XiXiXpXaXsXbX8 7 LXLXLXLXLXLXLXLXLXLXLXLXLXLXLXLXLXLXLX",
"LXLXLXLXLXLXLXLXLXLXLX% _ 8X6.#.6.,.dXiXiX,X<X<X#XiX<X,X,X,XpXfX@X@XfXsX! & LXLXLXLXLXLXLXLXLXLXLXLXLXLXLXLXLXLX",
"LXLXLXLXLXLXLXLXLXLXo 2.7X6.t.s.| /.pX,X,X:X>X,X#X<XpXpX<X>X,X#X:X-X@XfXnXQ > LXLXLXLXLXLXLXLXLXLXLXLXLXLXLXLXLX",
"LXLXLXLXLXLXLXLXh.. t.7X-.=.6.6.,.bX<X<X>X>X#X#X>XpXaX<X<X<X:X+X1X>X#X:X,XsX! $ LXLXLXLXLXLXLXLXLXLXLXLXLXLXLXLX",
"LXLXLXLXLXLXLXLXo  .5X=.#.=.#.@.~.pX:X:X<X>X@X+X:X1X,X1X>X-X-X@X@X>X:X#X@X@XdXt K LXLXLXLXLXLXLXLXLXLXLXLXLXLXLX",
"LXLXLXLXLXLXLXd g qX8.@.=.@.q.] 3X>X#X:X:X>X:X-X:X*X>X+X:X:X*X+X@X*X:X:X>X*X@X0X  LXLXLXLXLXLXLXLXLXLXLXLXLXLXLX",
"LXLXLXLXLXLX1.- qX6.6.-.=.@.=.5.pX+X{.:X:X:X:X:X*X*X*X:X*X*X*X*X*X*X*X-X-X=X>XpX_ w LXLXLXLXLXLXLXLXLXLXLXLXLXLX",
"LXLXLXLXLXLXX p.-.+.@.O.@.6.6.|.4X:X:X:X:X:X*X:X+X*X-X:X*X*X*X*X*X*X=X=X*X-X-X@X|.X LXLXLXLXLXLXLXLXLXLXLXLXLXLX",
"LXLXLXLXLXv d 5X+.@._ ` @.6.,.3X1X-X:X>X>X*X+X*X*X*X=X*X:X*X;X-X=X=X1X-X&X*X&X*X+Xi LXLXLXLXLXLXLXLXLXLXLXLXLXLX",
"LXLXLXLXLX. d.=.@. .c +.#.6.^ 3X&X&X1X:X>XOXOXOX&XQ.*XQ.*X*X;X&X&X1X=X&X=X&X{.=X.X| > LXLXLXLXLXLXLXLXLXLXLXLXLX",
"LXLXLXLXH ; f.| ` i @.*.$.q.5.4X&X=X[.&XOXOX;X&XOX&X[.*X=X&X&X*X=X=X[.&X=X{.=X(.R E & LXLXLXLXLXLXLXLXLXLXLXLXLX",
"LXLXLXLXo ` ]  .= 6.-.$.@.-./.3X&XQ.OXOXOXQ.OXoXOX&X&X;X[.=X=XQ.&X%X&X{. X(.W 5.rXwXX LXLXLXLXLXLXLXLXLXLXLXLXLX",
"LXLXLXLX  t.O.i c @.=.#.=.-.|.4X[.OXOXOXOXR.OXOX_.&XQ.&X[.&X*X&X&X&X{.%XP.E 0XmXeXeXX LXLXLXLXLXLXLXLXLXLXLXLXLX",
"LXLXLXLX. c u - d.X.+.@.#.*. X=X&XOXQ.R.R.R.R.Q.R.R.[.[.[.[.[.&X{.[.].W ~.rXeXmXbX9XX LXLXLXLXLXLXLXLXLXLXLXLXLX",
"LXLXLXLXH .    .e.-.+.@.#.&. X*XR.T.R.R.R.R.R.%X_.&X%XR.[.[.[.{.=XW.T 7XeX2XeX8X} t @ LXLXLXLXLXLXLXLXLXLXLXLXLX",
"LXLXLXLXLXlX- 5X{ +.@.} +.]  X$XoXR.R.R.T.T._._.;X_.&X_._.[.[.`.L.E 0XtXtX9XE , h g.LXLXLXLXLXLXLXLXLXLXLXLXLXLX",
"LXLXLXLXLXg.1 6X] +.+.&.-.]  X*XT.T.R.R.T.)._.`.%X_._.&X_.&XR.(.E 9XeXbX7Xi w O kXLXLXLXLXLXLXLXLXLXLXLXLXLXLXLX",
"LXLXLXLXLXd c a.' +...X.+.{ '.$XT.T.T._._.;X`.`.`.`.T.).].&X!.E eXtXtX7.w kXi.@ LXLXLXLXLXLXLXLXLXLXLXLXLXLXLXLX",
"LXLXLXLXLX: $.;.| @.X.[ O.{ ^.-X%X`.).).[.`.`.`.).).Y.).T.(.E 9XbXbX*.w cXZXL @ LXLXLXLXLXLXLXLXLXLXLXLXLXLXLXLX",
"LXLXLXLXLX: p.;.{ } X.} | [ / tX2X'.%X%XU.%XU.oXY.U.].Y.W.T 9XtXrX+.P AXZXZXe 4 LXLXLXLXLXLXLXLXLXLXLXLXLXLXLXLX",
"LXLXLXLXLX: q.;.' ' X.[ ' ..~ eX$X%XI.I.I.I.U.Y.Y.Y.U.].R 0XrXrX*.X C.Z.C.AX# d LXLXLXLXLXLXLXLXLXLXLXLXLXLXLXLX",
"LXLXLXLXLXf u 6X' [ ..[ ..[ { !.2XoXI.Y.I.I.I.I.Y.U.I.W 7XeXtX7.B yX9.XX0 lX# LXLXLXLXLXLXLXLXLXLXLXLXLXLXLXLXLX",
"LXLXLXLXLXLX= 5X] } [ } o.' { ] 2X%X%XY.I.I.I.I.I.I./ =.eXrX7X> M.uXgXgXk Z.# LXLXLXLXLXLXLXLXLXLXLXLXLXLXLXLXLX",
"LXLXLXLXLXLX- [ f.' +.' %.! ' w.( ^.%X2X%XoXoXI.I.].' mX0X!.1 S N.B.N.B.5 m.. LXLXLXLXLXLXLXLXLXLXLXLXLXLXLXLXLX",
"LXLXLXLXLXLXLX@ 6X7.X.+.[ [ { [ o.) ~ L.'.'.2X].'.W a.f.r.u u.b 8 D M.B.6 i.@ LXLXLXLXLXLXLXLXLXLXLXLXLXLXLXLXLX",
"LXLXLXLXLXLXLXK - 5Xa.o.[ ' [ ..{ X.X.o.{ { ) { ) z y.y.c n KXKXl.+ 4 m 6 Z.O LXLXLXLXLXLXLXLXLXLXLXLXLXLXLXLXLX",
"LXLXLXLXLXLXLXLX; 1 5X;.{ { [ O...X.o.{ ' ' ' ` u w.y.y.+ w l.BXBXu.2 e F.S.  LXLXLXLXLXLXLXLXLXLXLXLXLXLXLXLXLX",
"LXLXLXLXLXLXLXLXjXO 1 6Xa.X.{ [ [ [ ..[ [ .. .%.i r.s. .H DXF.Z.V.S.VXFXZXS.. LXLXLXLXLXLXLXLXLXLXLXLXLXLXLXLXLX",
"LXLXLXLXLXLXLXLXZ.. j - d.d.[ { [ ..+.#.{ [ .._ b r.r.b i.FXGXFXZXZXFXHXZXY $ LXLXLXLXLXLXLXLXLXLXLXLXLXLXLXLXLX",
"LXLXLXLXLXLXLXLX0 f s < X c 5Xa.{ [ ..X.[ { [ %.1 q.r.w.* VXFXZXZXZX3.x 9 O LXLXLXLXLXLXLXLXLXLXLXLXLXLXLXLXLXLX",
"LXLXLXLXLXLXLX5 , < 4.4.; @ u f.7X;.{ { { { ' ' i %.l.s.g x ZXSXZXAXxXi.< & LXLXLXLXLXLXLXLXLXLXLXLXLXLXLXLXLXLX",
"LXLXLXLXLXLXLX. G 6 5 9 b.3.6 @ u q.qXd.q.%.%.%.o.u w.r.r.l I xXH.V.4 @ v LXLXLXLXLXLXLXLXLXLXLXLXLXLXLXLXLXLXLX",
"LXLXLXLXLXLXLXc + e M d % C 4.+ u - = p p.6X5X7.;.` r s.s.u.0 C 0 # 7 V.LXLXLXLXLXLXLXLXLXLXLXLXLXLXLXLXLXLXLXLX",
"LXLXLXLXLXLX8 & : H 8 6   O , + 8 t !.W y r + 1 g c u z b 4 w C.e < NXLXLXLXLXLXLXLXLXLXLXLXLXLXLXLXLXLXLXLXLXLX",
"LXLXLXLXLXLX% G q # $ F Y 0 @ % J a ^./ / y $.*.5.,.^ - r d.' VXL . qXLXLXLXLXLXLXLXLXLXLXLXLXLXLXLXLXLXLXLXLXLX",
"LXLXLXLXLXJXj.4 6 M w . B i.* 0 Y r K.K.Q + h l  .p ! = $.W 8Xc v # j.LXLXLXLXLXLXLXLXLXLXLXLXLXLXLXLXLXLXLXLXLX",
"LXLXLXLXCXC.jXNX1.& 8 5 . % 5 <.5 a K./ p 0.y.7.mXbXbX6.! !.*.9Xp   @ @ LXLXLXLXLXLXLXLXLXLXLXLXLXLXLXLXLXLXLXLX",
"LXLXLXLX$ % + @ Z.NX, C >.A 4.% k y L.~ - l = $ ; 3 p b r [.P.W p.< 7 2 7 LXLXLXLXLX* # % LXLXLXLXLXLXLXLXLXLXLX",
"LXLXLX* w j Z H . h.i.$ w 9 % $ k t K.( y f G.A.VXcXzX: ^ W.R.!.t 5 C 8 $ LXLXLXw , F F j * LXLXLXLXLXLXLXLXLXLX",
"LXLXLXLX# d * m J + jXjXl @ + X + = T R t h.J.J.AXZXAXx _ ~ ~ :.W . A V 5 : LXd 5 Y % 5 + # LXLXLXLXLXLXLXLXLXLX",
"LXLXLXLXLXLXj.* I C ; lXGXhXv % , : 7 + . w e e f M q . X = = = o * A V w . n $ 3.6 d NXj.LXLXLXLXLXLXLXLXLXLXLX",
"LXLXLXLXLXLXLX1.O V m 5 BXJXHXAXw d C : $ 8 8 9 B s C 4 + H H 3.b.5 s 8 # O & I N $ LXLXLXLXLXLXLXLXLXLXLXLXLXLX",
"LXLXLXLXLXLXLXLX& e b.M   d n d @ + & w * e 8 Z V V 9 $ @ 0 5 6 s > @ . : . 3.U @ g.LXLXLXLXLXLXLXLXLXLXLXLXLXLX",
"LXLXLXLXLXLXLXLXLX# I v.3.A B C 4.I 5 n.X M q V Z s S >.8 c.: S <.9 7 8 Z b.b.5 H LXLXLXLXLXLXLXLXLXLXLXLXLXLXLX",
"LXLXLXLXLXLXLXLXLXu.% 3.v.v.c.c.b.I 6 z.. M 6 B V m D I * x.2 x.c.D c.v.v.n.9 % LXLXLXLXLXLXLXLXLXLXLXLXLXLXLXLX",
"LXLXLXLXLXLXLXLXLXLX1.# m S I S 9 # 5 U . e q m Z 9 6 8 $ 3.8 5 B S b.b.D 6 7 LXLXLXLXLXLXLXLXLXLXLXLXLXLXLXLXLX",
"LXLXLXLXLXLXLXLXLXLXLXC.g o   & ; = 0.x 1 & x m 9 9 % = g g E 7X= O < O . v LXLXLXLXLXLXLXLXLXLXLXLXLXLXLXLXLXLX",
"LXLXLXLXLXLXLXLXLXLXLXLXLXLXLXLXlX& 1 t.MXt.* # 7 $ 1 d.8X8X~.@.- LXLXLXLXLXLXLXLXLXLXLXLXLXLXLXLXLXLXLXLXLXLXLX",
"LXLXLXLXLXLXLXLXLXLXLXLXLXLXLXLXLXLXw . o 4 & + % 4 z 3 & ,   . H LXLXLXLXLXLXLXLXLXLXLXLXLXLXLXLXLXLXLXLXLXLXLX",
"LXLXLXLXLXLXLXLXLXLXLXLXLXLXLXLXLXLXLXD.d f G.A.F.F.0 K H w 3 hXLXLXLXLXLXLXLXLXLXLXLXLXLXLXLXLXLXLXLXLXLXLXLXLX",
"LXLXLXLXLXLXLXLXLXLXLXLXLXLXLXLXLXLXLXLXH O L 4.g.x $ w M m 2 Z.LXLXLXLXLXLXLXLXLXLXLXLXLXLXLXLXLXLXLXLXLXLXLXLX",
"LXLXLXLXLXLXLXLXLXLXLXLXLXLXLXLXLXLXLXLXf . e M L J $ 9 J F & LXLXLXLXLXLXLXLXLXLXLXLXLXLXLXLXLXLXLXLXLXLXLXLXLX",
"LXLXLXLXLXLXLXLXLXLXLXLXLXLXLXLXLXLXLXLX2.o e G G D % + o . H zXLXLXLXLXLXLXLXLXLXLXLXLXLXLXLXLXLXLXLXLXLXLXLXLX",
"LXLXLXLXLXLXLXLXLXLXLXLXLXLXLXLXLXLXLXLXLX7   o . o 2 1.4.h.zXLXLXLXLXLXLXLXLXLXLXLXLXLXLXLXLXLXLXLXLXLXLXLXLXLX",
"LXLXLXLXLXLXLXLXLXLXLXLXLXLXLXLXLXLXLXLXLXLXLXLXLXLXLXLXLXLXLXLXLXLXLXLXLXLXLXLXLXLXLXLXLXLXLXLXLXLXLXLXLXLXLXLX"
};
