/* XPM */
static char *result[] = {
/* columns rows colors chars-per-pixel */
"56 60 250 2 ",
"   c #0C0403",
".  c #040B04",
"X  c #0C0B04",
"o  c #0C0B0B",
"O  c #08060A",
"+  c #130402",
"@  c #1B0503",
"#  c #130A04",
"$  c #1E0B05",
"%  c #1A060C",
"&  c #130B0B",
"*  c #1B0B0A",
"=  c #12050C",
"-  c #051404",
";  c #0C140B",
":  c #0A1706",
">  c #14120B",
",  c #1C130C",
"<  c #171809",
"1  c #060715",
"2  c #170812",
"3  c #0D1C13",
"4  c #151714",
"5  c #240B07",
"6  c #24130C",
"7  c #281308",
"8  c #37170A",
"9  c #260A13",
"0  c #231412",
"q  c #2B1512",
"w  c #2C1C1A",
"e  c #271A14",
"r  c #351C16",
"t  c #310909",
"y  c #0A2607",
"u  c #17290C",
"i  c #1D310B",
"p  c #1A2B15",
"a  c #162716",
"s  c #1B3716",
"d  c #0C2613",
"f  c #272416",
"g  c #3A251B",
"h  c #243919",
"j  c #352C12",
"k  c #371B23",
"l  c #291C2C",
"z  c #1D3228",
"x  c #252425",
"c  c #382925",
"v  c #273925",
"b  c #393626",
"n  c #2A3835",
"m  c #353635",
"M  c #181721",
"N  c #441A0C",
"B  c #461C15",
"V  c #501718",
"C  c #47250C",
"Z  c #58290C",
"A  c #492717",
"S  c #562915",
"D  c #5A3517",
"F  c #693219",
"G  c #462826",
"H  c #582C24",
"J  c #453828",
"K  c #593627",
"L  c #573936",
"P  c #653B25",
"I  c #723930",
"U  c #431E2C",
"Y  c #1C4419",
"T  c #1F4B0F",
"R  c #254519",
"E  c #354719",
"W  c #255916",
"Q  c #2F5616",
"!  c #286718",
"~  c #297418",
"^  c #357718",
"/  c #296D09",
"(  c #2A4827",
")  c #324828",
"_  c #2B5327",
"`  c #24552B",
"'  c #2B542D",
"]  c #2D5B2B",
"[  c #265827",
"{  c #33542C",
"}  c #345B2E",
"|  c #385927",
" . c #2B4C36",
".. c #364C38",
"X. c #2C5432",
"o. c #2E5931",
"O. c #255631",
"+. c #345B32",
"@. c #3A5C34",
"#. c #3D5B3A",
"$. c #355838",
"%. c #286627",
"&. c #376628",
"*. c #3B7826",
"=. c #3C6235",
"-. c #376738",
";. c #316B30",
":. c #1F4B2F",
">. c #515A1D",
",. c #6C451C",
"<. c #4F4534",
"1. c #574835",
"2. c #415738",
"3. c #72472F",
"4. c #447829",
"5. c #466C38",
"6. c #497638",
"7. c #4E7331",
"8. c #5D3A41",
"9. c #7C3B42",
"0. c #384741",
"q. c #385D58",
"w. c #3B5848",
"e. c #396358",
"r. c #3C684A",
"t. c #455E56",
"y. c #4D5746",
"u. c #70544A",
"i. c #466148",
"p. c #4C7848",
"a. c #56784A",
"s. c #4A6158",
"d. c #5C7953",
"f. c #506647",
"g. c #71684E",
"h. c #727168",
"j. c #993A09",
"k. c #944B18",
"l. c #A14A18",
"z. c #AE5107",
"x. c #8B5132",
"c. c #906D36",
"v. c #AE5F28",
"b. c #E27C18",
"n. c #8D5650",
"m. c #847158",
"M. c #9B7A57",
"N. c #87684C",
"B. c #977368",
"V. c #A9796B",
"C. c #AC7553",
"Z. c #EB7269",
"A. c #328D11",
"S. c #4CB51D",
"D. c #4CBA1B",
"F. c #47B818",
"G. c #5CBC1E",
"H. c #53BA1B",
"J. c #64BF1B",
"K. c #48842B",
"L. c #58952B",
"P. c #519131",
"I. c #689333",
"U. c #52A92B",
"Y. c #4BB823",
"T. c #53BA21",
"R. c #5CBD23",
"E. c #57BA2A",
"W. c #5AA836",
"Q. c #56B632",
"!. c #62BE22",
"~. c #61BE29",
"^. c #69BF23",
"/. c #67AD3A",
"(. c #66B935",
"). c #75B837",
"_. c #78B72A",
"`. c #53951F",
"'. c #5DC119",
"]. c #56CA0E",
"[. c #63C21E",
"{. c #6CC51C",
"}. c #76C81B",
"|. c #6BCD13",
" X c #5BC223",
".X c #5CC928",
"XX c #64C223",
"oX c #6BC425",
"OX c #63C22A",
"+X c #6BC42A",
"@X c #6ACA2A",
"#X c #73C524",
"$X c #75C925",
"%X c #7CCB25",
"&X c #75C62A",
"*X c #74CA2B",
"=X c #7CCB2B",
"-X c #7BC522",
";X c #74D12E",
":X c #78C634",
">X c #75D237",
",X c #6ACC3B",
"<X c #588746",
"1X c #598656",
"2X c #51894E",
"3X c #668A5A",
"4X c #688B4B",
"5X c #77AA52",
"6X c #77B953",
"7X c #6EAC4A",
"8X c #6D9367",
"9X c #70AF64",
"0X c #7AC948",
"qX c #78D049",
"wX c #79C954",
"eX c #D2860D",
"rX c #EA8F09",
"tX c #F9BC24",
"yX c #82CF1F",
"uX c #82CD2B",
"iX c #80CC26",
"pX c #86D326",
"aX c #83CB36",
"sX c #95D433",
"dX c #EBD420",
"fX c #9C8256",
"gX c #838254",
"hX c #A28352",
"jX c #85BA51",
"kX c #928368",
"lX c #B88B79",
"zX c #B98E78",
"xX c #86BA6C",
"cX c #D09078",
"vX c #DDA17A",
"bX c #82C94A",
"nX c #84C556",
"mX c #90CB42",
"MX c #A3DB49",
"NX c #758381",
"BX c #A89F97",
"VX c #D69582",
"CX c #F9BD97",
"ZX c #F1B692",
"AX c #EBAE90",
"SX c #FAC195",
"DX c #FBC08F",
"FX c #E9ECEE",
"GX c #DDE1E0",
"HX c None",
/* pixels */
"HXHXHXHXHXHXHXHXHXHXHXHXHXHXHXHXHXHXHXHXHXHXHXHXHXHXHXHXHXHXHXHXHXHXHXHXHXHXHXHXHXHXHXHXHXHXHXHXHXHXHXHXHXHXHXHX",
"HXHXHXHXHXHXHXHXHXHXHXHXHXHXHXHXHXHXHXHXHXHXHXHXy.g e 7 0 e L h.HXHXHXHXHXHXHXHXHXHXHXHXHXHXHXHXHXHXHXHXHXHXHXHX",
"HXHXHXHXHXHXHXHXHXHXHXHXHXHXHXHXHXHXHXHXHXJ # X i E 7.7.7.| i y   & <.HXHXHXHXHXHXHXHXHXHXHXHXHXHXHXHXHXHXHXHXHX",
"HXHXHXHXHXHXHXHXHXHXHXHXHXHXHXHXHXHXHXb   u I.mXsXsXpXyXpXiXaX_.@.h > + J HXHXHXHXHXHXHXHXHXHXHXHXHXHXHXHXHXHXHX",
"HXHXHXHXHXHXHXHXHXHXHXHXHXHXHXHXHX1.: E jXMXpXpXuXaX%XuXiXiXiXiXbX4.7.a.b X J HXHXHXHXHXHXHXHXHXHXHXHXHXHXHXHXHX",
"HXHXHXHXHXHXHXHXHXHXHXHXHXHXHXHXf < I.MXsXyX}.=XaXaX%X%X-X%X%X%X=X).&.5.1X3X< * HXHXHXHXHXHXHXHXHXHXHXHXHXHXHXHX",
"HXHXHXHXHXHXHXHXHXHXHXHXHXHXHX# E sXmXaXuX=X-XuXiXiX=X%X%X=XiXuX%XiXL.-.&.5.8Xt.o J HXHXHXHXHXHXHXHXHXHXHXHXHXHX",
"HXHXHXHXHXHXHXHXHXHXHXHXHXHX# | sXpX*XuXuXuXaXuXiXyX%X%X%X-X%X%X-X}.mX4.2.5.5.P.a.# J HXHXHXHXHXHXHXHXHXHXHXHXHX",
"HXHXHXHXHXHXHXHXHXHXHXHXHXX | sX%X&X%X%X-X%X=X:XaX&X%X&X%X$X$X$X=X-X:X7X5.#.5.| 7.3X: c HXHXHXHXHXHXHXHXHXHXHXHX",
"HXHXHXHXHXHXHXHXHXHXHXHXq u sX%X$X%XaX=X*X=X$X$X=X=X$X-X$X-X=X$X*X%X}.aX-.=.2.#.=.6.a.X HXHXHXHXHXHXHXHXHXHXHXHX",
"HXHXHXHXHXHXHXHXHXHXHXHX: _.=X}.#X=X*X$X-X*X$X$X$X$X&X&X&X&X$X#X:X}.:X>X`.@.#.=.=.-.a.d.- HXHXHXHXHXHXHXHXHXHXHX",
"HXHXHXHXHXHXHXHXHXHXHX> 5.aX{.oX$X:X$XoX$X#X*X$X*X*X$X&X-X#X&X#X:X}.:X&X:X&.@.@.=.@.=.d.) # HXHXHXHXHXHXHXHXHXHX",
"HXHXHXHXHXHXHXHXHXHXHX: :X}.oXoX:X:X{.#X$XoX$XoXoX&X#X#X&X&X&X#X:X}.oX}.aX4.@.@.' @.| =.3Xa b HXHXHXHXHXHXHXHXHX",
"HXHXHXHXHXHXHXHXHXHX, ( |.#X{.@X:X&X{.#XoXoX$XoXoX&X^.+X&X+X&X&X+X$X{.{.:XL.@.+.@.R @.| =.a.. HXHXHXHXHXHXHXHXHX",
"HXHXHXHXHXHXHXHXHXHX. P.J.^.XXXX+X+X[.{.oXoXoXXXXXoX^.XXoX+X+X+X&X+X{.oX{.).| &.} { R { =.p.a 0 HXHXHXHXHXHXHXHX",
"HXHXHXHXHXHXHXHXHXHX. R L._.!.XXoXJ.[.[.XXoXoXXXoXoXoXoX^.oXoX@X+X^.XX(.XX:X] } @.} ( v #.+.f.. HXHXHXHXHXHXHXHX",
"HXHXHXHXHXHXHXHXHXHXp 5X*.T L.!.OX X XXX!.XXoXXX[.oX!.XX+X^.+X+X[.XX[.XX[.>X&.} ] +.#.v ( #.5.a HXHXHXHXHXHXHXHX",
"HXHXHXHXHXHXHXHXHXHXf bXqX6X| | '.].R.!.!.XX^.J.^.XXXXXXoX^.+X^.[.[.[.J.G.>X*.+.+.} ] i.- ..@.v 0 HXHXHXHXHXHXHX",
"HXHXHXHXHXHXHXHXHXHXh nXwXqXqX7XY L.'.'.XX X!.G.!.OXXX^.OX+X~.:X~.!.R.J.[.;X4.+.} } | @.2.- $.m * HXHXHXHXHXHXHX",
"HXHXHXHXHXHXHXHXHXHX: 7.9X0X,X>X5XY `.~.XXR.G.G.~.~.XXR.+X+X~.+XOX!.XXJ.J.;XK.-.=.=.} } 1X3 o # HXHXHXHXHXHXHXHX",
"HXHXHXHXHXHXHXHXHXHXHX< . v 6XqXwX0X&.^ (.~.H.R.~.R.G.G.OXOXR.+XOX~.~.~.R.;XP.} | =.+.} -.{ e kXHXHXHXHXHXHXHXHX",
"HXHXHXHXHXHXHXHXHXHXHXHXc & 3 6.aXnXwX4.&.(.!.R.R.T.R.T. XOX~.OXR.OX~.R.OX>XP.} } +.@.+.=.a.$ BXHXHXHXHXHXHXHXHX",
"HXHXHXHXHXHXHXHXHXHXHXHXHX  lXG ) 0XbXxXK.! !.H.T.T.R. XH.G.T.E.R.R.R.E.~.>XK.%.' X.$.$.] 1XX HXHXHXHXHXHXHXHXHX",
"HXHXHXHXHXHXHXHXHXHXHXHXHX. zXAXJ h nX0XnXp.^ T.S.H.T.E.T.H.H.E.T.Q. X X(.>X4.+.$.@.+.' ] 1X; HXHXHXHXHXHXHXHXHX",
"HXHXHXHXHXHXHXHXHXHXHXHXHX= M.DXZXg.p 7XwXbX5.^ H.F.T.E.E.Y.Y.Y.Y. XY.'. X,X&.o.+.+.+.+.' p.a HXHXHXHXHXHXHXHXHX",
"HXHXHXHXHXHXHXHXHXHXHXHXHX= 3.SXzXDX1.i 0XbXjX| P.].D.Y.Y.Y.Y.Y.Y.F.Y.F.|.(.%.o.o.+.o.+.-.2Xa HXHXHXHXHXHXHXHXHX",
"HXHXHXHXHXHXHXHXHXHXHXHXHX> k zXe r 8 ,.h 6X>XjXY U.S.Y.S.F.Y.F.F.F.Y..X;XK.` ' ' ' o.+.+.8X; HXHXHXHXHXHXHXHXHX",
"HXHXHXHXHXHXHXHXHXHXHXHXHXb q B.>.dXdXtXS ( wXbX7XT U.S.F.F.F.F.F.F..X,XW.%.O.' ' O.X.O.-.2X. HXHXHXHXHXHXHXHXHX",
"HXHXHXHXHXHXHXHXHXHXHXHXHXHXo B.Z rXrXrXeX8 $.9XbXP.! U.F.F.Y.S. X.X.XY.%.( _ ` ' ' ' ' 1XR e HXHXHXHXHXHXHXHXHX",
"HXHXHXHXHXHXHXHXHXHXHXHXHXHXO n.Z b.b.c.A 2 1 2.2X9XW W.~. X.X.X,X/.K.O.X.X._ _ ..X.%.r.f.& HXHXHXHXHXHXHXHXHXHX",
"HXHXHXHXHXHXHXHXHXHXHXHXHXHX1 m.w H 5 + NXFXBX3 e.e.q.d ;.%.;.%.W W ` O.X.` [ ` { ] -.3X- b HXHXHXHXHXHXHXHXHXHX",
"HXHXHXHXHXHXHXHXHXHXHXHXHXHX1 zX8   n h.GXGXBX& n q.t.z  .o.O.[  .X.' ` ` O.O.[ [ &.8Xp e HXHXHXHXHXHXHXHXHXHXHX",
"HXHXHXHXHXHXHXHXHXHXHXHXHXHX& vXCXVX3.k w r u.B.1 s.r.i.a ..X.+.X.O.' _ ' ' ` [ 6.1X3   HXHXHXHXHXHXHXHXHXHXHXHX",
"HXHXHXHXHXHXHXHXHXHXHXHXHXHX1 cXCXCXZXCXZXCXCXCXe 0.r.t.3  .X.o.o.] _ _ ' ` o.2Xp.a x $ HXHXHXHXHXHXHXHXHXHXHXHX",
"HXHXHXHXHXHXHXHXHXHXHXHXHXHX- x 3.3.C.CXSXSXCXVX- q.q.i.: X._ ` ` o.+._ ` -.3X#.. + t @ h.HXHXHXHXHXHXHXHXHXHXHX",
"HXHXHXHXHXHXHXHXHXHXHXHXHXHXHXO r V.AXZXSXCXZXc n e.t.n v X.O.O.X.X.X.-.1X1Xa O = 1.3., 2 HXHXHXHXHXHXHXHXHXHXHX",
"HXHXHXHXHXHXHXHXHXHXHXHXHXHXHX1.o 9 n.cXVXVXG f s.i.w.3 X.' ` ' ] -.3X1Xz O 0 D x.A @ q c X HXHXHXHXHXHXHXHXHXHX",
"HXHXHXHXHXHXHXHXHXHXHXHXHXHXHXHXHXe = 0 I n.> q.r.t.3 ( X.o.-.2Xd.i.a - # 2 x.F % % P B   J HXHXHXHXHXHXHXHXHXHX",
"HXHXHXHXHXHXHXHXHXHXHXHXHXHXHXHXHXHXB.4 k k :  .q.z o.-.+.( z : y i 7.> $ @ 1 1 % U 6 b @ , HXHXHXHXHXHXHXHXHXHX",
"HXHXHXHXHXHXHXHXHXHXHXHXHXHXHXHXHXHXHX4 B.AXf h 1 X i R i v - ( / ^ L.; q & 1 2 A r q % k c 5 HXHXHXHXHXHXHXHXHX",
"HXHXe   6 q @ HXHXHXHXHXHXHXHXHXHXHXHX. gXE 5X_ s p Q Q h z 4 > ~ ~ L.X K # 8 x.S # 0 8.@ 5 HXHXHXHXHXHXHXHXHXHX",
"HXHXX O * r b # HXHXHXHXHXHXHXHXHXHXHX@ b 5X&.7.y 5./.).5Xr.s.; / ^ L.X K 7 < * o q g @ c HXHXHXHXHXHXHXHXHXHXHX",
"HXHXHXg g.2 V g @ HXHXHXHXHXHXHXHXHXHXO 7XQ A.W.: 4X-.) v p v x s ! P.- 9 K g 5 S r , HXHXHXHXHXHXHXHXHXHXHXHXHX",
"HXHXHXHXHXHX@ P * c HXHXHXHXHXHXHXHXHX1 ( K.^./.: < 1.g.n.9.8.2 W ~ P.. k $ C P A = m.HXHXHXHXHXHXHXHXHXHXHXHXHX",
"HXHXHXHXHXHX6 N 3.X HXHXHXHXHXHXHXHXHX: &.A.A.~ s 1.DXSXAXZ.cXr ! ! 6.  = 0 = = 1 > b g.HXHXHXHXHXHXHXHXHXHXHXHX",
"HXHXHXHXHXHXHX= P C + HXHXHXHXHXHXHX, - p Y Y Y - e N.B.B.n.n.B - - #     O +   @ B r = HXHXHXHXHXHXHXHXHXHXHXHX",
"HXHXHXHXHXHXHXM C l.F t HXHXHXHXHXO 1 w S A 8 8 2 r r 7 6 > 9 9   U I & m g.M w P 6 5 7 = HXHXHXHXHXHXHXHXHXHXHX",
"HXHXHXHXHXHXHXHX+ 3.l.x.,.S D 3.r J g A k.x.k.x.+ C Z D D 8 t 8 = U ,.* m # N P & e <.o HXHXHXHXHXHXHXHXHXHXHXHX",
"HXHXHXHXHXHXHXHXHX@ k.v.z.j.k.l.8 N 7 , r N r r 6 D Z F F Z B G   * # . # Z S @ J HXHXHXHXHXHXHXHXHXHXHXHXHXHXHX",
"HXHXHXHXHXHXHXHXHXc + q A K g N @ n.A . > e > = A D 8 D Z N 8 g o  .w.6 I x.$ f HXHXHXHXHXHXHXHXHXHXHXHXHXHXHXHX",
"HXHXHXHXHXHXHXHXHXHXHXHXHXHXHXHX    = : 4X&.I.: q 5 A D Z N 8 e a O.p t n.t 6 HXHXHXHXHXHXHXHXHXHXHXHXHXHXHXHXHX",
"HXHXHXHXHXHXHXHXHXHXHXHXHXHXHXHXHXHXHXX 5X4X! y : # K H N N H @ 4 v h.# $ $ HXHXHXHXHXHXHXHXHXHXHXHXHXHXHXHXHXHX",
"HXHXHXHXHXHXHXHXHXHXHXHXHXHXHXHXHXHXHXg a 5X9XnXxX{   , g w = 0.NXNXz . b HXHXHXHXHXHXHXHXHXHXHXHXHXHXHXHXHXHXHX",
"HXHXHXHXHXHXHXHXHXHXHXHXHXHXHXHXHXHXHXHX= - p v 0.0.x o O   m m a O 4 HXHXHXHXHXHXHXHXHXHXHXHXHXHXHXHXHXHXHXHXHX",
"HXHXHXHXHXHXHXHXHXHXHXHXHXHXHXHXHXHXHXHXc.<.+ G 1., w K L L u.% b u.HXHXHXHXHXHXHXHXHXHXHXHXHXHXHXHXHXHXHXHXHXHX",
"HXHXHXHXHXHXHXHXHXHXHXHXHXHXHXHXHXHXHXHXfXm.  & * @ G V.cXV.u.  N.HXHXHXHXHXHXHXHXHXHXHXHXHXHXHXHXHXHXHXHXHXHXHX",
"HXHXHXHXHXHXHXHXHXHXHXHXHXHXHXHXfXHXHXHXkXu.@ u.3.V 6 r 5 5 9   N.HXHXHXHXHXHXHXHXHXHXHXHXHXHXHXHXHXHXHXHXHXHXHX",
"HXHXHXHXHXHXHXHXHXHXHXHXHXHXHXHXHXhXHXhXhXg.X * q 5 J x.F H G   N.HXHXHXHXHXHXHXHXHXHXHXHXHXHXHXHXHXHXHXHXHXHXHX",
"HXHXHXHXHXHXHXHXHXHXHXHXHXHXHXHXHXHXHXHXHXfXg.b < , O + * 2 O M M.HXHXHXHXHXHXHXHXHXHXHXHXHXHXHXHXHXHXHXHXHXHX, ",
"HXHXHXHXHXHXHXHXHXHXHXHXHXHXHXHXHXHXHXHXHXHXHXHXHXM.1.f HXHXJ m.HXHXHXHXHXHXHXHXHXHXHXHXHXHXHXHXHXHXHXHXHXHXHXX "
};
