/* XPM */
static char *d8911c2c_92de_43c7_8765_9625ad46d5f91676374757[] = {
/* columns rows colors chars-per-pixel */
"60 60 83 1 ",
"  c #151515",
". c #181617",
"X c #191917",
"o c #171719",
"O c #1B1B1C",
"+ c #1E201F",
"@ c #21211F",
"# c #1E1E21",
"$ c #211F24",
"% c #1F2023",
"& c #242424",
"* c #292625",
"= c #292826",
"- c #262629",
"; c #28272C",
": c #27292B",
"> c #2C2B2C",
", c #312E2D",
"< c #2E302E",
"1 c #32312E",
"2 c #2E2E31",
"3 c #302F33",
"4 c #2F3133",
"5 c #333334",
"6 c #393635",
"7 c #363836",
"8 c #3A3936",
"9 c #363539",
"0 c #38373B",
"q c #37393C",
"w c #3C3B3C",
"e c #403B37",
"r c #413E3C",
"t c #3F413C",
"y c #42413E",
"u c #49453C",
"i c #4B483F",
"p c #3D3D41",
"a c #413F43",
"s c #413F4A",
"d c #3E4043",
"f c #434343",
"g c #494643",
"h c #474845",
"j c #4B4945",
"k c #454549",
"l c #48474B",
"z c #47484C",
"x c #4B4B4B",
"c c #514D47",
"v c #514E4A",
"b c #53514D",
"n c #5A544E",
"m c #454351",
"M c #4D4C52",
"N c #4F4D58",
"B c #514E52",
"V c #504E5B",
"C c #4F5152",
"Z c #535353",
"A c #5A5752",
"S c #5B5954",
"D c #55545B",
"F c #59565B",
"G c #5B595C",
"H c #60575C",
"J c #615E5E",
"K c #565562",
"L c #585665",
"P c #5C5B64",
"I c #575668",
"U c #5C5B6B",
"Y c #635E63",
"T c #605F6F",
"R c #626061",
"E c #696465",
"W c #62616A",
"Q c #6A676C",
"! c #71686B",
"~ c #626171",
"^ c #6E6D7B",
"/ c #716C71",
"( c #726F78",
/* pixels */
"zFDDDWz5YLUD8fvZDW(/ZZFD,yGWEkA/QQY^f1UDPM>pkMKT~TmUUM#pIPK5",
"pPWWDxz:rxfg<axxbggjB!Gv,fZAj8zFEGChg>fhkh>akxkffwqDaq-wMddp",
"wdzMxhx=plZv00hhkrw61yjw>8EJDwhhxbxjj%wxBx9wtftq593pfq-MDDk4",
"7kfdffy:9gvx7>w875Bywwyu5kvbjw0gffgyw&0hvh25q545pw590w-7dkd5",
"=900q5> =576#->>&*>1,=,>O&568,&5559># =>>> &==-:*;-&-& &222-",
"079a2&qkwfk005aQGFjGj5Evyr168yfwyGa>kMkMBkh9MLDVkUppKhp097px",
"yfjDM;7wfzhdf0wCbChzf5jhwyfruggcbnf=0whkfww5pMxMkk9qkp9pdwpt",
"djxMf#5wpfahw7>bCbxxp>fhw8hyrrfvbxw=5wwfaaw52MkMkf33ppq0pw00",
"thhfwp3559wq5,>dxzzf0>wah:yywwuigyww1<59053&>phkkp229pp:qw7q",
"80752-2&&>753;&5797q>O175&&66688511&>&&>55>>&22225&#222O%455",
"5pw9>>4=qpw9-5rw5&=ME!Exh7ykg55Bxf160>pkpf=app5#2mIUIMppMkf2",
"xBBxfyh:wMxl3lggf65fxBZMzvbZv8ljjghgg=aMxk5sfaw59pMMMkkmMMk5",
"wrhffff:qkMxpwffy8>hxMxzhxxzg08yjjghf>wkMkqwpkw>4pddmdpdkkp5",
"5wfhfwp-9pppw>7aa>>wdffpwy0ay71yjggf0>wppw9>5ww=>ppdpqp34qq2",
"5860wp5=25955->;>#&0w952>>>>2&588ww8>&55533--$$o;592::;&-;;#",
"0ww:5a9>0kw52x56>a095wM>=kBllragl*wyw0flk59kp99kp29mN%pIUksk",
"zhf7wwjxjxxk5whkwfhywkf5hYPjvccgc1yhbAbbxw5thwwfsp959:pBzkzk",
"fwy50thxjzxw,fzwfjxxht:=3fZvjgfug1tixvggb85hh9pkkkpp-#5pzkff",
"f0w>>wdfwyhp>rp7rhjjxj0O,ufgxjuru:yygjhyj75ww5wakkfp5#5paafp",
"ywt<wypddww9-55>wtyyyw7:,wryuyyrt18yyyhyy4>5>5www0w95&2900w7",
"1>=-24422=:=#>o&2aw;;35>*www73,015wdw0w@2>9;o>pmp::9w<9pkpq2",
"9kpqppkkK,2MPD>HGGYG6vbbcbSAve5fwtyyhCb>5MGB3VBxDM3hgzyhzjw3",
"5qq9ppppw45akh57afyw,ybnbcbciw5ww8wtyww>yhgh,8fft6,yxxhhhfy5",
"59q5:24452<wq5=57065>rvjgyyyy61ww7>558w=8yw5>56775>whf07008>",
">242-##:>&#>7>X=>3,>O867:<5>55O>2>&OO>&X&::OO&>=;&O1:;=&:22:",
"kkkmNDk#Dh0wrhDDw*bjh1#1gxxxxxFFFDW/Z=EnbbSAEGw5Bzg1@fMMNMzM",
"MDMMdzK2gbbbzyyyw115ww1wZZbxxbZDbxgBF>nSAScijyt,8er8:kMMmkdM",
"kfppppp-yzjzygzyw>116r,wkzxzxjjjhkyhy=cbnjgcbyr,6err=dkpkddp",
"kppkpp9#whrpffhhy=1556>whhzzkfffzzyre$vjuiujcgy>eew6=dfkddpp",
"p45q922#990ww0577&1155==57qwq8770wr=,O80785553>*68w5#&222522",
"pkppwf5opBax>=>6wlxlk6hj25GJDyaxjhkF5&FBZv=5rgxBBlpkDx%wUGZ7",
"wMCNxzM=8ayf5>hzxggfaYFx16cbx8uZZAccc,efvc1uvAbccgfFBr>yMxq5",
"wdzxkhz5>fjcd>yhkww55rjr,1jxxfyjbbcbb*rcHn6ugcjur86gvw=yxzx4",
"0hddfff><yCct>w0776ww8yy1kCcjrexjhjjy*rcnn5ryre8firucy>fjxf4",
"5qpq9w2o&700>&1>>&155>65@&8ffw@rdwt7> >w68O>>>&*>11,1;.*5qq=",
"w5555&25,wf955*PZkfhl&hw151<1wy5575=ryegxyy8lQYSbJ86Zhwwq9wf",
"fthhk>5wpfhdww5xxCzka5hk0tyyyigcbby,yyjvvgiryZAAnbwrvh8hhyyy",
"fhxxf>2wpkaff0>zxvxjf>wgy5hyruibnby=6ygjjxu86nAAAb06gg8yyyww",
"ffhf055259p955>pzzkk0>0yf>yrrrujcir8518yrw611jbcxg,6rfg=yww8",
"t0055:2-&>551>+59q0w4O557;&78wwrw15:5&&1w88:=w7www=&665&=577",
"055>2=5&39p5;;p22-=qpqkkd55ff7:w88117-wkw0=sww5@<khxBxywglk2",
"fahhtwp2qpkkpppktq>wkMMMzxbCgyyjxjgjj>fxZv5nvju88jnZZBxZAAj5",
"0tfpffp>3pkmk5pfyw-pkMlxfzxxjw6igjjgh>rxZxwggcg66jxBxhhxxxh,",
"7wdfdpw29pppw>7wd5%ppaapfw0tf0>ugjgyy>wrfyy1rgf;1fgghyfw0aw>",
"7700pp9&23959-222&O9pp54>2395>>wywyw3&506w6>>-&o,wa72>>>233#",
"0595>pq29pp5&953>795;qk2OaBkk81wf=wfw0whf33kr80lrw0vV$qILlkw",
"zff950flkkzk>waa0yfa09pp5FPgjjghu5yhbSAZvw5gvgyvjxy0r>fFvxxg",
"hww75wfxhkxd>wka0hkhkr>>=axxjgyyh6wyvbjvvw5vvrgvbbxy>&8kxxgf",
"fww4-9wfpqpd>pp50hfgxkw&&wkfzgyyy>wyyghyjp5fy6hgcvvg0O7khhhf",
"gwp99wwpppwq-57-7wwwpwq2=wwdyyryw,wyhyhyy526,5uyyyfp0&5wwyr0",
"p22;244992;-#-#O>00>&332&wwa072q557ww07&>*,>.,ajr>;rp56hzkw2",
"wpp59pdpp9#pkk29fkhk3khlggxjyw1pw8wydff>6lxl>AnHbg7ccvjgbjw<",
"ppp29pppp9-pkp35ppaw>wgZxjjhyw40w50wwww>wfjf1wyhfe1gbncjxjf1",
"4:pp:24:35#pp9;33577>whhfwyyyw:ww7>>77w>0rw0:68w881yvgywww8:",
"p#p:4%#:22o;22o&;2>>O295>>>>1>o>>>&OO=>#@>>&O&*=**O5>>>>>59:",
"dpppddp%wppqpkxlp#q70,&=ahfzzhCzxCDDk=FvjjZBAZw1nvg8&fZxMxkd",
"dKddpppp4VdVzfwww535w875MMMzmxMxxkfhl>xZAAjgjyw56rrr>zZZxkkM",
"ddddppp:4ddzddhfw2,55w55dkkkkkkzkkwaw;gcxgijcfy>68wu:fkkkkkd",
"dpddppp:2dddpwddw5555725ddfkddppkkfww$ghyfhgkgy>8688;pkkkppp",
"dppdpp:::ppppppp0&>>3q2%p3pp99p99wq&2o335495952&5357&&q5pp59"
};
