/* XPM */
static char *istockphoto_1158074847_612x612__2_1676374757[] = {
/* columns rows colors chars-per-pixel */
"60 60 35 1 ",
"  c #070707",
". c gray3",
"X c #090909",
"o c gray4",
"O c #0B0B0B",
"+ c #0C0C0C",
"@ c gray5",
"# c #0E0E0E",
"$ c gray6",
"% c #101010",
"& c #111111",
"* c gray7",
"= c #131313",
"- c gray8",
"; c #151515",
": c #161616",
"> c gray9",
", c #181818",
"< c #191919",
"1 c gray10",
"2 c #1B1B1B",
"3 c gray11",
"4 c #1D1D1D",
"5 c #1E1E1E",
"6 c gray12",
"7 c #202020",
"8 c gray13",
"9 c #222222",
"0 c #232323",
"q c gray14",
"w c #252525",
"e c gray15",
"r c #272727",
"t c #282828",
"y c gray16",
/* pixels */
"=-=X,4,,,4-,,4,,-,,4,,4-,4,,,=,4,4,,-,-,---4,4,,4,=====-====",
"=-4-4,,===$$=-==,=$==$===$$=-===$=-======$==-=$===$ X$X=$-==",
",499w9w==$$$$$=,,,,,$-------,---,499999=44,,4,=$$$$=$$X,,444",
",499999=$$$$$$$-,,,--,-=-==-,,,,-,99994=,,-4,-=$$$$$$=X44,,,",
"---==,4-=-=$=XX$-=,----=,,---=XX$=X=$--=-=X=-=-$X=$==$X$=X$-",
"444,-44,4,===--=--,44,4,w99994X=X$$$X----==,,,4,4,$$X$$$$X,,",
"-,-==--,-,$==$===$==-=-=4444,4X$$$X$$$$$==$,,----=$XX$XX$ $-",
"-X$X$==$-,,,4-94444,---,,,=,-,,--==---=X--,-,,-=49tw49=,-==-",
"- $$$$$ ,,4,,-99999w----,,-,,,,4,=-====$,-,,,,--w999w9--,-,-",
"-=--$$  -,=--==-4=-9-$=$=-$==$4,,$$$X$$==$=---==,9-=--$$=$,,",
"999w$--===$94,,44$,,,,-=44444,99w9w9-444,94-944949,44,44,=9w",
"9999=-===-$,,44,,$-,---$,,,,,-49999w,,,,4,-4449444,,,,,4,=49",
"=$,=--=$--===$$X$X==X=-=$$$$=-,--=4-=--==,-,-,-,4=$$$-X==$-4",
",,44444,,--,,-X$$$=X$---===-,444,=-,-,,--,4,4,-=$=$$$$$,4,4,",
"-,44,,,---=--=X=$XX$$===$=$----,,=----,==-,,,-=$X$$$$$X,=,,,",
"4444-,--$-$-99,,==9,,44-,,----=4,,94$=-===$=44,,,9$-,4,,,,--",
",,4,=-,---$444444=999994,4,4,,-,4,44$=====$49w9999-44,,,4--,",
"-=4-X$====$=--,4,=4,4,,--===--=,-$,,=-=$ $X-,4--,,$--,,==-,=",
"w,444,4-99449w-444-,=44444,$$=====949w9,=,---,=-,,,-,,=4,999",
"9,4,,4--999999-,4,,4=4,-,,,$$$$$$=999w94==--===-,,-,,,$49999",
"--=9$=$$=$X,,--==$$-======$$X$==-===--4--=-=$X$$-=$=,====--=",
"4,4,=$$$$$$,4,444=====-$,4,44,=-,-==$444,44-,,,44-=--,----,4",
",,,4X$$$$$$-,44,,======$4,,,,,=---,-=--,,,,-4,,-4,=-------,4",
"-X==$$==,94-=--===$$$$$$$$-=,,4,-$4,4,===$=-=$$$,,-,-=-$==,,",
"9======$,4,,4,$-----=$$$$$$-,4,4,=,,4,4,X$$$$$$-9w9w994-,4,,",
"=X$$X$$$-=,,--X$$==$X$X$X$X=-,,===,,,,-,$$X$X$X$,44944,=-===",
",-----$-,4,49w999-49,,,$9w994,$=4-,-=,-,,49$$$===$X=$$$$$X=-",
"-,-,=,4,,,,499999-,4,4-=9999w9=-----=,,44,-===--==$$$$$$=X--",
"$XX=$=-,-4$--,--,===-$=-44,,94$=-$==$-$$=-4-=$$$$=$=X$X=--==",
"9=$$$$$$,9444,=,,,,,--=-,-,=444,,=$X$$$$=4449,,--,-4,,-49999",
"4-$$$$X$,,4,4,=-,--,==-----=4-4,-=$=$$$$$,,,,,,$-,--,,-,9999",
"==$=$$=$$===,$-$=$==$$=$--=-$=$=$$=-XX $====$===,4$=---$,-=-",
"-,,4---====-,44,,-$$$$$X-,444,-,4,,4-=----=$---,,-=----,--,,",
",-,,$======-,,,,,=$$=X$$--,-,4-,,,,,------=$=--=--$==---,--,",
"=$,,4,-=-4,44w--4-$=$=--=-=-4,,,4-,---,--=X==$$$9994444,9-,,",
",,444,,-999999-,,,-4=----,,,w999w-4,,4,,$$=$$X$$9999999=4444",
",-$===-=,,--,,=--==-$=$$==-=--,,4==-=$==X$XXXX==,,-,,,,-==-,",
"tw99,,,,4,,X$====$9ww999--4,,4-4,-44-,9t9w9-,,,4,,=,,,,,,-,w",
"ww9w4,---,,$X$$X$$w9w999,,4,4,=,,,,,-9ww999-,,,4,,=-,--,,,,9",
",-=-=-=$X==$$$X=$$,--==$=,=$-,=$=$$=--,4,-========$$$$X$,=--",
",=$$$$$$-,=--=$,44,,4$$===$======$--,---=,44,,4======-==4,44",
",$$$$$$$===$===,,,,4,X$$XX$$======---,--=,,,4,-$=-====-=44--",
"4,-=X==-,4-=4-w44-===--=$$$=$$$==---$X=X$$=X=$-4,,=-,-$==-$=",
"----=44,,,,4999w94,4,4,,---,,--44,4,,$=$$$X=,4,,,,=,,4,,,4--",
"==$$$=-,===$4,,,--,-4,-==$==--=-,,---X$$X$$-,,,---==--==--$=",
",-4-,444$$X$-=-4,4,-,,,-===$-,-4,,=9,,-,$-,-,44-,-,-=---4,,4",
",=,,,,,4$X$$$X$--=---==----=,,,,,,$-,,-=$,,,,,4--------=,,4,",
",-===-=$==$X$= ===$$=-$$$==X=$==$$X=X====-===$$$$-$$$$$=,=-,",
"9w994,44,4,=,444,-4449,,,4,4,,=44,,,4,www9w,4,44,,-44,4,4,-9",
"9w994,,,,,4=4,,,,-,,,,,4,44,,4=-44,,,,99w99-4,,,4,,,,4,4,,,w",
"=$$=$=-=$$==-4-=4,----=$--,---$$--==--,---=$==$X$==-==$$$==X",
"-=-,,4,,=,,44,-ww9w9w-,,,4,---===--ww9ww-X$=$$X$-,,4-4,=====",
"==,-,-,,=-,,4,=944499-4,,,4-====---94999=$$X$X$$--,,,,,,===-",
"99444$==$$=X,--4-$=4,---=---=4$==,--==$=$=XX-==,=$=$=$X$X$$,",
"9w999$$$$$$=4,4,,-,,,44,-,4,,,-,-4-,-=-,---$,,,,,,,=$$=$$$X9",
",944,X$XXXXX=,-=-=-,,,4,$,4,---$-==$-$$$=$$$---==--XX$X$X$=4",
"4,=--444=,4,,--4,4-9,-94-wt4-,-,44-,-444-=$$$=$$-99,,--=-444",
",,,,4,,4=-,,,,,44,4,4,w9w994,,4,,4-,4,,4,=$X$$$X,,,4,,,-,,,4",
",$$=,4,-$===4-$$$-=$,,--==-,-=,=$=--=$$=$-$X$XXX=$--=--$=-,9",
"===X4,,,,4-44,-,=4,,4,4,,4,,,=,,,44,=,,,---,,,,4,=-----=$==="
};
